<?xml version="1.0" encoding="utf-8" standalone="no"?>
<!DOCTYPE svg PUBLIC "-//W3C//DTD SVG 1.1//EN"
  "http://www.w3.org/Graphics/SVG/1.1/DTD/svg11.dtd">
<!-- Created with matplotlib (http://matplotlib.org/) -->
<svg height="223pt" version="1.1" viewBox="0 0 334 223" width="334pt" xmlns="http://www.w3.org/2000/svg" xmlns:xlink="http://www.w3.org/1999/xlink">
 <defs>
  <style type="text/css">
*{stroke-linecap:butt;stroke-linejoin:round;stroke-miterlimit:100000;}
  </style>
 </defs>
 <g id="figure_1">
  <g id="patch_1">
   <path d="M 0 223.2 
L 334.8 223.2 
L 334.8 0 
L 0 0 
z
" style="fill:none;opacity:0.0;"/>
  </g>
  <g id="axes_1">
   <g id="line2d_1">
    <path clip-path="url(#p708edf9f80)" d="M 0 223.2 
L 0.467071 223.070053 
L 0.934142 222.680555 
L 1.401213 222.032527 
L 2.101819 220.579648 
L 2.802425 218.557632 
L 3.736567 214.997344 
L 4.670709 210.483977 
L 5.838386 203.574417 
L 7.006064 195.361382 
L 8.407276 183.971985 
L 10.042024 168.902211 
L 12.143843 147.424888 
L 16.347482 101.437946 
L 19.149907 71.989177 
L 21.251726 52.188839 
L 22.886474 38.722653 
L 24.287687 28.77795 
L 25.6889 20.459482 
L 26.856577 14.843525 
L 27.790719 11.239784 
L 28.72486 8.437205 
L 29.425467 6.862408 
L 30.126073 5.73744 
L 30.82668 5.058039 
L 31.29375 4.84956 
L 31.760821 4.833889 
L 32.227892 5.008231 
L 32.694963 5.369418 
L 33.395569 6.253745 
L 34.096176 7.537224 
L 35.030318 9.843651 
L 35.964459 12.794371 
L 37.132137 17.32364 
L 38.533349 23.872725 
L 40.168098 32.839502 
L 42.036381 44.501011 
L 44.371736 60.597693 
L 46.70709 77.665002 
L 46.70709 77.665002 
" style="fill:none;stroke:#8e4b32;stroke-linecap:square;stroke-width:2.0;"/>
   </g>
   <g id="line2d_2">
    <path clip-path="url(#p708edf9f80)" d="M 0 223.2 
L 0.732668 223.10526 
L 1.465337 222.821314 
L 2.198005 222.348975 
L 3.297008 221.290345 
L 4.39601 219.817837 
L 5.495013 217.940933 
L 6.594015 215.671692 
L 8.059352 212.061208 
L 9.524688 207.820302 
L 11.356359 201.706106 
L 13.18803 194.788941 
L 15.386035 185.597737 
L 18.316708 172.205779 
L 23.079053 149.056833 
L 27.475063 128.038772 
L 30.405736 115.148114 
L 32.603741 106.404437 
L 34.435412 99.857155 
L 36.267083 94.065981 
L 38.098754 89.093728 
L 39.56409 85.737669 
L 41.029427 82.952837 
L 42.128429 81.245505 
L 43.227432 79.867409 
L 44.326434 78.818622 
L 45.425437 78.097346 
L 46.52444 77.699995 
L 47.623442 77.621282 
L 48.722445 77.854321 
L 49.821447 78.390734 
L 50.92045 79.220762 
L 52.019452 80.333394 
L 53.118455 81.716482 
L 54.583791 83.958449 
L 56.049128 86.624212 
L 57.880799 90.497749 
L 59.71247 94.904124 
L 61.910475 100.788258 
L 64.474814 108.307924 
L 67.771821 118.69405 
L 73.266834 136.759021 
L 73.266834 136.759021 
" style="fill:none;stroke:#d4925e;stroke-linecap:square;stroke-width:3.0;"/>
   </g>
   <g id="line2d_3">
    <path clip-path="url(#p708edf9f80)" d="M 0 223.2 
L 2.232 223.010192 
L 4.464 222.442586 
L 6.696 221.502622 
L 8.928 220.19929 
L 11.16 218.545028 
L 13.392 216.555569 
L 15.624 214.249759 
L 17.856 211.649333 
L 20.088 208.778657 
L 23.436 204.024937 
L 26.784 198.822187 
L 31.248 191.371097 
L 39.06 177.665882 
L 44.64 168.024188 
L 49.104 160.776299 
L 52.452 155.758473 
L 55.8 151.189512 
L 58.032 148.427274 
L 60.264 145.912375 
L 62.496 143.659276 
L 64.728 141.679724 
L 66.96 139.982731 
L 69.192 138.574594 
L 71.424 137.458931 
L 73.656 136.63676 
L 75.888 136.106594 
L 78.12 135.864568 
L 80.352 135.90458 
L 82.584 136.218457 
L 84.816 136.796132 
L 87.048 137.625836 
L 89.28 138.694297 
L 91.512 139.986944 
L 93.744 141.488124 
L 97.092 144.094532 
L 100.44 147.074363 
L 103.788 150.367321 
L 108.252 155.140133 
L 113.832 161.522982 
L 131.688 182.373352 
L 136.152 187.182395 
L 140.616 191.695526 
L 145.08 195.874108 
L 149.544 199.694243 
L 154.008 203.145108 
L 157.356 205.490778 
L 160.704 207.632392 
L 165.168 210.181254 
L 169.632 212.398049 
L 174.096 214.306882 
L 178.56 215.934672 
L 183.024 217.309749 
L 187.488 218.46068 
L 191.952 219.415345 
L 197.532 220.372861 
L 203.112 221.112475 
L 209.808 221.771179 
L 217.62 222.300787 
L 226.548 222.684502 
L 238.824 222.971103 
L 256.68 223.136141 
L 293.508 223.196775 
L 334.8 223.199935 
L 334.8 223.199935 
" style="fill:none;stroke:#fec58b;stroke-linecap:square;stroke-width:5.0;"/>
   </g>
   <g id="line2d_4">
    <path clip-path="url(#p708edf9f80)" d="M 0 223.2 
L 0.700606 223.113369 
L 1.634748 222.7288 
L 2.56889 222.038462 
L 3.503032 221.045573 
L 4.437174 219.75476 
L 5.604851 217.731563 
L 6.772528 215.26701 
L 8.173741 211.752257 
L 9.808489 206.93 
L 11.443237 201.395259 
L 13.311521 194.296598 
L 15.646875 184.452145 
L 18.449301 171.577204 
L 23.353545 147.713077 
L 27.557183 127.661854 
L 30.359609 115.340937 
L 32.694963 106.061617 
L 34.796782 98.652536 
L 36.665066 92.914113 
L 38.299814 88.599975 
L 39.701027 85.453023 
L 41.102239 82.829567 
L 42.269917 81.049602 
L 43.437594 79.641414 
L 44.605271 78.604727 
L 45.539413 78.041159 
L 46.473555 77.711311 
L 46.70709 77.665002 
L 46.70709 77.665002 
" style="fill:none;stroke:#bf8454;stroke-linecap:square;stroke-width:3.0;"/>
   </g>
   <g id="line2d_5">
    <path clip-path="url(#p708edf9f80)" d="M 0 223.2 
L 1.831671 223.07214 
L 3.663342 222.689385 
L 5.495013 222.054207 
L 7.326683 221.170702 
L 9.158354 220.04456 
L 10.990025 218.683015 
L 13.18803 216.750814 
L 15.386035 214.510029 
L 17.950374 211.533245 
L 20.514713 208.201255 
L 23.445387 204.01093 
L 26.742394 198.889171 
L 30.77207 192.186613 
L 36.999751 181.301493 
L 44.326434 168.552349 
L 48.35611 161.950599 
L 52.019452 156.383097 
L 54.950125 152.302817 
L 57.880799 148.606763 
L 60.445138 145.719588 
L 63.009477 143.179278 
L 65.207482 141.291086 
L 67.405487 139.678453 
L 69.603492 138.346855 
L 71.801497 137.299266 
L 73.266834 136.759021 
L 73.266834 136.759021 
" style="fill:none;stroke:#e5b27e;stroke-linecap:square;stroke-width:5.0;"/>
   </g>
  </g>
 </g>
 <defs>
  <clipPath id="p708edf9f80">
   <rect height="223.2" width="334.8" x="0.0" y="0.0"/>
  </clipPath>
 </defs>
</svg>
