<?xml version="1.0" encoding="utf-8" standalone="no"?>
<!DOCTYPE svg PUBLIC "-//W3C//DTD SVG 1.1//EN"
  "http://www.w3.org/Graphics/SVG/1.1/DTD/svg11.dtd">
<!-- Created with matplotlib (http://matplotlib.org/) -->
<svg height="223pt" version="1.1" viewBox="0 0 334 223" width="334pt" xmlns="http://www.w3.org/2000/svg" xmlns:xlink="http://www.w3.org/1999/xlink">
 <defs>
  <style type="text/css">
*{stroke-linecap:butt;stroke-linejoin:round;}
  </style>
 </defs>
 <g id="figure_1">
  <g id="patch_1">
   <path d="
M0 223.2
L334.8 223.2
L334.8 0
L0 0
L0 223.2" style="fill:none;"/>
  </g>
  <g id="axes_1">
   <g id="PolyCollection_1">
    <defs>
     <path d="
M0 0
L0 0
L0.233535 -0.032492
L0.467071 -0.129947
L0.700606 -0.2923
L0.934142 -0.519445
L1.16768 -0.811234
L1.40121 -1.16747
L1.63475 -1.58793
L1.86828 -2.07233
L2.10182 -2.62035
L2.33535 -3.23164
L2.56889 -3.90579
L2.80243 -4.64237
L3.03596 -5.44088
L3.2695 -6.30082
L3.50303 -7.22161
L3.73657 -8.20266
L3.9701 -9.24332
L4.20364 -10.3429
L4.43717 -11.5007
L4.67071 -12.716
L4.90424 -13.988
L5.13778 -15.3158
L5.37132 -16.6986
L5.60485 -18.1355
L5.83839 -19.6256
L6.07192 -21.1679
L6.30546 -22.7613
L6.53899 -24.405
L6.77253 -26.0978
L7.00606 -27.8386
L7.2396 -29.6264
L7.47313 -31.4599
L7.70667 -33.338
L7.94021 -35.2596
L8.17374 -37.2233
L8.40728 -39.228
L8.64081 -41.2724
L8.87435 -43.3551
L9.10788 -45.4749
L9.34142 -47.6304
L9.57495 -49.8203
L9.80849 -52.0433
L10.042 -54.2978
L10.2756 -56.5825
L10.5091 -58.8961
L10.7426 -61.237
L10.9762 -63.6038
L11.2097 -65.995
L11.4432 -68.4093
L11.6768 -70.845
L11.9103 -73.3008
L12.1438 -75.7751
L12.3774 -78.2664
L12.6109 -80.7733
L12.8444 -83.2941
L13.078 -85.8275
L13.3115 -88.3718
L13.5451 -90.9256
L13.7786 -93.4873
L14.0121 -96.0555
L14.2457 -98.6287
L14.4792 -101.205
L14.7127 -103.784
L14.9463 -106.363
L15.1798 -108.94
L15.4133 -111.516
L15.6469 -114.087
L15.8804 -116.653
L16.1139 -119.212
L16.3475 -121.762
L16.581 -124.303
L16.8146 -126.832
L17.0481 -129.349
L17.2816 -131.852
L17.5152 -134.339
L17.7487 -136.81
L17.9822 -139.263
L18.2158 -141.696
L18.4493 -144.109
L18.6828 -146.5
L18.9164 -148.868
L19.1499 -151.211
L19.3834 -153.528
L19.617 -155.819
L19.8505 -158.082
L20.084 -160.316
L20.3176 -162.52
L20.5511 -164.692
L20.7847 -166.832
L21.0182 -168.939
L21.2517 -171.011
L21.4853 -173.048
L21.7188 -175.049
L21.9523 -177.012
L22.1859 -178.938
L22.4194 -180.824
L22.6529 -182.671
L22.8865 -184.477
L23.12 -186.242
L23.3535 -187.965
L23.5871 -189.645
L23.8206 -191.282
L24.0542 -192.874
L24.2877 -194.422
L24.5212 -195.925
L24.7548 -197.381
L24.9883 -198.792
L25.2218 -200.155
L25.4554 -201.472
L25.6889 -202.741
L25.9224 -203.961
L26.156 -205.133
L26.3895 -206.257
L26.623 -207.331
L26.8566 -208.356
L27.0901 -209.332
L27.3236 -210.258
L27.5572 -211.134
L27.7907 -211.96
L28.0243 -212.736
L28.2578 -213.462
L28.4913 -214.137
L28.7249 -214.763
L28.9584 -215.338
L29.1919 -215.863
L29.4255 -216.338
L29.659 -216.762
L29.8925 -217.137
L30.1261 -217.463
L30.3596 -217.738
L30.5931 -217.965
L30.8267 -218.142
L31.0602 -218.27
L31.2938 -218.35
L31.5273 -218.382
L31.7608 -218.366
L31.9944 -218.303
L32.2279 -218.192
L32.4614 -218.034
L32.695 -217.831
L32.9285 -217.581
L33.162 -217.286
L33.3956 -216.946
L33.6291 -216.562
L33.8626 -216.134
L34.0962 -215.663
L34.3297 -215.149
L34.5632 -214.593
L34.7968 -213.995
L35.0303 -213.356
L35.2639 -212.677
L35.4974 -211.959
L35.7309 -211.201
L35.9645 -210.406
L36.198 -209.572
L36.4315 -208.702
L36.6651 -207.795
L36.8986 -206.853
L37.1321 -205.876
L37.3657 -204.865
L37.5992 -203.821
L37.8327 -202.745
L38.0663 -201.636
L38.2998 -200.497
L38.5333 -199.327
L38.7669 -198.128
L39.0004 -196.901
L39.234 -195.645
L39.4675 -194.362
L39.701 -193.054
L39.9346 -191.719
L40.1681 -190.36
L40.4016 -188.978
L40.6352 -187.572
L40.8687 -186.144
L41.1022 -184.695
L41.3358 -183.225
L41.5693 -181.735
L41.8028 -180.226
L42.0364 -178.699
L42.2699 -177.155
L42.5035 -175.594
L42.737 -174.017
L42.9705 -172.425
L43.2041 -170.819
L43.4376 -169.199
L43.6711 -167.567
L43.9047 -165.923
L44.1382 -164.268
L44.3717 -162.602
L44.6053 -160.927
L44.8388 -159.243
L45.0723 -157.55
L45.3059 -155.851
L45.5394 -154.144
L45.7729 -152.432
L46.0065 -150.714
L46.24 -148.991
L46.4736 -147.265
L46.7071 -145.535
L46.7071 0
L46.7071 0
L46.4736 0
L46.24 0
L46.0065 0
L45.7729 0
L45.5394 0
L45.3059 0
L45.0723 0
L44.8388 0
L44.6053 0
L44.3717 0
L44.1382 0
L43.9047 0
L43.6711 0
L43.4376 0
L43.2041 0
L42.9705 0
L42.737 0
L42.5035 0
L42.2699 0
L42.0364 0
L41.8028 0
L41.5693 0
L41.3358 0
L41.1022 0
L40.8687 0
L40.6352 0
L40.4016 0
L40.1681 0
L39.9346 0
L39.701 0
L39.4675 0
L39.234 0
L39.0004 0
L38.7669 0
L38.5333 0
L38.2998 0
L38.0663 0
L37.8327 0
L37.5992 0
L37.3657 0
L37.1321 0
L36.8986 0
L36.6651 0
L36.4315 0
L36.198 0
L35.9645 0
L35.7309 0
L35.4974 0
L35.2639 0
L35.0303 0
L34.7968 0
L34.5632 0
L34.3297 0
L34.0962 0
L33.8626 0
L33.6291 0
L33.3956 0
L33.162 0
L32.9285 0
L32.695 0
L32.4614 0
L32.2279 0
L31.9944 0
L31.7608 0
L31.5273 0
L31.2938 0
L31.0602 0
L30.8267 0
L30.5931 0
L30.3596 0
L30.1261 0
L29.8925 0
L29.659 0
L29.4255 0
L29.1919 0
L28.9584 0
L28.7249 0
L28.4913 0
L28.2578 0
L28.0243 0
L27.7907 0
L27.5572 0
L27.3236 0
L27.0901 0
L26.8566 0
L26.623 0
L26.3895 0
L26.156 0
L25.9224 0
L25.6889 0
L25.4554 0
L25.2218 0
L24.9883 0
L24.7548 0
L24.5212 0
L24.2877 0
L24.0542 0
L23.8206 0
L23.5871 0
L23.3535 0
L23.12 0
L22.8865 0
L22.6529 0
L22.4194 0
L22.1859 0
L21.9523 0
L21.7188 0
L21.4853 0
L21.2517 0
L21.0182 0
L20.7847 0
L20.5511 0
L20.3176 0
L20.084 0
L19.8505 0
L19.617 0
L19.3834 0
L19.1499 0
L18.9164 0
L18.6828 0
L18.4493 0
L18.2158 0
L17.9822 0
L17.7487 0
L17.5152 0
L17.2816 0
L17.0481 0
L16.8146 0
L16.581 0
L16.3475 0
L16.1139 0
L15.8804 0
L15.6469 0
L15.4133 0
L15.1798 0
L14.9463 0
L14.7127 0
L14.4792 0
L14.2457 0
L14.0121 0
L13.7786 0
L13.5451 0
L13.3115 0
L13.078 0
L12.8444 0
L12.6109 0
L12.3774 0
L12.1438 0
L11.9103 0
L11.6768 0
L11.4432 0
L11.2097 0
L10.9762 0
L10.7426 0
L10.5091 0
L10.2756 0
L10.042 0
L9.80849 0
L9.57495 0
L9.34142 0
L9.10788 0
L8.87435 0
L8.64081 0
L8.40728 0
L8.17374 0
L7.94021 0
L7.70667 0
L7.47313 0
L7.2396 0
L7.00606 0
L6.77253 0
L6.53899 0
L6.30546 0
L6.07192 0
L5.83839 0
L5.60485 0
L5.37132 0
L5.13778 0
L4.90424 0
L4.67071 0
L4.43717 0
L4.20364 0
L3.9701 0
L3.73657 0
L3.50303 0
L3.2695 0
L3.03596 0
L2.80243 0
L2.56889 0
L2.33535 0
L2.10182 0
L1.86828 0
L1.63475 0
L1.40121 0
L1.16768 0
L0.934142 0
L0.700606 0
L0.467071 0
L0.233535 0
L0 0
z
" id="me9378dce60" style="stroke:#8e4b32;"/>
    </defs>
    <g clip-path="url(#pdba1711fe4)">
     <use style="fill:#8e4b32;stroke:#8e4b32;" x="0.0" xlink:href="#me9378dce60" y="223.2"/>
    </g>
   </g>
   <g id="PolyCollection_2">
    <defs>
     <path d="
M0 0
L0 0
L0.366334 -0.0236892
L0.732668 -0.0947396
L1.099 -0.2131
L1.46534 -0.378686
L1.83167 -0.591379
L2.19801 -0.851025
L2.56434 -1.15744
L2.93067 -1.5104
L3.29701 -1.90965
L3.66334 -2.35492
L4.02968 -2.84587
L4.39601 -3.38216
L4.76234 -3.96341
L5.12868 -4.58919
L5.49501 -5.25907
L5.86135 -5.97256
L6.22768 -6.72915
L6.59402 -7.52831
L6.96035 -8.36946
L7.32668 -9.25202
L7.69302 -10.1753
L8.05935 -11.1388
L8.42569 -12.1417
L8.79202 -13.1833
L9.15835 -14.2629
L9.52469 -15.3797
L9.89102 -16.533
L10.2574 -17.7219
L10.6237 -18.9456
L10.99 -20.2032
L11.3564 -21.4939
L11.7227 -22.8168
L12.089 -24.1708
L12.4554 -25.5552
L12.8217 -26.969
L13.188 -28.4111
L13.5544 -29.8805
L13.9207 -31.3763
L14.287 -32.8974
L14.6534 -34.4428
L15.0197 -36.0115
L15.386 -37.6023
L15.7524 -39.2141
L16.1187 -40.846
L16.485 -42.4967
L16.8514 -44.1652
L17.2177 -45.8503
L17.584 -47.5509
L17.9504 -49.266
L18.3167 -50.9942
L18.683 -52.7346
L19.0494 -54.4859
L19.4157 -56.247
L19.782 -58.0167
L20.1484 -59.794
L20.5147 -61.5775
L20.881 -63.3663
L21.2474 -65.1591
L21.6137 -66.9547
L21.9801 -68.7521
L22.3464 -70.55
L22.7127 -72.3474
L23.0791 -74.1432
L23.4454 -75.9361
L23.8117 -77.7251
L24.1781 -79.5091
L24.5444 -81.2869
L24.9107 -83.0576
L25.2771 -84.8199
L25.6434 -86.5729
L26.0097 -88.3155
L26.3761 -90.0467
L26.7424 -91.7653
L27.1087 -93.4705
L27.4751 -95.1612
L27.8414 -96.8365
L28.2077 -98.4953
L28.5741 -100.137
L28.9404 -101.76
L29.3067 -103.364
L29.6731 -104.948
L30.0394 -106.511
L30.4057 -108.052
L30.7721 -109.57
L31.1384 -111.065
L31.5047 -112.536
L31.8711 -113.982
L32.2374 -115.402
L32.6037 -116.796
L32.9701 -118.162
L33.3364 -119.501
L33.7027 -120.811
L34.0691 -122.092
L34.4354 -123.343
L34.8017 -124.564
L35.1681 -125.754
L35.5344 -126.913
L35.9007 -128.04
L36.2671 -129.134
L36.6334 -130.196
L36.9998 -131.224
L37.3661 -132.219
L37.7324 -133.18
L38.0988 -134.106
L38.4651 -134.998
L38.8314 -135.855
L39.1978 -136.676
L39.5641 -137.462
L39.9304 -138.213
L40.2968 -138.927
L40.6631 -139.605
L41.0294 -140.247
L41.3958 -140.853
L41.7621 -141.422
L42.1284 -141.954
L42.4948 -142.45
L42.8611 -142.91
L43.2274 -143.333
L43.5938 -143.719
L43.9601 -144.068
L44.3264 -144.381
L44.6928 -144.658
L45.0591 -144.898
L45.4254 -145.103
L45.7918 -145.271
L46.1581 -145.403
L46.5244 -145.5
L46.8908 -145.561
L47.2571 -145.587
L47.6234 -145.579
L47.9898 -145.535
L48.3561 -145.458
L48.7224 -145.346
L49.0888 -145.2
L49.4551 -145.021
L49.8214 -144.809
L50.1878 -144.565
L50.5541 -144.288
L50.9204 -143.979
L51.2868 -143.639
L51.6531 -143.268
L52.0195 -142.867
L52.3858 -142.435
L52.7521 -141.974
L53.1185 -141.484
L53.4848 -140.965
L53.8511 -140.418
L54.2175 -139.843
L54.5838 -139.242
L54.9501 -138.613
L55.3165 -137.959
L55.6828 -137.28
L56.0491 -136.576
L56.4155 -135.847
L56.7818 -135.095
L57.1481 -134.32
L57.5145 -133.522
L57.8808 -132.702
L58.2471 -131.861
L58.6135 -130.999
L58.9798 -130.118
L59.3461 -129.216
L59.7125 -128.296
L60.0788 -127.357
L60.4451 -126.401
L60.8115 -125.428
L61.1778 -124.438
L61.5441 -123.433
L61.9105 -122.412
L62.2768 -121.376
L62.6431 -120.327
L63.0095 -119.264
L63.3758 -118.189
L63.7421 -117.101
L64.1085 -116.002
L64.4748 -114.892
L64.8411 -113.772
L65.2075 -112.641
L65.5738 -111.502
L65.9402 -110.354
L66.3065 -109.198
L66.6728 -108.035
L67.0392 -106.865
L67.4055 -105.688
L67.7718 -104.506
L68.1382 -103.319
L68.5045 -102.126
L68.8708 -100.93
L69.2372 -99.7306
L69.6035 -98.5278
L69.9698 -97.3225
L70.3362 -96.1151
L70.7025 -94.9062
L71.0688 -93.6962
L71.4352 -92.4857
L71.8015 -91.2751
L72.1678 -90.0649
L72.5342 -88.8555
L72.9005 -87.6474
L73.2668 -86.441
L73.2668 0
L73.2668 0
L72.9005 0
L72.5342 0
L72.1678 0
L71.8015 0
L71.4352 0
L71.0688 0
L70.7025 0
L70.3362 0
L69.9698 0
L69.6035 0
L69.2372 0
L68.8708 0
L68.5045 0
L68.1382 0
L67.7718 0
L67.4055 0
L67.0392 0
L66.6728 0
L66.3065 0
L65.9402 0
L65.5738 0
L65.2075 0
L64.8411 0
L64.4748 0
L64.1085 0
L63.7421 0
L63.3758 0
L63.0095 0
L62.6431 0
L62.2768 0
L61.9105 0
L61.5441 0
L61.1778 0
L60.8115 0
L60.4451 0
L60.0788 0
L59.7125 0
L59.3461 0
L58.9798 0
L58.6135 0
L58.2471 0
L57.8808 0
L57.5145 0
L57.1481 0
L56.7818 0
L56.4155 0
L56.0491 0
L55.6828 0
L55.3165 0
L54.9501 0
L54.5838 0
L54.2175 0
L53.8511 0
L53.4848 0
L53.1185 0
L52.7521 0
L52.3858 0
L52.0195 0
L51.6531 0
L51.2868 0
L50.9204 0
L50.5541 0
L50.1878 0
L49.8214 0
L49.4551 0
L49.0888 0
L48.7224 0
L48.3561 0
L47.9898 0
L47.6234 0
L47.2571 0
L46.8908 0
L46.5244 0
L46.1581 0
L45.7918 0
L45.4254 0
L45.0591 0
L44.6928 0
L44.3264 0
L43.9601 0
L43.5938 0
L43.2274 0
L42.8611 0
L42.4948 0
L42.1284 0
L41.7621 0
L41.3958 0
L41.0294 0
L40.6631 0
L40.2968 0
L39.9304 0
L39.5641 0
L39.1978 0
L38.8314 0
L38.4651 0
L38.0988 0
L37.7324 0
L37.3661 0
L36.9998 0
L36.6334 0
L36.2671 0
L35.9007 0
L35.5344 0
L35.1681 0
L34.8017 0
L34.4354 0
L34.0691 0
L33.7027 0
L33.3364 0
L32.9701 0
L32.6037 0
L32.2374 0
L31.8711 0
L31.5047 0
L31.1384 0
L30.7721 0
L30.4057 0
L30.0394 0
L29.6731 0
L29.3067 0
L28.9404 0
L28.5741 0
L28.2077 0
L27.8414 0
L27.4751 0
L27.1087 0
L26.7424 0
L26.3761 0
L26.0097 0
L25.6434 0
L25.2771 0
L24.9107 0
L24.5444 0
L24.1781 0
L23.8117 0
L23.4454 0
L23.0791 0
L22.7127 0
L22.3464 0
L21.9801 0
L21.6137 0
L21.2474 0
L20.881 0
L20.5147 0
L20.1484 0
L19.782 0
L19.4157 0
L19.0494 0
L18.683 0
L18.3167 0
L17.9504 0
L17.584 0
L17.2177 0
L16.8514 0
L16.485 0
L16.1187 0
L15.7524 0
L15.386 0
L15.0197 0
L14.6534 0
L14.287 0
L13.9207 0
L13.5544 0
L13.188 0
L12.8217 0
L12.4554 0
L12.089 0
L11.7227 0
L11.3564 0
L10.99 0
L10.6237 0
L10.2574 0
L9.89102 0
L9.52469 0
L9.15835 0
L8.79202 0
L8.42569 0
L8.05935 0
L7.69302 0
L7.32668 0
L6.96035 0
L6.59402 0
L6.22768 0
L5.86135 0
L5.49501 0
L5.12868 0
L4.76234 0
L4.39601 0
L4.02968 0
L3.66334 0
L3.29701 0
L2.93067 0
L2.56434 0
L2.19801 0
L1.83167 0
L1.46534 0
L1.099 0
L0.732668 0
L0.366334 0
L0 0
z
" id="me6dd65002f" style="stroke:#d4925e;"/>
    </defs>
    <g clip-path="url(#pdba1711fe4)">
     <use style="fill:#d4925e;stroke:#d4925e;" x="0.0" xlink:href="#me6dd65002f" y="223.2"/>
    </g>
   </g>
   <g id="PolyCollection_3">
    <path clip-path="url(#pdba1711fe4)" d="
M0 223.2
L0 223.2
L1.116 223.153
L2.232 223.01
L3.348 222.773
L4.464 222.443
L5.58 222.019
L6.696 221.503
L7.812 220.896
L8.928 220.199
L10.044 219.415
L11.16 218.545
L12.276 217.591
L13.392 216.556
L14.508 215.441
L15.624 214.25
L16.74 212.985
L17.856 211.649
L18.972 210.246
L20.088 208.779
L21.204 207.25
L22.32 205.664
L23.436 204.025
L24.552 202.335
L25.668 200.6
L26.784 198.822
L27.9 197.006
L29.016 195.156
L30.132 193.277
L31.248 191.371
L32.364 189.444
L33.48 187.5
L34.596 185.542
L35.712 183.576
L36.828 181.605
L37.944 179.634
L39.06 177.666
L40.176 175.706
L41.292 173.758
L42.408 171.826
L43.524 169.913
L44.64 168.024
L45.756 166.162
L46.872 164.332
L47.988 162.535
L49.104 160.776
L50.22 159.059
L51.336 157.385
L52.452 155.758
L53.568 154.182
L54.684 152.658
L55.8 151.19
L56.916 149.778
L58.032 148.427
L59.148 147.138
L60.264 145.912
L61.38 144.752
L62.496 143.659
L63.612 142.635
L64.728 141.68
L65.844 140.795
L66.96 139.983
L68.076 139.242
L69.192 138.575
L70.308 137.98
L71.424 137.459
L72.54 137.011
L73.656 136.637
L74.772 136.335
L75.888 136.107
L77.004 135.95
L78.12 135.865
L79.236 135.85
L80.352 135.905
L81.468 136.028
L82.584 136.218
L83.7 136.475
L84.816 136.796
L85.932 137.18
L87.048 137.626
L88.164 138.131
L89.28 138.694
L90.396 139.314
L91.512 139.987
L92.628 140.712
L93.744 141.488
L94.86 142.312
L95.976 143.181
L97.092 144.095
L98.208 145.049
L99.324 146.043
L100.44 147.074
L101.556 148.14
L102.672 149.239
L103.788 150.367
L104.904 151.524
L106.02 152.707
L107.136 153.913
L108.252 155.14
L109.368 156.387
L110.484 157.651
L111.6 158.929
L112.716 160.221
L113.832 161.523
L114.948 162.834
L116.064 164.152
L117.18 165.475
L118.296 166.801
L119.412 168.129
L120.528 169.456
L121.644 170.781
L122.76 172.103
L123.876 173.419
L124.992 174.729
L126.108 176.031
L127.224 177.323
L128.34 178.605
L129.456 179.874
L130.572 181.131
L131.688 182.373
L132.804 183.601
L133.92 184.812
L135.036 186.006
L136.152 187.182
L137.268 188.34
L138.384 189.479
L139.5 190.597
L140.616 191.696
L141.732 192.773
L142.848 193.828
L143.964 194.862
L145.08 195.874
L146.196 196.863
L147.312 197.83
L148.428 198.774
L149.544 199.694
L150.66 200.592
L151.776 201.466
L152.892 202.317
L154.008 203.145
L155.124 203.95
L156.24 204.732
L157.356 205.491
L158.472 206.227
L159.588 206.941
L160.704 207.632
L161.82 208.302
L162.936 208.95
L164.052 209.576
L165.168 210.181
L166.284 210.766
L167.4 211.33
L168.516 211.874
L169.632 212.398
L170.748 212.903
L171.864 213.389
L172.98 213.857
L174.096 214.307
L175.212 214.739
L176.328 215.154
L177.444 215.553
L178.56 215.935
L179.676 216.301
L180.792 216.652
L181.908 216.988
L183.024 217.31
L184.14 217.617
L185.256 217.911
L186.372 218.192
L187.488 218.461
L188.604 218.717
L189.72 218.961
L190.836 219.194
L191.952 219.415
L193.068 219.626
L194.184 219.827
L195.3 220.019
L196.416 220.2
L197.532 220.373
L198.648 220.537
L199.764 220.692
L200.88 220.84
L201.996 220.98
L203.112 221.112
L204.228 221.238
L205.344 221.357
L206.46 221.469
L207.576 221.576
L208.692 221.676
L209.808 221.771
L210.924 221.861
L212.04 221.945
L213.156 222.025
L214.272 222.1
L215.388 222.171
L216.504 222.238
L217.62 222.301
L218.736 222.36
L219.852 222.415
L220.968 222.468
L222.084 222.517
L223.2 222.563
L224.316 222.606
L225.432 222.647
L226.548 222.685
L227.664 222.72
L228.78 222.753
L229.896 222.785
L231.012 222.814
L232.128 222.841
L233.244 222.867
L234.36 222.891
L235.476 222.913
L236.592 222.934
L237.708 222.953
L238.824 222.971
L239.94 222.988
L241.056 223.004
L242.172 223.018
L243.288 223.032
L244.404 223.045
L245.52 223.056
L246.636 223.067
L247.752 223.077
L248.868 223.087
L249.984 223.096
L251.1 223.104
L252.216 223.111
L253.332 223.118
L254.448 223.125
L255.564 223.131
L256.68 223.136
L257.796 223.141
L258.912 223.146
L260.028 223.15
L261.144 223.154
L262.26 223.158
L263.376 223.162
L264.492 223.165
L265.608 223.168
L266.724 223.17
L267.84 223.173
L268.956 223.175
L270.072 223.177
L271.188 223.179
L272.304 223.181
L273.42 223.183
L274.536 223.184
L275.652 223.185
L276.768 223.187
L277.884 223.188
L279 223.189
L280.116 223.19
L281.232 223.191
L282.348 223.192
L283.464 223.192
L284.58 223.193
L285.696 223.194
L286.812 223.194
L287.928 223.195
L289.044 223.195
L290.16 223.196
L291.276 223.196
L292.392 223.196
L293.508 223.197
L294.624 223.197
L295.74 223.197
L296.856 223.198
L297.972 223.198
L299.088 223.198
L300.204 223.198
L301.32 223.198
L302.436 223.199
L303.552 223.199
L304.668 223.199
L305.784 223.199
L306.9 223.199
L308.016 223.199
L309.132 223.199
L310.248 223.199
L311.364 223.199
L312.48 223.199
L313.596 223.199
L314.712 223.2
L315.828 223.2
L316.944 223.2
L318.06 223.2
L319.176 223.2
L320.292 223.2
L321.408 223.2
L322.524 223.2
L323.64 223.2
L324.756 223.2
L325.872 223.2
L326.988 223.2
L328.104 223.2
L329.22 223.2
L330.336 223.2
L331.452 223.2
L332.568 223.2
L333.684 223.2
L334.8 223.2
L334.8 223.2
L334.8 223.2
L333.684 223.2
L332.568 223.2
L331.452 223.2
L330.336 223.2
L329.22 223.2
L328.104 223.2
L326.988 223.2
L325.872 223.2
L324.756 223.2
L323.64 223.2
L322.524 223.2
L321.408 223.2
L320.292 223.2
L319.176 223.2
L318.06 223.2
L316.944 223.2
L315.828 223.2
L314.712 223.2
L313.596 223.2
L312.48 223.2
L311.364 223.2
L310.248 223.2
L309.132 223.2
L308.016 223.2
L306.9 223.2
L305.784 223.2
L304.668 223.2
L303.552 223.2
L302.436 223.2
L301.32 223.2
L300.204 223.2
L299.088 223.2
L297.972 223.2
L296.856 223.2
L295.74 223.2
L294.624 223.2
L293.508 223.2
L292.392 223.2
L291.276 223.2
L290.16 223.2
L289.044 223.2
L287.928 223.2
L286.812 223.2
L285.696 223.2
L284.58 223.2
L283.464 223.2
L282.348 223.2
L281.232 223.2
L280.116 223.2
L279 223.2
L277.884 223.2
L276.768 223.2
L275.652 223.2
L274.536 223.2
L273.42 223.2
L272.304 223.2
L271.188 223.2
L270.072 223.2
L268.956 223.2
L267.84 223.2
L266.724 223.2
L265.608 223.2
L264.492 223.2
L263.376 223.2
L262.26 223.2
L261.144 223.2
L260.028 223.2
L258.912 223.2
L257.796 223.2
L256.68 223.2
L255.564 223.2
L254.448 223.2
L253.332 223.2
L252.216 223.2
L251.1 223.2
L249.984 223.2
L248.868 223.2
L247.752 223.2
L246.636 223.2
L245.52 223.2
L244.404 223.2
L243.288 223.2
L242.172 223.2
L241.056 223.2
L239.94 223.2
L238.824 223.2
L237.708 223.2
L236.592 223.2
L235.476 223.2
L234.36 223.2
L233.244 223.2
L232.128 223.2
L231.012 223.2
L229.896 223.2
L228.78 223.2
L227.664 223.2
L226.548 223.2
L225.432 223.2
L224.316 223.2
L223.2 223.2
L222.084 223.2
L220.968 223.2
L219.852 223.2
L218.736 223.2
L217.62 223.2
L216.504 223.2
L215.388 223.2
L214.272 223.2
L213.156 223.2
L212.04 223.2
L210.924 223.2
L209.808 223.2
L208.692 223.2
L207.576 223.2
L206.46 223.2
L205.344 223.2
L204.228 223.2
L203.112 223.2
L201.996 223.2
L200.88 223.2
L199.764 223.2
L198.648 223.2
L197.532 223.2
L196.416 223.2
L195.3 223.2
L194.184 223.2
L193.068 223.2
L191.952 223.2
L190.836 223.2
L189.72 223.2
L188.604 223.2
L187.488 223.2
L186.372 223.2
L185.256 223.2
L184.14 223.2
L183.024 223.2
L181.908 223.2
L180.792 223.2
L179.676 223.2
L178.56 223.2
L177.444 223.2
L176.328 223.2
L175.212 223.2
L174.096 223.2
L172.98 223.2
L171.864 223.2
L170.748 223.2
L169.632 223.2
L168.516 223.2
L167.4 223.2
L166.284 223.2
L165.168 223.2
L164.052 223.2
L162.936 223.2
L161.82 223.2
L160.704 223.2
L159.588 223.2
L158.472 223.2
L157.356 223.2
L156.24 223.2
L155.124 223.2
L154.008 223.2
L152.892 223.2
L151.776 223.2
L150.66 223.2
L149.544 223.2
L148.428 223.2
L147.312 223.2
L146.196 223.2
L145.08 223.2
L143.964 223.2
L142.848 223.2
L141.732 223.2
L140.616 223.2
L139.5 223.2
L138.384 223.2
L137.268 223.2
L136.152 223.2
L135.036 223.2
L133.92 223.2
L132.804 223.2
L131.688 223.2
L130.572 223.2
L129.456 223.2
L128.34 223.2
L127.224 223.2
L126.108 223.2
L124.992 223.2
L123.876 223.2
L122.76 223.2
L121.644 223.2
L120.528 223.2
L119.412 223.2
L118.296 223.2
L117.18 223.2
L116.064 223.2
L114.948 223.2
L113.832 223.2
L112.716 223.2
L111.6 223.2
L110.484 223.2
L109.368 223.2
L108.252 223.2
L107.136 223.2
L106.02 223.2
L104.904 223.2
L103.788 223.2
L102.672 223.2
L101.556 223.2
L100.44 223.2
L99.324 223.2
L98.208 223.2
L97.092 223.2
L95.976 223.2
L94.86 223.2
L93.744 223.2
L92.628 223.2
L91.512 223.2
L90.396 223.2
L89.28 223.2
L88.164 223.2
L87.048 223.2
L85.932 223.2
L84.816 223.2
L83.7 223.2
L82.584 223.2
L81.468 223.2
L80.352 223.2
L79.236 223.2
L78.12 223.2
L77.004 223.2
L75.888 223.2
L74.772 223.2
L73.656 223.2
L72.54 223.2
L71.424 223.2
L70.308 223.2
L69.192 223.2
L68.076 223.2
L66.96 223.2
L65.844 223.2
L64.728 223.2
L63.612 223.2
L62.496 223.2
L61.38 223.2
L60.264 223.2
L59.148 223.2
L58.032 223.2
L56.916 223.2
L55.8 223.2
L54.684 223.2
L53.568 223.2
L52.452 223.2
L51.336 223.2
L50.22 223.2
L49.104 223.2
L47.988 223.2
L46.872 223.2
L45.756 223.2
L44.64 223.2
L43.524 223.2
L42.408 223.2
L41.292 223.2
L40.176 223.2
L39.06 223.2
L37.944 223.2
L36.828 223.2
L35.712 223.2
L34.596 223.2
L33.48 223.2
L32.364 223.2
L31.248 223.2
L30.132 223.2
L29.016 223.2
L27.9 223.2
L26.784 223.2
L25.668 223.2
L24.552 223.2
L23.436 223.2
L22.32 223.2
L21.204 223.2
L20.088 223.2
L18.972 223.2
L17.856 223.2
L16.74 223.2
L15.624 223.2
L14.508 223.2
L13.392 223.2
L12.276 223.2
L11.16 223.2
L10.044 223.2
L8.928 223.2
L7.812 223.2
L6.696 223.2
L5.58 223.2
L4.464 223.2
L3.348 223.2
L2.232 223.2
L1.116 223.2
L0 223.2
z
" style="fill:#fec58b;stroke:#fec58b;"/>
   </g>
   <g id="PolyCollection_4">
    <defs>
     <path d="
M0 0
L0 0
L0.233535 -0.00962755
L0.467071 -0.0385074
L0.700606 -0.0866311
L0.934142 -0.153985
L1.16768 -0.240548
L1.40121 -0.346297
L1.63475 -0.4712
L1.86828 -0.61522
L2.10182 -0.778316
L2.33535 -0.960439
L2.56889 -1.16154
L2.80243 -1.38155
L3.03596 -1.62042
L3.2695 -1.87807
L3.50303 -2.15443
L3.73657 -2.44941
L3.9701 -2.76294
L4.20364 -3.09491
L4.43717 -3.44524
L4.67071 -3.81382
L4.90424 -4.20055
L5.13778 -4.6053
L5.37132 -5.02797
L5.60485 -5.46844
L5.83839 -5.92657
L6.07192 -6.40222
L6.30546 -6.89528
L6.53899 -7.40558
L6.77253 -7.93299
L7.00606 -8.47735
L7.2396 -9.0385
L7.47313 -9.61629
L7.70667 -10.2105
L7.94021 -10.8211
L8.17374 -11.4477
L8.40728 -12.0903
L8.64081 -12.7487
L8.87435 -13.4226
L9.10788 -14.1119
L9.34142 -14.8164
L9.57495 -15.5358
L9.80849 -16.27
L10.042 -17.0188
L10.2756 -17.7819
L10.5091 -18.5591
L10.7426 -19.3502
L10.9762 -20.155
L11.2097 -20.9733
L11.4432 -21.8047
L11.6768 -22.6492
L11.9103 -23.5064
L12.1438 -24.3761
L12.3774 -25.258
L12.6109 -26.152
L12.8444 -27.0577
L13.078 -27.9749
L13.3115 -28.9034
L13.5451 -29.8428
L13.7786 -30.793
L14.0121 -31.7536
L14.2457 -32.7244
L14.4792 -33.7051
L14.7127 -34.6955
L14.9463 -35.6952
L15.1798 -36.7041
L15.4133 -37.7217
L15.6469 -38.7479
L15.8804 -39.7823
L16.1139 -40.8246
L16.3475 -41.8747
L16.581 -42.9321
L16.8146 -43.9967
L17.0481 -45.0681
L17.2816 -46.1459
L17.5152 -47.23
L17.7487 -48.3201
L17.9822 -49.4157
L18.2158 -50.5167
L18.4493 -51.6228
L18.6828 -52.7336
L18.9164 -53.8488
L19.1499 -54.9683
L19.3834 -56.0915
L19.617 -57.2183
L19.8505 -58.3484
L20.084 -59.4814
L20.3176 -60.6171
L20.5511 -61.7551
L20.7847 -62.8952
L21.0182 -64.037
L21.2517 -65.1803
L21.4853 -66.3248
L21.7188 -67.4701
L21.9523 -68.616
L22.1859 -69.7622
L22.4194 -70.9084
L22.6529 -72.0542
L22.8865 -73.1994
L23.12 -74.3438
L23.3535 -75.4869
L23.5871 -76.6286
L23.8206 -77.7685
L24.0542 -78.9063
L24.2877 -80.0418
L24.5212 -81.1747
L24.7548 -82.3047
L24.9883 -83.4315
L25.2218 -84.5548
L25.4554 -85.6744
L25.6889 -86.79
L25.9224 -87.9013
L26.156 -89.008
L26.3895 -90.11
L26.623 -91.2068
L26.8566 -92.2983
L27.0901 -93.3842
L27.3236 -94.4642
L27.5572 -95.5381
L27.7907 -96.6057
L28.0243 -97.6666
L28.2578 -98.7207
L28.4913 -99.7676
L28.7249 -100.807
L28.9584 -101.839
L29.1919 -102.863
L29.4255 -103.88
L29.659 -104.887
L29.8925 -105.887
L30.1261 -106.877
L30.3596 -107.859
L30.5931 -108.832
L30.8267 -109.795
L31.0602 -110.748
L31.2938 -111.692
L31.5273 -112.626
L31.7608 -113.55
L31.9944 -114.463
L32.2279 -115.365
L32.4614 -116.257
L32.695 -117.138
L32.9285 -118.008
L33.162 -118.867
L33.3956 -119.714
L33.6291 -120.55
L33.8626 -121.373
L34.0962 -122.185
L34.3297 -122.985
L34.5632 -123.772
L34.7968 -124.547
L35.0303 -125.31
L35.2639 -126.06
L35.4974 -126.797
L35.7309 -127.521
L35.9645 -128.232
L36.198 -128.93
L36.4315 -129.615
L36.6651 -130.286
L36.8986 -130.944
L37.1321 -131.588
L37.3657 -132.218
L37.5992 -132.834
L37.8327 -133.437
L38.0663 -134.026
L38.2998 -134.6
L38.5333 -135.16
L38.7669 -135.706
L39.0004 -136.238
L39.234 -136.756
L39.4675 -137.259
L39.701 -137.747
L39.9346 -138.221
L40.1681 -138.68
L40.4016 -139.125
L40.6352 -139.555
L40.8687 -139.97
L41.1022 -140.37
L41.3358 -140.756
L41.5693 -141.127
L41.8028 -141.483
L42.0364 -141.824
L42.2699 -142.15
L42.5035 -142.462
L42.737 -142.758
L42.9705 -143.04
L43.2041 -143.307
L43.4376 -143.559
L43.6711 -143.796
L43.9047 -144.018
L44.1382 -144.225
L44.3717 -144.418
L44.6053 -144.595
L44.8388 -144.758
L45.0723 -144.906
L45.3059 -145.04
L45.5394 -145.159
L45.7729 -145.263
L46.0065 -145.353
L46.24 -145.428
L46.4736 -145.489
L46.7071 -145.535
L46.7071 0
L46.7071 0
L46.4736 0
L46.24 0
L46.0065 0
L45.7729 0
L45.5394 0
L45.3059 0
L45.0723 0
L44.8388 0
L44.6053 0
L44.3717 0
L44.1382 0
L43.9047 0
L43.6711 0
L43.4376 0
L43.2041 0
L42.9705 0
L42.737 0
L42.5035 0
L42.2699 0
L42.0364 0
L41.8028 0
L41.5693 0
L41.3358 0
L41.1022 0
L40.8687 0
L40.6352 0
L40.4016 0
L40.1681 0
L39.9346 0
L39.701 0
L39.4675 0
L39.234 0
L39.0004 0
L38.7669 0
L38.5333 0
L38.2998 0
L38.0663 0
L37.8327 0
L37.5992 0
L37.3657 0
L37.1321 0
L36.8986 0
L36.6651 0
L36.4315 0
L36.198 0
L35.9645 0
L35.7309 0
L35.4974 0
L35.2639 0
L35.0303 0
L34.7968 0
L34.5632 0
L34.3297 0
L34.0962 0
L33.8626 0
L33.6291 0
L33.3956 0
L33.162 0
L32.9285 0
L32.695 0
L32.4614 0
L32.2279 0
L31.9944 0
L31.7608 0
L31.5273 0
L31.2938 0
L31.0602 0
L30.8267 0
L30.5931 0
L30.3596 0
L30.1261 0
L29.8925 0
L29.659 0
L29.4255 0
L29.1919 0
L28.9584 0
L28.7249 0
L28.4913 0
L28.2578 0
L28.0243 0
L27.7907 0
L27.5572 0
L27.3236 0
L27.0901 0
L26.8566 0
L26.623 0
L26.3895 0
L26.156 0
L25.9224 0
L25.6889 0
L25.4554 0
L25.2218 0
L24.9883 0
L24.7548 0
L24.5212 0
L24.2877 0
L24.0542 0
L23.8206 0
L23.5871 0
L23.3535 0
L23.12 0
L22.8865 0
L22.6529 0
L22.4194 0
L22.1859 0
L21.9523 0
L21.7188 0
L21.4853 0
L21.2517 0
L21.0182 0
L20.7847 0
L20.5511 0
L20.3176 0
L20.084 0
L19.8505 0
L19.617 0
L19.3834 0
L19.1499 0
L18.9164 0
L18.6828 0
L18.4493 0
L18.2158 0
L17.9822 0
L17.7487 0
L17.5152 0
L17.2816 0
L17.0481 0
L16.8146 0
L16.581 0
L16.3475 0
L16.1139 0
L15.8804 0
L15.6469 0
L15.4133 0
L15.1798 0
L14.9463 0
L14.7127 0
L14.4792 0
L14.2457 0
L14.0121 0
L13.7786 0
L13.5451 0
L13.3115 0
L13.078 0
L12.8444 0
L12.6109 0
L12.3774 0
L12.1438 0
L11.9103 0
L11.6768 0
L11.4432 0
L11.2097 0
L10.9762 0
L10.7426 0
L10.5091 0
L10.2756 0
L10.042 0
L9.80849 0
L9.57495 0
L9.34142 0
L9.10788 0
L8.87435 0
L8.64081 0
L8.40728 0
L8.17374 0
L7.94021 0
L7.70667 0
L7.47313 0
L7.2396 0
L7.00606 0
L6.77253 0
L6.53899 0
L6.30546 0
L6.07192 0
L5.83839 0
L5.60485 0
L5.37132 0
L5.13778 0
L4.90424 0
L4.67071 0
L4.43717 0
L4.20364 0
L3.9701 0
L3.73657 0
L3.50303 0
L3.2695 0
L3.03596 0
L2.80243 0
L2.56889 0
L2.33535 0
L2.10182 0
L1.86828 0
L1.63475 0
L1.40121 0
L1.16768 0
L0.934142 0
L0.700606 0
L0.467071 0
L0.233535 0
L0 0
z
" id="m6555c06511" style="stroke:#bf8454;"/>
    </defs>
    <g clip-path="url(#pdba1711fe4)">
     <use style="fill:#bf8454;stroke:#bf8454;" x="0.0" xlink:href="#m6555c06511" y="223.2"/>
    </g>
   </g>
   <g id="PolyCollection_5">
    <defs>
     <path d="
M46.7071 0
L46.7071 -145.535
L47.478 -139.81
L48.2488 -134.08
L49.0197 -128.366
L49.7905 -122.688
L50.5614 -117.065
L51.3323 -111.515
L52.1031 -106.054
L52.874 -100.695
L53.6449 -95.4532
L54.4157 -90.3388
L55.1866 -85.3623
L55.9575 -80.5323
L56.7283 -75.8562
L57.4992 -71.3401
L58.2701 -66.9888
L59.0409 -62.8059
L59.8118 -58.794
L60.5827 -54.9545
L61.3535 -51.2878
L62.1244 -47.7937
L62.8952 -44.4708
L63.6661 -41.3172
L64.437 -38.3302
L65.2078 -35.5066
L65.9787 -32.8427
L66.7496 -30.3341
L67.5204 -27.9762
L68.2913 -25.7642
L69.0622 -23.6927
L69.833 -21.7564
L70.6039 -19.9496
L71.3748 -18.2667
L72.1456 -16.702
L72.9165 -15.2496
L73.6873 -13.9038
L74.4582 -12.6589
L75.2291 -11.5092
L75.9999 -10.4493
L76.7708 -9.47375
L77.5417 -8.5773
L78.3125 -7.75488
L79.0834 -7.00161
L79.8543 -6.31277
L80.6251 -5.68385
L81.396 -5.11056
L82.1669 -4.58879
L82.9377 -4.11465
L83.7086 -3.68447
L84.4795 -3.29477
L85.2503 -2.94229
L86.0212 -2.62395
L86.792 -2.3369
L87.5629 -2.07843
L88.3338 -1.84607
L89.1046 -1.63747
L89.8755 -1.4505
L90.6464 -1.28316
L91.4172 -1.13361
L92.1881 -1.00015
L92.959 -0.881223
L93.7298 -0.775409
L94.5007 -0.681395
L95.2716 -0.597987
L96.0424 -0.524094
L96.8133 -0.458725
L97.5842 -0.40098
L98.355 -0.350043
L99.1259 -0.305174
L99.8967 -0.265708
L100.668 -0.231042
L101.438 -0.200636
L102.209 -0.174003
L102.98 -0.150709
L103.751 -0.130363
L104.522 -0.112617
L105.293 -0.0971601
L106.064 -0.0837157
L106.835 -0.0720382
L107.605 -0.0619091
L108.376 -0.0531355
L109.147 -0.0455462
L109.918 -0.0389905
L110.689 -0.0333353
L111.46 -0.0284636
L112.231 -0.0242725
L113.001 -0.020672
L113.772 -0.0175829
L114.543 -0.0149362
L115.314 -0.0126717
L116.085 -0.0107367
L116.856 -0.00908552
L117.627 -0.00767846
L118.397 -0.00648101
L119.168 -0.00546332
L119.939 -0.00459956
L120.71 -0.00386742
L121.481 -0.00324768
L122.252 -0.00272379
L123.023 -0.0022815
L123.794 -0.0019086
L124.564 -0.00159462
L125.335 -0.0013306
L126.106 -0.00110889
L126.877 -0.000922952
L127.648 -0.000767218
L128.419 -0.000636956
L129.19 -0.000528142
L129.96 -0.000437363
L130.731 -0.000361731
L131.502 -0.0002988
L132.273 -0.000246506
L133.044 -0.000203109
L133.815 -0.00016714
L134.586 -0.000137368
L135.357 -0.000112758
L136.127 -9.24398e-05
L136.898 -7.56878e-05
L137.669 -6.18939e-05
L138.44 -5.05503e-05
L139.211 -4.1234e-05
L139.982 -3.35925e-05
L140.753 -2.73328e-05
L141.523 -2.22118e-05
L142.294 -1.80276e-05
L143.065 -1.46133e-05
L143.836 -1.18309e-05
L144.607 -9.56623e-06
L145.378 -7.72543e-06
L146.149 -6.23107e-06
L146.919 -5.01949e-06
L147.69 -4.03846e-06
L148.461 -3.24511e-06
L149.232 -2.60436e-06
L150.003 -2.08753e-06
L150.774 -1.67118e-06
L151.545 -1.3362e-06
L152.316 -1.06704e-06
L153.086 -8.51039e-07
L153.857 -6.7792e-07
L154.628 -5.39345e-07
L155.399 -4.28564e-07
L156.17 -3.40115e-07
L156.941 -2.69585e-07
L157.712 -2.13417e-07
L158.482 -1.68741e-07
L159.253 -1.33252e-07
L160.024 -1.05097e-07
L160.795 -8.27882e-08
L161.566 -6.51341e-08
L162.337 -5.11812e-08
L163.108 -4.01675e-08
L163.879 -3.14848e-08
L164.649 -2.46485e-08
L165.42 -1.92727e-08
L166.191 -1.50508e-08
L166.962 -1.17392e-08
L167.733 -9.14493e-09
L168.504 -7.11519e-09
L169.275 -5.52912e-09
L170.045 -4.29131e-09
L170.816 -3.3265e-09
L171.587 -2.57543e-09
L172.358 -1.99148e-09
L173.129 -1.53804e-09
L173.9 -1.18638e-09
L174.671 -9.13997e-10
L175.441 -7.03284e-10
L176.212 -5.40483e-10
L176.983 -4.14857e-10
L177.754 -3.18039e-10
L178.525 -2.43516e-10
L179.296 -1.86226e-10
L180.067 -1.4224e-10
L180.838 -1.08509e-10
L181.608 -8.26756e-11
L182.379 -6.29151e-11
L183.15 -4.78189e-11
L183.921 -3.63003e-11
L184.692 -2.75225e-11
L185.463 -2.08417e-11
L186.234 -1.57632e-11
L187.004 -1.19076e-11
L187.775 -8.98397e-12
L188.546 -6.76989e-12
L189.317 -5.09521e-12
L190.088 -3.8301e-12
L190.859 -2.87558e-12
L191.63 -2.1563e-12
L192.4 -1.61496e-12
L193.171 -1.20804e-12
L193.942 -9.02544e-13
L194.713 -6.73479e-13
L195.484 -5.01936e-13
L196.255 -3.7363e-13
L197.026 -2.77781e-13
L197.797 -2.06268e-13
L198.567 -1.52979e-13
L199.338 -1.13318e-13
L200.109 -8.3837e-14
L200.88 -6.195e-14
L200.88 0
L200.88 0
L200.109 0
L199.338 0
L198.567 0
L197.797 0
L197.026 0
L196.255 0
L195.484 0
L194.713 0
L193.942 0
L193.171 0
L192.4 0
L191.63 0
L190.859 0
L190.088 0
L189.317 0
L188.546 0
L187.775 0
L187.004 0
L186.234 0
L185.463 0
L184.692 0
L183.921 0
L183.15 0
L182.379 0
L181.608 0
L180.838 0
L180.067 0
L179.296 0
L178.525 0
L177.754 0
L176.983 0
L176.212 0
L175.441 0
L174.671 0
L173.9 0
L173.129 0
L172.358 0
L171.587 0
L170.816 0
L170.045 0
L169.275 0
L168.504 0
L167.733 0
L166.962 0
L166.191 0
L165.42 0
L164.649 0
L163.879 0
L163.108 0
L162.337 0
L161.566 0
L160.795 0
L160.024 0
L159.253 0
L158.482 0
L157.712 0
L156.941 0
L156.17 0
L155.399 0
L154.628 0
L153.857 0
L153.086 0
L152.316 0
L151.545 0
L150.774 0
L150.003 0
L149.232 0
L148.461 0
L147.69 0
L146.919 0
L146.149 0
L145.378 0
L144.607 0
L143.836 0
L143.065 0
L142.294 0
L141.523 0
L140.753 0
L139.982 0
L139.211 0
L138.44 0
L137.669 0
L136.898 0
L136.127 0
L135.357 0
L134.586 0
L133.815 0
L133.044 0
L132.273 0
L131.502 0
L130.731 0
L129.96 0
L129.19 0
L128.419 0
L127.648 0
L126.877 0
L126.106 0
L125.335 0
L124.564 0
L123.794 0
L123.023 0
L122.252 0
L121.481 0
L120.71 0
L119.939 0
L119.168 0
L118.397 0
L117.627 0
L116.856 0
L116.085 0
L115.314 0
L114.543 0
L113.772 0
L113.001 0
L112.231 0
L111.46 0
L110.689 0
L109.918 0
L109.147 0
L108.376 0
L107.605 0
L106.835 0
L106.064 0
L105.293 0
L104.522 0
L103.751 0
L102.98 0
L102.209 0
L101.438 0
L100.668 0
L99.8967 0
L99.1259 0
L98.355 0
L97.5842 0
L96.8133 0
L96.0424 0
L95.2716 0
L94.5007 0
L93.7298 0
L92.959 0
L92.1881 0
L91.4172 0
L90.6464 0
L89.8755 0
L89.1046 0
L88.3338 0
L87.5629 0
L86.792 0
L86.0212 0
L85.2503 0
L84.4795 0
L83.7086 0
L82.9377 0
L82.1669 0
L81.396 0
L80.6251 0
L79.8543 0
L79.0834 0
L78.3125 0
L77.5417 0
L76.7708 0
L75.9999 0
L75.2291 0
L74.4582 0
L73.6873 0
L72.9165 0
L72.1456 0
L71.3748 0
L70.6039 0
L69.833 0
L69.0622 0
L68.2913 0
L67.5204 0
L66.7496 0
L65.9787 0
L65.2078 0
L64.437 0
L63.6661 0
L62.8952 0
L62.1244 0
L61.3535 0
L60.5827 0
L59.8118 0
L59.0409 0
L58.2701 0
L57.4992 0
L56.7283 0
L55.9575 0
L55.1866 0
L54.4157 0
L53.6449 0
L52.874 0
L52.1031 0
L51.3323 0
L50.5614 0
L49.7905 0
L49.0197 0
L48.2488 0
L47.478 0
L46.7071 0
z
" id="m303c24e706" style="stroke:#bf8454;"/>
    </defs>
    <g clip-path="url(#pdba1711fe4)">
     <use style="fill:#bf8454;stroke:#bf8454;" x="0.0" xlink:href="#m303c24e706" y="223.2"/>
    </g>
   </g>
   <g id="PolyCollection_6">
    <defs>
     <path d="
M0 0
L0 0
L0.366334 -0.00511706
L0.732668 -0.0204669
L1.099 -0.0460456
L1.46534 -0.0818464
L1.83167 -0.12786
L2.19801 -0.184075
L2.56434 -0.250476
L2.93067 -0.327047
L3.29701 -0.413767
L3.66334 -0.510615
L4.02968 -0.617565
L4.39601 -0.734589
L4.76234 -0.861657
L5.12868 -0.998737
L5.49501 -1.14579
L5.86135 -1.30279
L6.22768 -1.46968
L6.59402 -1.64643
L6.96035 -1.83298
L7.32668 -2.0293
L7.69302 -2.23532
L8.05935 -2.45101
L8.42569 -2.6763
L8.79202 -2.91113
L9.15835 -3.15544
L9.52469 -3.40918
L9.89102 -3.67227
L10.2574 -3.94464
L10.6237 -4.22624
L10.99 -4.51698
L11.3564 -4.8168
L11.7227 -5.12561
L12.089 -5.44334
L12.4554 -5.7699
L12.8217 -6.10521
L13.188 -6.44919
L13.5544 -6.80174
L13.9207 -7.16278
L14.287 -7.53222
L14.6534 -7.90997
L15.0197 -8.29591
L15.386 -8.68997
L15.7524 -9.09204
L16.1187 -9.50201
L16.485 -9.91978
L16.8514 -10.3452
L17.2177 -10.7783
L17.584 -11.2188
L17.9504 -11.6668
L18.3167 -12.1219
L18.683 -12.5842
L19.0494 -13.0536
L19.4157 -13.5298
L19.782 -14.0128
L20.1484 -14.5025
L20.5147 -14.9987
L20.881 -15.5014
L21.2474 -16.0104
L21.6137 -16.5255
L21.9801 -17.0466
L22.3464 -17.5737
L22.7127 -18.1066
L23.0791 -18.6451
L23.4454 -19.1891
L23.8117 -19.7385
L24.1781 -20.2931
L24.5444 -20.8528
L24.9107 -21.4176
L25.2771 -21.9871
L25.6434 -22.5614
L26.0097 -23.1402
L26.3761 -23.7234
L26.7424 -24.3108
L27.1087 -24.9024
L27.4751 -25.498
L27.8414 -26.0974
L28.2077 -26.7005
L28.5741 -27.3072
L28.9404 -27.9172
L29.3067 -28.5306
L29.6731 -29.147
L30.0394 -29.7664
L30.4057 -30.3885
L30.7721 -31.0134
L31.1384 -31.6407
L31.5047 -32.2705
L31.8711 -32.9024
L32.2374 -33.5364
L32.6037 -34.1724
L32.9701 -34.81
L33.3364 -35.4494
L33.7027 -36.0901
L34.0691 -36.7322
L34.4354 -37.3755
L34.8017 -38.0198
L35.1681 -38.6649
L35.5344 -39.3108
L35.9007 -39.9572
L36.2671 -40.6041
L36.6334 -41.2512
L36.9998 -41.8985
L37.3661 -42.5458
L37.7324 -43.1928
L38.0988 -43.8396
L38.4651 -44.4859
L38.8314 -45.1316
L39.1978 -45.7765
L39.5641 -46.4206
L39.9304 -47.0636
L40.2968 -47.7054
L40.6631 -48.346
L41.0294 -48.985
L41.3958 -49.6224
L41.7621 -50.2581
L42.1284 -50.892
L42.4948 -51.5237
L42.8611 -52.1534
L43.2274 -52.7807
L43.5938 -53.4056
L43.9601 -54.028
L44.3264 -54.6477
L44.6928 -55.2645
L45.0591 -55.8784
L45.4254 -56.4892
L45.7918 -57.0967
L46.1581 -57.701
L46.5244 -58.3018
L46.8908 -58.8989
L47.2571 -59.4924
L47.6234 -60.0821
L47.9898 -60.6678
L48.3561 -61.2494
L48.7224 -61.8268
L49.0888 -62.4
L49.4551 -62.9687
L49.8214 -63.5329
L50.1878 -64.0925
L50.5541 -64.6473
L50.9204 -65.1972
L51.2868 -65.7422
L51.6531 -66.2821
L52.0195 -66.8169
L52.3858 -67.3464
L52.7521 -67.8705
L53.1185 -68.3892
L53.4848 -68.9023
L53.8511 -69.4097
L54.2175 -69.9114
L54.5838 -70.4073
L54.9501 -70.8972
L55.3165 -71.3811
L55.6828 -71.8589
L56.0491 -72.3306
L56.4155 -72.7959
L56.7818 -73.255
L57.1481 -73.7076
L57.5145 -74.1537
L57.8808 -74.5932
L58.2471 -75.0261
L58.6135 -75.4523
L58.9798 -75.8718
L59.3461 -76.2844
L59.7125 -76.69
L60.0788 -77.0887
L60.4451 -77.4804
L60.8115 -77.865
L61.1778 -78.2424
L61.5441 -78.6127
L61.9105 -78.9757
L62.2768 -79.3314
L62.6431 -79.6798
L63.0095 -80.0207
L63.3758 -80.3542
L63.7421 -80.6803
L64.1085 -80.9988
L64.4748 -81.3098
L64.8411 -81.6132
L65.2075 -81.9089
L65.5738 -82.197
L65.9402 -82.4774
L66.3065 -82.7501
L66.6728 -83.015
L67.0392 -83.2722
L67.4055 -83.5215
L67.7718 -83.7631
L68.1382 -83.9968
L68.5045 -84.2227
L68.8708 -84.4407
L69.2372 -84.6509
L69.6035 -84.8531
L69.9698 -85.0475
L70.3362 -85.234
L70.7025 -85.4125
L71.0688 -85.5832
L71.4352 -85.7459
L71.8015 -85.9007
L72.1678 -86.0476
L72.5342 -86.1867
L72.9005 -86.3178
L73.2668 -86.441
L73.2668 0
L73.2668 0
L72.9005 0
L72.5342 0
L72.1678 0
L71.8015 0
L71.4352 0
L71.0688 0
L70.7025 0
L70.3362 0
L69.9698 0
L69.6035 0
L69.2372 0
L68.8708 0
L68.5045 0
L68.1382 0
L67.7718 0
L67.4055 0
L67.0392 0
L66.6728 0
L66.3065 0
L65.9402 0
L65.5738 0
L65.2075 0
L64.8411 0
L64.4748 0
L64.1085 0
L63.7421 0
L63.3758 0
L63.0095 0
L62.6431 0
L62.2768 0
L61.9105 0
L61.5441 0
L61.1778 0
L60.8115 0
L60.4451 0
L60.0788 0
L59.7125 0
L59.3461 0
L58.9798 0
L58.6135 0
L58.2471 0
L57.8808 0
L57.5145 0
L57.1481 0
L56.7818 0
L56.4155 0
L56.0491 0
L55.6828 0
L55.3165 0
L54.9501 0
L54.5838 0
L54.2175 0
L53.8511 0
L53.4848 0
L53.1185 0
L52.7521 0
L52.3858 0
L52.0195 0
L51.6531 0
L51.2868 0
L50.9204 0
L50.5541 0
L50.1878 0
L49.8214 0
L49.4551 0
L49.0888 0
L48.7224 0
L48.3561 0
L47.9898 0
L47.6234 0
L47.2571 0
L46.8908 0
L46.5244 0
L46.1581 0
L45.7918 0
L45.4254 0
L45.0591 0
L44.6928 0
L44.3264 0
L43.9601 0
L43.5938 0
L43.2274 0
L42.8611 0
L42.4948 0
L42.1284 0
L41.7621 0
L41.3958 0
L41.0294 0
L40.6631 0
L40.2968 0
L39.9304 0
L39.5641 0
L39.1978 0
L38.8314 0
L38.4651 0
L38.0988 0
L37.7324 0
L37.3661 0
L36.9998 0
L36.6334 0
L36.2671 0
L35.9007 0
L35.5344 0
L35.1681 0
L34.8017 0
L34.4354 0
L34.0691 0
L33.7027 0
L33.3364 0
L32.9701 0
L32.6037 0
L32.2374 0
L31.8711 0
L31.5047 0
L31.1384 0
L30.7721 0
L30.4057 0
L30.0394 0
L29.6731 0
L29.3067 0
L28.9404 0
L28.5741 0
L28.2077 0
L27.8414 0
L27.4751 0
L27.1087 0
L26.7424 0
L26.3761 0
L26.0097 0
L25.6434 0
L25.2771 0
L24.9107 0
L24.5444 0
L24.1781 0
L23.8117 0
L23.4454 0
L23.0791 0
L22.7127 0
L22.3464 0
L21.9801 0
L21.6137 0
L21.2474 0
L20.881 0
L20.5147 0
L20.1484 0
L19.782 0
L19.4157 0
L19.0494 0
L18.683 0
L18.3167 0
L17.9504 0
L17.584 0
L17.2177 0
L16.8514 0
L16.485 0
L16.1187 0
L15.7524 0
L15.386 0
L15.0197 0
L14.6534 0
L14.287 0
L13.9207 0
L13.5544 0
L13.188 0
L12.8217 0
L12.4554 0
L12.089 0
L11.7227 0
L11.3564 0
L10.99 0
L10.6237 0
L10.2574 0
L9.89102 0
L9.52469 0
L9.15835 0
L8.79202 0
L8.42569 0
L8.05935 0
L7.69302 0
L7.32668 0
L6.96035 0
L6.59402 0
L6.22768 0
L5.86135 0
L5.49501 0
L5.12868 0
L4.76234 0
L4.39601 0
L4.02968 0
L3.66334 0
L3.29701 0
L2.93067 0
L2.56434 0
L2.19801 0
L1.83167 0
L1.46534 0
L1.099 0
L0.732668 0
L0.366334 0
L0 0
z
" id="m2cd4a9bdff" style="stroke:#e5b27e;"/>
    </defs>
    <g clip-path="url(#pdba1711fe4)">
     <use style="fill:#e5b27e;stroke:#e5b27e;" x="0.0" xlink:href="#m2cd4a9bdff" y="223.2"/>
    </g>
   </g>
   <g id="PolyCollection_7">
    <defs>
     <path d="
M73.2668 0
L73.2668 -86.441
L73.9049 -84.345
L74.543 -82.2578
L75.181 -80.1813
L75.8191 -78.1176
L76.4572 -76.0686
L77.0952 -74.0361
L77.7333 -72.0219
L78.3714 -70.0276
L79.0094 -68.0548
L79.6475 -66.1049
L80.2856 -64.1793
L80.9236 -62.2794
L81.5617 -60.4062
L82.1998 -58.5609
L82.8378 -56.7445
L83.4759 -54.958
L84.114 -53.2022
L84.752 -51.4778
L85.3901 -49.7856
L86.0282 -48.1262
L86.6662 -46.5
L87.3043 -44.9077
L87.9423 -43.3494
L88.5804 -41.8257
L89.2185 -40.3366
L89.8565 -38.8825
L90.4946 -37.4634
L91.1327 -36.0794
L91.7707 -34.7305
L92.4088 -33.4167
L93.0469 -32.1378
L93.6849 -30.8937
L94.323 -29.6843
L94.9611 -28.5092
L95.5991 -27.3683
L96.2372 -26.2611
L96.8753 -25.1873
L97.5133 -24.1466
L98.1514 -23.1385
L98.7895 -22.1626
L99.4275 -21.2183
L100.066 -20.3052
L100.704 -19.4228
L101.342 -18.5705
L101.98 -17.7477
L102.618 -16.9539
L103.256 -16.1885
L103.894 -15.4508
L104.532 -14.7403
L105.17 -14.0563
L105.808 -13.3982
L106.446 -12.7653
L107.084 -12.1571
L107.722 -11.5728
L108.36 -11.0118
L108.999 -10.4734
L109.637 -9.95713
L110.275 -9.46219
L110.913 -8.98799
L111.551 -8.53388
L112.189 -8.09925
L112.827 -7.68346
L113.465 -7.2859
L114.103 -6.90597
L114.741 -6.54307
L115.379 -6.1966
L116.017 -5.86598
L116.655 -5.55066
L117.293 -5.25006
L117.931 -4.96364
L118.57 -4.69088
L119.208 -4.43123
L119.846 -4.1842
L120.484 -3.94927
L121.122 -3.72598
L121.76 -3.51384
L122.398 -3.31239
L123.036 -3.12119
L123.674 -2.9398
L124.312 -2.7678
L124.95 -2.60477
L125.588 -2.45034
L126.226 -2.3041
L126.864 -2.16569
L127.502 -2.03475
L128.14 -1.91095
L128.779 -1.79393
L129.417 -1.68338
L130.055 -1.579
L130.693 -1.48048
L131.331 -1.38754
L131.969 -1.29989
L132.607 -1.21729
L133.245 -1.13947
L133.883 -1.06618
L134.521 -0.997204
L135.159 -0.932308
L135.797 -0.87128
L136.435 -0.813915
L137.073 -0.760018
L137.711 -0.709401
L138.35 -0.661886
L138.988 -0.617303
L139.626 -0.57549
L140.264 -0.536292
L140.902 -0.499562
L141.54 -0.465159
L142.178 -0.432951
L142.816 -0.40281
L143.454 -0.374616
L144.092 -0.348256
L144.73 -0.32362
L145.368 -0.300606
L146.006 -0.279116
L146.644 -0.259059
L147.282 -0.240346
L147.921 -0.222896
L148.559 -0.20663
L149.197 -0.191475
L149.835 -0.17736
L150.473 -0.16422
L151.111 -0.151993
L151.749 -0.14062
L152.387 -0.130046
L153.025 -0.12022
L153.663 -0.111091
L154.301 -0.102615
L154.939 -0.0947484
L155.577 -0.0874498
L156.215 -0.0806814
L156.853 -0.0744074
L157.492 -0.0685941
L158.13 -0.0632099
L158.768 -0.0582253
L159.406 -0.0536125
L160.044 -0.0493457
L160.682 -0.0454005
L161.32 -0.0417543
L161.958 -0.0383857
L162.596 -0.035275
L163.234 -0.0324036
L163.872 -0.0297543
L164.51 -0.0273108
L165.148 -0.0250581
L165.786 -0.0229821
L166.424 -0.0210699
L167.063 -0.0193092
L167.701 -0.0176887
L168.339 -0.0161979
L168.977 -0.0148268
L169.615 -0.0135665
L170.253 -0.0124085
L170.891 -0.0113449
L171.529 -0.0103684
L172.167 -0.00947225
L172.805 -0.00865017
L173.443 -0.00789636
L174.081 -0.00720542
L174.719 -0.00657238
L175.357 -0.00599261
L175.995 -0.00546186
L176.633 -0.00497618
L177.272 -0.00453192
L177.91 -0.00412572
L178.548 -0.00375446
L179.186 -0.00341529
L179.824 -0.00310555
L180.462 -0.0028228
L181.1 -0.0025648
L181.738 -0.00232948
L182.376 -0.00211493
L183.014 -0.00191939
L183.652 -0.00174126
L184.29 -0.00157905
L184.928 -0.00143139
L185.566 -0.00129704
L186.204 -0.00117485
L186.843 -0.00106375
L187.481 -0.000962792
L188.119 -0.000871076
L188.757 -0.000787793
L189.395 -0.000712198
L190.033 -0.000643608
L190.671 -0.000581399
L191.309 -0.000525001
L191.947 -0.000473891
L192.585 -0.000427592
L193.223 -0.000385668
L193.861 -0.00034772
L194.499 -0.000313386
L195.137 -0.000282333
L195.775 -0.000254259
L196.414 -0.000228889
L197.052 -0.000205971
L197.69 -0.000185277
L198.328 -0.000166598
L198.966 -0.000149744
L199.604 -0.000134544
L200.242 -0.00012084
L200.88 -0.000108491
L200.88 0
L200.88 0
L200.242 0
L199.604 0
L198.966 0
L198.328 0
L197.69 0
L197.052 0
L196.414 0
L195.775 0
L195.137 0
L194.499 0
L193.861 0
L193.223 0
L192.585 0
L191.947 0
L191.309 0
L190.671 0
L190.033 0
L189.395 0
L188.757 0
L188.119 0
L187.481 0
L186.843 0
L186.204 0
L185.566 0
L184.928 0
L184.29 0
L183.652 0
L183.014 0
L182.376 0
L181.738 0
L181.1 0
L180.462 0
L179.824 0
L179.186 0
L178.548 0
L177.91 0
L177.272 0
L176.633 0
L175.995 0
L175.357 0
L174.719 0
L174.081 0
L173.443 0
L172.805 0
L172.167 0
L171.529 0
L170.891 0
L170.253 0
L169.615 0
L168.977 0
L168.339 0
L167.701 0
L167.063 0
L166.424 0
L165.786 0
L165.148 0
L164.51 0
L163.872 0
L163.234 0
L162.596 0
L161.958 0
L161.32 0
L160.682 0
L160.044 0
L159.406 0
L158.768 0
L158.13 0
L157.492 0
L156.853 0
L156.215 0
L155.577 0
L154.939 0
L154.301 0
L153.663 0
L153.025 0
L152.387 0
L151.749 0
L151.111 0
L150.473 0
L149.835 0
L149.197 0
L148.559 0
L147.921 0
L147.282 0
L146.644 0
L146.006 0
L145.368 0
L144.73 0
L144.092 0
L143.454 0
L142.816 0
L142.178 0
L141.54 0
L140.902 0
L140.264 0
L139.626 0
L138.988 0
L138.35 0
L137.711 0
L137.073 0
L136.435 0
L135.797 0
L135.159 0
L134.521 0
L133.883 0
L133.245 0
L132.607 0
L131.969 0
L131.331 0
L130.693 0
L130.055 0
L129.417 0
L128.779 0
L128.14 0
L127.502 0
L126.864 0
L126.226 0
L125.588 0
L124.95 0
L124.312 0
L123.674 0
L123.036 0
L122.398 0
L121.76 0
L121.122 0
L120.484 0
L119.846 0
L119.208 0
L118.57 0
L117.931 0
L117.293 0
L116.655 0
L116.017 0
L115.379 0
L114.741 0
L114.103 0
L113.465 0
L112.827 0
L112.189 0
L111.551 0
L110.913 0
L110.275 0
L109.637 0
L108.999 0
L108.36 0
L107.722 0
L107.084 0
L106.446 0
L105.808 0
L105.17 0
L104.532 0
L103.894 0
L103.256 0
L102.618 0
L101.98 0
L101.342 0
L100.704 0
L100.066 0
L99.4275 0
L98.7895 0
L98.1514 0
L97.5133 0
L96.8753 0
L96.2372 0
L95.5991 0
L94.9611 0
L94.323 0
L93.6849 0
L93.0469 0
L92.4088 0
L91.7707 0
L91.1327 0
L90.4946 0
L89.8565 0
L89.2185 0
L88.5804 0
L87.9423 0
L87.3043 0
L86.6662 0
L86.0282 0
L85.3901 0
L84.752 0
L84.114 0
L83.4759 0
L82.8378 0
L82.1998 0
L81.5617 0
L80.9236 0
L80.2856 0
L79.6475 0
L79.0094 0
L78.3714 0
L77.7333 0
L77.0952 0
L76.4572 0
L75.8191 0
L75.181 0
L74.543 0
L73.9049 0
L73.2668 0
z
" id="m482a834c7e" style="stroke:#e5b27e;"/>
    </defs>
    <g clip-path="url(#pdba1711fe4)">
     <use style="fill:#e5b27e;stroke:#e5b27e;" x="0.0" xlink:href="#m482a834c7e" y="223.2"/>
    </g>
   </g>
   <g id="PolyCollection_8">
    <defs>
     <path d="
M0 0
L0 0
L0.285507 -0.00310815
L0.571014 -0.0124321
L0.856521 -0.0279705
L1.14203 -0.0497207
L1.42754 -0.0776794
L1.71304 -0.111842
L1.99855 -0.152204
L2.28406 -0.198758
L2.56956 -0.251497
L2.85507 -0.310413
L3.14058 -0.375496
L3.42608 -0.446737
L3.71159 -0.524124
L3.9971 -0.607645
L4.28261 -0.697287
L4.56811 -0.793036
L4.85362 -0.894877
L5.13913 -1.00279
L5.42463 -1.11677
L5.71014 -1.23679
L5.99565 -1.36282
L6.28115 -1.49487
L6.56666 -1.63289
L6.85217 -1.77687
L7.13768 -1.92679
L7.42318 -2.08263
L7.70869 -2.24435
L7.9942 -2.41194
L8.2797 -2.58537
L8.56521 -2.76461
L8.85072 -2.94964
L9.13623 -3.14041
L9.42173 -3.33692
L9.70724 -3.53911
L9.99275 -3.74697
L10.2783 -3.96046
L10.5638 -4.17955
L10.8493 -4.40419
L11.1348 -4.63437
L11.4203 -4.87004
L11.7058 -5.11116
L11.9913 -5.3577
L12.2768 -5.60963
L12.5623 -5.86689
L12.8478 -6.12945
L13.1333 -6.39727
L13.4188 -6.67031
L13.7043 -6.94853
L13.9898 -7.23188
L14.2754 -7.52032
L14.5609 -7.8138
L14.8464 -8.11228
L15.1319 -8.41572
L15.4174 -8.72406
L15.7029 -9.03726
L15.9884 -9.35528
L16.2739 -9.67805
L16.5594 -10.0055
L16.8449 -10.3377
L17.1304 -10.6744
L17.4159 -11.0158
L17.7014 -11.3616
L17.9869 -11.7119
L18.2725 -12.0665
L18.558 -12.4256
L18.8435 -12.7889
L19.129 -13.1564
L19.4145 -13.5282
L19.7 -13.904
L19.9855 -14.284
L20.271 -14.6679
L20.5565 -15.0558
L20.842 -15.4475
L21.1275 -15.8431
L21.413 -16.2425
L21.6985 -16.6456
L21.984 -17.0523
L22.2695 -17.4627
L22.5551 -17.8765
L22.8406 -18.2939
L23.1261 -18.7146
L23.4116 -19.1386
L23.6971 -19.566
L23.9826 -19.9965
L24.2681 -20.4302
L24.5536 -20.867
L24.8391 -21.3068
L25.1246 -21.7495
L25.4101 -22.1952
L25.6956 -22.6436
L25.9811 -23.0948
L26.2666 -23.5487
L26.5522 -24.0052
L26.8377 -24.4643
L27.1232 -24.9258
L27.4087 -25.3898
L27.6942 -25.8561
L27.9797 -26.3247
L28.2652 -26.7955
L28.5507 -27.2684
L28.8362 -27.7434
L29.1217 -28.2204
L29.4072 -28.6993
L29.6927 -29.1801
L29.9782 -29.6627
L30.2637 -30.1471
L30.5493 -30.633
L30.8348 -31.1206
L31.1203 -31.6096
L31.4058 -32.1001
L31.6913 -32.592
L31.9768 -33.0852
L32.2623 -33.5796
L32.5478 -34.0751
L32.8333 -34.5718
L33.1188 -35.0694
L33.4043 -35.568
L33.6898 -36.0675
L33.9753 -36.5678
L34.2608 -37.0688
L34.5464 -37.5705
L34.8319 -38.0728
L35.1174 -38.5756
L35.4029 -39.0788
L35.6884 -39.5824
L35.9739 -40.0864
L36.2594 -40.5905
L36.5449 -41.0949
L36.8304 -41.5993
L37.1159 -42.1038
L37.4014 -42.6082
L37.6869 -43.1125
L37.9724 -43.6166
L38.2579 -44.1205
L38.5435 -44.6241
L38.829 -45.1273
L39.1145 -45.63
L39.4 -46.1322
L39.6855 -46.6338
L39.971 -47.1347
L40.2565 -47.635
L40.542 -48.1344
L40.8275 -48.633
L41.113 -49.1306
L41.3985 -49.6272
L41.684 -50.1228
L41.9695 -50.6173
L42.255 -51.1106
L42.5405 -51.6026
L42.8261 -52.0933
L43.1116 -52.5826
L43.3971 -53.0704
L43.6826 -53.5568
L43.9681 -54.0415
L44.2536 -54.5247
L44.5391 -55.0061
L44.8246 -55.4858
L45.1101 -55.9636
L45.3956 -56.4396
L45.6811 -56.9136
L45.9666 -57.3856
L46.2521 -57.8555
L46.5376 -58.3234
L46.8232 -58.789
L47.1087 -59.2524
L47.3942 -59.7135
L47.6797 -60.1722
L47.9652 -60.6286
L48.2507 -61.0824
L48.5362 -61.5338
L48.8217 -61.9826
L49.1072 -62.4287
L49.3927 -62.8722
L49.6782 -63.3129
L49.9637 -63.7508
L50.2492 -64.1859
L50.5347 -64.6181
L50.8203 -65.0473
L51.1058 -65.4735
L51.3913 -65.8967
L51.6768 -66.3168
L51.9623 -66.7338
L52.2478 -67.1476
L52.5333 -67.5581
L52.8188 -67.9653
L53.1043 -68.3692
L53.3898 -68.7698
L53.6753 -69.1669
L53.9608 -69.5606
L54.2463 -69.9507
L54.5318 -70.3373
L54.8174 -70.7203
L55.1029 -71.0997
L55.3884 -71.4754
L55.6739 -71.8474
L55.9594 -72.2156
L56.2449 -72.58
L56.5304 -72.9406
L56.8159 -73.2974
L57.1014 -73.6502
L57.1014 0
L57.1014 0
L56.8159 0
L56.5304 0
L56.2449 0
L55.9594 0
L55.6739 0
L55.3884 0
L55.1029 0
L54.8174 0
L54.5318 0
L54.2463 0
L53.9608 0
L53.6753 0
L53.3898 0
L53.1043 0
L52.8188 0
L52.5333 0
L52.2478 0
L51.9623 0
L51.6768 0
L51.3913 0
L51.1058 0
L50.8203 0
L50.5347 0
L50.2492 0
L49.9637 0
L49.6782 0
L49.3927 0
L49.1072 0
L48.8217 0
L48.5362 0
L48.2507 0
L47.9652 0
L47.6797 0
L47.3942 0
L47.1087 0
L46.8232 0
L46.5376 0
L46.2521 0
L45.9666 0
L45.6811 0
L45.3956 0
L45.1101 0
L44.8246 0
L44.5391 0
L44.2536 0
L43.9681 0
L43.6826 0
L43.3971 0
L43.1116 0
L42.8261 0
L42.5405 0
L42.255 0
L41.9695 0
L41.684 0
L41.3985 0
L41.113 0
L40.8275 0
L40.542 0
L40.2565 0
L39.971 0
L39.6855 0
L39.4 0
L39.1145 0
L38.829 0
L38.5435 0
L38.2579 0
L37.9724 0
L37.6869 0
L37.4014 0
L37.1159 0
L36.8304 0
L36.5449 0
L36.2594 0
L35.9739 0
L35.6884 0
L35.4029 0
L35.1174 0
L34.8319 0
L34.5464 0
L34.2608 0
L33.9753 0
L33.6898 0
L33.4043 0
L33.1188 0
L32.8333 0
L32.5478 0
L32.2623 0
L31.9768 0
L31.6913 0
L31.4058 0
L31.1203 0
L30.8348 0
L30.5493 0
L30.2637 0
L29.9782 0
L29.6927 0
L29.4072 0
L29.1217 0
L28.8362 0
L28.5507 0
L28.2652 0
L27.9797 0
L27.6942 0
L27.4087 0
L27.1232 0
L26.8377 0
L26.5522 0
L26.2666 0
L25.9811 0
L25.6956 0
L25.4101 0
L25.1246 0
L24.8391 0
L24.5536 0
L24.2681 0
L23.9826 0
L23.6971 0
L23.4116 0
L23.1261 0
L22.8406 0
L22.5551 0
L22.2695 0
L21.984 0
L21.6985 0
L21.413 0
L21.1275 0
L20.842 0
L20.5565 0
L20.271 0
L19.9855 0
L19.7 0
L19.4145 0
L19.129 0
L18.8435 0
L18.558 0
L18.2725 0
L17.9869 0
L17.7014 0
L17.4159 0
L17.1304 0
L16.8449 0
L16.5594 0
L16.2739 0
L15.9884 0
L15.7029 0
L15.4174 0
L15.1319 0
L14.8464 0
L14.5609 0
L14.2754 0
L13.9898 0
L13.7043 0
L13.4188 0
L13.1333 0
L12.8478 0
L12.5623 0
L12.2768 0
L11.9913 0
L11.7058 0
L11.4203 0
L11.1348 0
L10.8493 0
L10.5638 0
L10.2783 0
L9.99275 0
L9.70724 0
L9.42173 0
L9.13623 0
L8.85072 0
L8.56521 0
L8.2797 0
L7.9942 0
L7.70869 0
L7.42318 0
L7.13768 0
L6.85217 0
L6.56666 0
L6.28115 0
L5.99565 0
L5.71014 0
L5.42463 0
L5.13913 0
L4.85362 0
L4.56811 0
L4.28261 0
L3.9971 0
L3.71159 0
L3.42608 0
L3.14058 0
L2.85507 0
L2.56956 0
L2.28406 0
L1.99855 0
L1.71304 0
L1.42754 0
L1.14203 0
L0.856521 0
L0.571014 0
L0.285507 0
L0 0
z
" id="mac5b54ab6e" style="stroke:#cea071;"/>
    </defs>
    <g clip-path="url(#pdba1711fe4)">
     <use style="fill:#cea071;stroke:#cea071;" x="0.0" xlink:href="#mac5b54ab6e" y="223.2"/>
    </g>
   </g>
   <g id="PolyCollection_9">
    <defs>
     <path d="
M57.1014 0
L57.1014 -73.6502
L57.5134 -71.2584
L57.9254 -68.9137
L58.3374 -66.6167
L58.7494 -64.3679
L59.1614 -62.1677
L59.5734 -60.0165
L59.9854 -57.9144
L60.3974 -55.8616
L60.8093 -53.8582
L61.2213 -51.9043
L61.6333 -49.9996
L62.0453 -48.1441
L62.4573 -46.3376
L62.8693 -44.5798
L63.2813 -42.8704
L63.6933 -41.209
L64.1053 -39.5952
L64.5173 -38.0285
L64.9293 -36.5084
L65.3413 -35.0342
L65.7533 -33.6055
L66.1653 -32.2215
L66.5772 -30.8816
L66.9892 -29.5851
L67.4012 -28.3312
L67.8132 -27.1191
L68.2252 -25.9482
L68.6372 -24.8175
L69.0492 -23.7264
L69.4612 -22.6738
L69.8732 -21.6591
L70.2852 -20.6813
L70.6972 -19.7395
L71.1092 -18.8329
L71.5212 -17.9607
L71.9332 -17.1218
L72.3451 -16.3155
L72.7571 -15.5409
L73.1691 -14.7971
L73.5811 -14.0831
L73.9931 -13.3982
L74.4051 -12.7415
L74.8171 -12.1121
L75.2291 -11.5092
L75.6411 -10.9319
L76.0531 -10.3794
L76.4651 -9.85091
L76.8771 -9.34559
L77.2891 -8.86266
L77.7011 -8.40135
L78.113 -7.96089
L78.525 -7.54053
L78.937 -7.13954
L79.349 -6.7572
L79.761 -6.39282
L80.173 -6.0457
L80.585 -5.71518
L80.997 -5.4006
L81.409 -5.10134
L81.821 -4.81678
L82.233 -4.5463
L82.645 -4.28934
L83.057 -4.04532
L83.469 -3.8137
L83.881 -3.59394
L84.2929 -3.38552
L84.7049 -3.18796
L85.1169 -3.00075
L85.5289 -2.82345
L85.9409 -2.65559
L86.3529 -2.49675
L86.7649 -2.3465
L87.1769 -2.20445
L87.5889 -2.07019
L88.0009 -1.94336
L88.4129 -1.82361
L88.8249 -1.71057
L89.2369 -1.60393
L89.6489 -1.50335
L90.0608 -1.40855
L90.4728 -1.31922
L90.8848 -1.23508
L91.2968 -1.15586
L91.7088 -1.08132
L92.1208 -1.01119
L92.5328 -0.945259
L92.9448 -0.883287
L93.3568 -0.825064
L93.7688 -0.770386
L94.1808 -0.719059
L94.5928 -0.670897
L95.0048 -0.625725
L95.4168 -0.583373
L95.8287 -0.543682
L96.2407 -0.5065
L96.6527 -0.471683
L97.0647 -0.439094
L97.4767 -0.408602
L97.8887 -0.380085
L98.3007 -0.353425
L98.7127 -0.328511
L99.1247 -0.305239
L99.5367 -0.283509
L99.9487 -0.263228
L100.361 -0.244306
L100.773 -0.226659
L101.185 -0.210208
L101.597 -0.194878
L102.009 -0.180599
L102.421 -0.167303
L102.833 -0.154929
L103.245 -0.143416
L103.657 -0.13271
L104.069 -0.122757
L104.481 -0.113508
L104.893 -0.104917
L105.305 -0.09694
L105.717 -0.0895364
L106.129 -0.0826675
L106.541 -0.0762973
L106.953 -0.0703919
L107.365 -0.0649195
L107.777 -0.0598504
L108.189 -0.0551567
L108.601 -0.0508123
L109.013 -0.0467928
L109.425 -0.0430754
L109.837 -0.0396386
L110.248 -0.0364626
L110.66 -0.0335287
L111.072 -0.0308195
L111.484 -0.0283188
L111.896 -0.0260115
L112.308 -0.0238833
L112.72 -0.0219212
L113.132 -0.0201129
L113.544 -0.018447
L113.956 -0.0169129
L114.368 -0.0155006
L114.78 -0.0142011
L115.192 -0.0130058
L115.604 -0.0119067
L116.016 -0.0108965
L116.428 -0.00996836
L116.84 -0.00911595
L117.252 -0.00833338
L117.664 -0.0076152
L118.076 -0.00695638
L118.488 -0.00635224
L118.9 -0.00579845
L119.312 -0.005291
L119.724 -0.00482621
L120.136 -0.00440064
L120.548 -0.00401114
L120.96 -0.00365478
L121.372 -0.00332887
L121.784 -0.00303092
L122.196 -0.00275863
L122.608 -0.0025099
L123.02 -0.00228276
L123.432 -0.00207542
L123.844 -0.00188623
L124.256 -0.00171367
L124.668 -0.00155632
L125.08 -0.00141291
L125.492 -0.00128225
L125.904 -0.00116326
L126.316 -0.00105492
L126.728 -0.000956328
L127.14 -0.000866635
L127.552 -0.000785071
L127.964 -0.000710927
L128.376 -0.000643552
L128.788 -0.000582351
L129.2 -0.000526781
L129.612 -0.000476341
L130.024 -0.000430576
L130.436 -0.000389067
L130.848 -0.000351433
L131.26 -0.000317324
L131.672 -0.000286423
L132.084 -0.000258438
L132.496 -0.000233103
L132.908 -0.000210177
L133.32 -0.000189436
L133.732 -0.000170682
L134.144 -0.000153728
L134.556 -0.000138409
L134.968 -0.000124571
L135.38 -0.000112077
L135.792 -0.0001008
L136.204 -9.06246e-05
L136.616 -8.14473e-05
L137.028 -7.31731e-05
L137.44 -6.57159e-05
L137.852 -5.89975e-05
L138.264 -5.29469e-05
L138.676 -4.74999e-05
L139.088 -4.25979e-05
L139.5 -3.81882e-05
L139.5 0
L139.5 0
L139.088 0
L138.676 0
L138.264 0
L137.852 0
L137.44 0
L137.028 0
L136.616 0
L136.204 0
L135.792 0
L135.38 0
L134.968 0
L134.556 0
L134.144 0
L133.732 0
L133.32 0
L132.908 0
L132.496 0
L132.084 0
L131.672 0
L131.26 0
L130.848 0
L130.436 0
L130.024 0
L129.612 0
L129.2 0
L128.788 0
L128.376 0
L127.964 0
L127.552 0
L127.14 0
L126.728 0
L126.316 0
L125.904 0
L125.492 0
L125.08 0
L124.668 0
L124.256 0
L123.844 0
L123.432 0
L123.02 0
L122.608 0
L122.196 0
L121.784 0
L121.372 0
L120.96 0
L120.548 0
L120.136 0
L119.724 0
L119.312 0
L118.9 0
L118.488 0
L118.076 0
L117.664 0
L117.252 0
L116.84 0
L116.428 0
L116.016 0
L115.604 0
L115.192 0
L114.78 0
L114.368 0
L113.956 0
L113.544 0
L113.132 0
L112.72 0
L112.308 0
L111.896 0
L111.484 0
L111.072 0
L110.66 0
L110.248 0
L109.837 0
L109.425 0
L109.013 0
L108.601 0
L108.189 0
L107.777 0
L107.365 0
L106.953 0
L106.541 0
L106.129 0
L105.717 0
L105.305 0
L104.893 0
L104.481 0
L104.069 0
L103.657 0
L103.245 0
L102.833 0
L102.421 0
L102.009 0
L101.597 0
L101.185 0
L100.773 0
L100.361 0
L99.9487 0
L99.5367 0
L99.1247 0
L98.7127 0
L98.3007 0
L97.8887 0
L97.4767 0
L97.0647 0
L96.6527 0
L96.2407 0
L95.8287 0
L95.4168 0
L95.0048 0
L94.5928 0
L94.1808 0
L93.7688 0
L93.3568 0
L92.9448 0
L92.5328 0
L92.1208 0
L91.7088 0
L91.2968 0
L90.8848 0
L90.4728 0
L90.0608 0
L89.6489 0
L89.2369 0
L88.8249 0
L88.4129 0
L88.0009 0
L87.5889 0
L87.1769 0
L86.7649 0
L86.3529 0
L85.9409 0
L85.5289 0
L85.1169 0
L84.7049 0
L84.2929 0
L83.881 0
L83.469 0
L83.057 0
L82.645 0
L82.233 0
L81.821 0
L81.409 0
L80.997 0
L80.585 0
L80.173 0
L79.761 0
L79.349 0
L78.937 0
L78.525 0
L78.113 0
L77.7011 0
L77.2891 0
L76.8771 0
L76.4651 0
L76.0531 0
L75.6411 0
L75.2291 0
L74.8171 0
L74.4051 0
L73.9931 0
L73.5811 0
L73.1691 0
L72.7571 0
L72.3451 0
L71.9332 0
L71.5212 0
L71.1092 0
L70.6972 0
L70.2852 0
L69.8732 0
L69.4612 0
L69.0492 0
L68.6372 0
L68.2252 0
L67.8132 0
L67.4012 0
L66.9892 0
L66.5772 0
L66.1653 0
L65.7533 0
L65.3413 0
L64.9293 0
L64.5173 0
L64.1053 0
L63.6933 0
L63.2813 0
L62.8693 0
L62.4573 0
L62.0453 0
L61.6333 0
L61.2213 0
L60.8093 0
L60.3974 0
L59.9854 0
L59.5734 0
L59.1614 0
L58.7494 0
L58.3374 0
L57.9254 0
L57.5134 0
L57.1014 0
z
" id="m79ce46c036" style="stroke:#cea071;"/>
    </defs>
    <g clip-path="url(#pdba1711fe4)">
     <use style="fill:#cea071;stroke:#cea071;" x="0.0" xlink:href="#m79ce46c036" y="223.2"/>
    </g>
   </g>
  </g>
 </g>
 <defs>
  <clipPath id="pdba1711fe4">
   <rect height="223.2" width="334.8" x="0.0" y="0.0"/>
  </clipPath>
 </defs>
</svg>
