<?xml version="1.0" encoding="utf-8" standalone="no"?>
<!DOCTYPE svg PUBLIC "-//W3C//DTD SVG 1.1//EN"
  "http://www.w3.org/Graphics/SVG/1.1/DTD/svg11.dtd">
<!-- Created with matplotlib (http://matplotlib.org/) -->
<svg height="223pt" version="1.1" viewBox="0 0 334 223" width="334pt" xmlns="http://www.w3.org/2000/svg" xmlns:xlink="http://www.w3.org/1999/xlink">
 <defs>
  <style type="text/css">
*{stroke-linecap:butt;stroke-linejoin:round;}
  </style>
 </defs>
 <g id="figure_1">
  <g id="patch_1">
   <path d="
M0 223.2
L334.8 223.2
L334.8 0
L0 0
L0 223.2" style="fill:none;"/>
  </g>
  <g id="axes_1">
   <g id="line2d_1">
    <path clip-path="url(#pdba1711fe4)" d="
M0 223.2
L0.467071 223.07
L0.934142 222.681
L1.40121 222.033
L2.10182 220.58
L2.80243 218.558
L3.73657 214.997
L4.67071 210.484
L5.83839 203.574
L7.00606 195.361
L8.40728 183.972
L10.042 168.902
L12.1438 147.425
L16.3475 101.438
L19.1499 71.9892
L21.2517 52.1888
L22.8865 38.7227
L24.2877 28.7779
L25.6889 20.4595
L26.8566 14.8435
L27.7907 11.2398
L28.7249 8.43721
L29.4255 6.86241
L30.1261 5.73744
L30.8267 5.05804
L31.2938 4.84956
L31.7608 4.83389
L32.2279 5.00823
L32.695 5.36942
L33.3956 6.25375
L34.0962 7.53722
L35.0303 9.84365
L35.9645 12.7944
L37.1321 17.3236
L38.5333 23.8727
L40.1681 32.8395
L42.0364 44.501
L44.3717 60.5977
L46.7071 77.665
L46.7071 77.665" style="fill:none;stroke:#8e4b32;stroke-linecap:square;stroke-width:2;"/>
   </g>
   <g id="line2d_2">
    <path clip-path="url(#pdba1711fe4)" d="
M0 223.2
L0.732668 223.105
L1.46534 222.821
L2.19801 222.349
L3.29701 221.29
L4.39601 219.818
L5.49501 217.941
L6.59402 215.672
L8.05935 212.061
L9.52469 207.82
L11.3564 201.706
L13.188 194.789
L15.386 185.598
L18.3167 172.206
L23.0791 149.057
L27.4751 128.039
L30.4057 115.148
L32.6037 106.404
L34.4354 99.8572
L36.2671 94.066
L38.0988 89.0937
L39.5641 85.7377
L41.0294 82.9528
L42.1284 81.2455
L43.2274 79.8674
L44.3264 78.8186
L45.4254 78.0973
L46.5244 77.7
L47.6234 77.6213
L48.7224 77.8543
L49.8214 78.3907
L50.9204 79.2208
L52.0195 80.3334
L53.1185 81.7165
L54.5838 83.9584
L56.0491 86.6242
L57.8808 90.4977
L59.7125 94.9041
L61.9105 100.788
L64.4748 108.308
L67.7718 118.694
L73.2668 136.759
L73.2668 136.759" style="fill:none;stroke:#d4925e;stroke-linecap:square;stroke-width:3;"/>
   </g>
   <g id="line2d_3">
    <path clip-path="url(#pdba1711fe4)" d="
M0 223.2
L2.232 223.01
L4.464 222.443
L6.696 221.503
L8.928 220.199
L11.16 218.545
L13.392 216.556
L15.624 214.25
L17.856 211.649
L20.088 208.779
L23.436 204.025
L26.784 198.822
L31.248 191.371
L39.06 177.666
L44.64 168.024
L49.104 160.776
L52.452 155.758
L55.8 151.19
L58.032 148.427
L60.264 145.912
L62.496 143.659
L64.728 141.68
L66.96 139.983
L69.192 138.575
L71.424 137.459
L73.656 136.637
L75.888 136.107
L78.12 135.865
L80.352 135.905
L82.584 136.218
L84.816 136.796
L87.048 137.626
L89.28 138.694
L91.512 139.987
L93.744 141.488
L97.092 144.095
L100.44 147.074
L103.788 150.367
L108.252 155.14
L113.832 161.523
L131.688 182.373
L136.152 187.182
L140.616 191.696
L145.08 195.874
L149.544 199.694
L154.008 203.145
L157.356 205.491
L160.704 207.632
L165.168 210.181
L169.632 212.398
L174.096 214.307
L178.56 215.935
L183.024 217.31
L187.488 218.461
L191.952 219.415
L197.532 220.373
L203.112 221.112
L209.808 221.771
L217.62 222.301
L226.548 222.685
L238.824 222.971
L256.68 223.136
L293.508 223.197
L334.8 223.2
L334.8 223.2" style="fill:none;stroke:#fec58b;stroke-linecap:square;stroke-width:5;"/>
   </g>
   <g id="line2d_4">
    <path clip-path="url(#pdba1711fe4)" d="
M0 223.2
L0.700606 223.113
L1.63475 222.729
L2.56889 222.038
L3.50303 221.046
L4.43717 219.755
L5.60485 217.732
L6.77253 215.267
L8.17374 211.752
L9.80849 206.93
L11.4432 201.395
L13.3115 194.297
L15.6469 184.452
L18.4493 171.577
L23.3535 147.713
L27.5572 127.662
L30.3596 115.341
L32.695 106.062
L34.7968 98.6525
L36.6651 92.9141
L38.2998 88.6
L39.701 85.453
L41.1022 82.8296
L42.2699 81.0496
L43.4376 79.6414
L44.6053 78.6047
L45.5394 78.0412
L46.4736 77.7113
L46.7071 77.665
L46.7071 77.665" style="fill:none;stroke:#bf8454;stroke-linecap:square;stroke-width:3;"/>
   </g>
   <g id="line2d_5">
    <path clip-path="url(#pdba1711fe4)" d="
M0 223.2
L1.83167 223.072
L3.66334 222.689
L5.49501 222.054
L7.32668 221.171
L9.15835 220.045
L10.99 218.683
L13.188 216.751
L15.386 214.51
L17.9504 211.533
L20.5147 208.201
L23.4454 204.011
L26.7424 198.889
L30.7721 192.187
L36.9998 181.301
L44.3264 168.552
L48.3561 161.951
L52.0195 156.383
L54.9501 152.303
L57.8808 148.607
L60.4451 145.72
L63.0095 143.179
L65.2075 141.291
L67.4055 139.678
L69.6035 138.347
L71.8015 137.299
L73.2668 136.759
L73.2668 136.759" style="fill:none;stroke:#e5b27e;stroke-linecap:square;stroke-width:5;"/>
   </g>
  </g>
 </g>
 <defs>
  <clipPath id="pdba1711fe4">
   <rect height="223.2" width="334.8" x="0.0" y="0.0"/>
  </clipPath>
 </defs>
</svg>
