<?xml version="1.0" encoding="utf-8" standalone="no"?>
<!DOCTYPE svg PUBLIC "-//W3C//DTD SVG 1.1//EN"
  "http://www.w3.org/Graphics/SVG/1.1/DTD/svg11.dtd">
<!-- Created with matplotlib (http://matplotlib.org/) -->
<svg height="223pt" version="1.1" viewBox="0 0 334 223" width="334pt" xmlns="http://www.w3.org/2000/svg" xmlns:xlink="http://www.w3.org/1999/xlink">
 <defs>
  <style type="text/css">
*{stroke-linecap:butt;stroke-linejoin:round;stroke-miterlimit:100000;}
  </style>
 </defs>
 <g id="figure_1">
  <g id="patch_1">
   <path d="M 0 223.2 
L 334.8 223.2 
L 334.8 0 
L 0 0 
z
" style="fill:none;opacity:0.0;"/>
  </g>
  <g id="axes_1">
   <g id="PolyCollection_1">
    <defs>
     <path d="M 0 0 
L 0 0 
L 0.233535 -0.032492 
L 0.467071 -0.129947 
L 0.700606 -0.2923 
L 0.934142 -0.519445 
L 1.167677 -0.811234 
L 1.401213 -1.167473 
L 1.634748 -1.58793 
L 1.868284 -2.072329 
L 2.101819 -2.620352 
L 2.335355 -3.23164 
L 2.56889 -3.905793 
L 2.802425 -4.642368 
L 3.035961 -5.440884 
L 3.269496 -6.300818 
L 3.503032 -7.221609 
L 3.736567 -8.202656 
L 3.970103 -9.243318 
L 4.203638 -10.342917 
L 4.437174 -11.500736 
L 4.670709 -12.716023 
L 4.904244 -13.987988 
L 5.13778 -15.315804 
L 5.371315 -16.698612 
L 5.604851 -18.135514 
L 5.838386 -19.625583 
L 6.071922 -21.167855 
L 6.305457 -22.761337 
L 6.538993 -24.405 
L 6.772528 -26.09779 
L 7.006064 -27.838618 
L 7.239599 -29.62637 
L 7.473134 -31.459901 
L 7.70667 -33.338041 
L 7.940205 -35.259592 
L 8.173741 -37.223332 
L 8.407276 -39.228015 
L 8.640812 -41.272369 
L 8.874347 -43.355102 
L 9.107883 -45.474902 
L 9.341418 -47.630432 
L 9.574953 -49.820341 
L 9.808489 -52.043256 
L 10.042024 -54.297789 
L 10.27556 -56.582534 
L 10.509095 -58.896072 
L 10.742631 -61.236969 
L 10.976166 -63.603778 
L 11.209702 -65.995041 
L 11.443237 -68.409288 
L 11.676773 -70.845042 
L 11.910308 -73.300815 
L 12.143843 -75.775112 
L 12.377379 -78.266434 
L 12.610914 -80.773274 
L 12.84445 -83.294124 
L 13.077985 -85.82747 
L 13.311521 -88.371799 
L 13.545056 -90.925596 
L 13.778592 -93.487346 
L 14.012127 -96.055536 
L 14.245662 -98.628657 
L 14.479198 -101.205202 
L 14.712733 -103.783668 
L 14.946269 -106.362559 
L 15.179804 -108.940387 
L 15.41334 -111.51567 
L 15.646875 -114.086935 
L 15.880411 -116.65272 
L 16.113946 -119.211573 
L 16.347482 -121.762054 
L 16.581017 -124.302735 
L 16.814552 -126.832204 
L 17.048088 -129.349061 
L 17.281623 -131.851923 
L 17.515159 -134.339423 
L 17.748694 -136.810212 
L 17.98223 -139.262959 
L 18.215765 -141.69635 
L 18.449301 -144.109094 
L 18.682836 -146.499917 
L 18.916372 -148.86757 
L 19.149907 -151.210823 
L 19.383442 -153.528471 
L 19.616978 -155.819331 
L 19.850513 -158.082244 
L 20.084049 -160.316077 
L 20.317584 -162.519721 
L 20.55112 -164.692094 
L 20.784655 -166.83214 
L 21.018191 -168.938829 
L 21.251726 -171.011161 
L 21.485261 -173.048162 
L 21.718797 -175.048887 
L 21.952332 -177.012421 
L 22.185868 -178.937875 
L 22.419403 -180.824394 
L 22.652939 -182.67115 
L 22.886474 -184.477347 
L 23.12001 -186.242218 
L 23.353545 -187.965028 
L 23.587081 -189.645073 
L 23.820616 -191.281681 
L 24.054151 -192.87421 
L 24.287687 -194.42205 
L 24.521222 -195.924625 
L 24.754758 -197.381387 
L 24.988293 -198.791823 
L 25.221829 -200.155452 
L 25.455364 -201.471823 
L 25.6889 -202.740518 
L 25.922435 -203.961152 
L 26.15597 -205.133371 
L 26.389506 -206.256853 
L 26.623041 -207.331307 
L 26.856577 -208.356475 
L 27.090112 -209.332131 
L 27.323648 -210.258077 
L 27.557183 -211.13415 
L 27.790719 -211.960216 
L 28.024254 -212.736171 
L 28.25779 -213.461942 
L 28.491325 -214.137488 
L 28.72486 -214.762795 
L 28.958396 -215.337879 
L 29.191931 -215.862787 
L 29.425467 -216.337592 
L 29.659002 -216.762398 
L 29.892538 -217.137334 
L 30.126073 -217.46256 
L 30.359609 -217.738261 
L 30.593144 -217.964648 
L 30.82668 -218.141961 
L 31.060215 -218.270462 
L 31.29375 -218.35044 
L 31.527286 -218.382211 
L 31.760821 -218.366111 
L 31.994357 -218.302502 
L 32.227892 -218.191769 
L 32.461428 -218.03432 
L 32.694963 -217.830582 
L 32.928499 -217.581008 
L 33.162034 -217.286068 
L 33.395569 -216.946255 
L 33.629105 -216.562078 
L 33.86264 -216.134069 
L 34.096176 -215.662776 
L 34.329711 -215.148766 
L 34.563247 -214.592622 
L 34.796782 -213.994945 
L 35.030318 -213.356349 
L 35.263853 -212.677467 
L 35.497389 -211.958944 
L 35.730924 -211.201441 
L 35.964459 -210.405629 
L 36.197995 -209.572195 
L 36.43153 -208.701837 
L 36.665066 -207.795263 
L 36.898601 -206.853194 
L 37.132137 -205.87636 
L 37.365672 -204.865499 
L 37.599208 -203.821362 
L 37.832743 -202.744703 
L 38.066278 -201.636287 
L 38.299814 -200.496886 
L 38.533349 -199.327275 
L 38.766885 -198.128239 
L 39.00042 -196.900566 
L 39.233956 -195.645047 
L 39.467491 -194.36248 
L 39.701027 -193.053664 
L 39.934562 -191.719402 
L 40.168098 -190.360498 
L 40.401633 -188.977759 
L 40.635168 -187.571992 
L 40.868704 -186.144004 
L 41.102239 -184.694603 
L 41.335775 -183.224596 
L 41.56931 -181.734789 
L 41.802846 -180.225986 
L 42.036381 -178.698989 
L 42.269917 -177.154598 
L 42.503452 -175.593608 
L 42.736987 -174.016812 
L 42.970523 -172.425 
L 43.204058 -170.818954 
L 43.437594 -169.199455 
L 43.671129 -167.567276 
L 43.904665 -165.923184 
L 44.1382 -164.267943 
L 44.371736 -162.602307 
L 44.605271 -160.927025 
L 44.838807 -159.242837 
L 45.072342 -157.550478 
L 45.305877 -155.850672 
L 45.539413 -154.144136 
L 45.772948 -152.43158 
L 46.006484 -150.713703 
L 46.240019 -148.991194 
L 46.473555 -147.264736 
L 46.70709 -145.534998 
L 46.70709 0 
L 46.70709 0 
L 46.473555 0 
L 46.240019 0 
L 46.006484 0 
L 45.772948 0 
L 45.539413 0 
L 45.305877 0 
L 45.072342 0 
L 44.838807 0 
L 44.605271 0 
L 44.371736 0 
L 44.1382 0 
L 43.904665 0 
L 43.671129 0 
L 43.437594 0 
L 43.204058 0 
L 42.970523 0 
L 42.736987 0 
L 42.503452 0 
L 42.269917 0 
L 42.036381 0 
L 41.802846 0 
L 41.56931 0 
L 41.335775 0 
L 41.102239 0 
L 40.868704 0 
L 40.635168 0 
L 40.401633 0 
L 40.168098 0 
L 39.934562 0 
L 39.701027 0 
L 39.467491 0 
L 39.233956 0 
L 39.00042 0 
L 38.766885 0 
L 38.533349 0 
L 38.299814 0 
L 38.066278 0 
L 37.832743 0 
L 37.599208 0 
L 37.365672 0 
L 37.132137 0 
L 36.898601 0 
L 36.665066 0 
L 36.43153 0 
L 36.197995 0 
L 35.964459 0 
L 35.730924 0 
L 35.497389 0 
L 35.263853 0 
L 35.030318 0 
L 34.796782 0 
L 34.563247 0 
L 34.329711 0 
L 34.096176 0 
L 33.86264 0 
L 33.629105 0 
L 33.395569 0 
L 33.162034 0 
L 32.928499 0 
L 32.694963 0 
L 32.461428 0 
L 32.227892 0 
L 31.994357 0 
L 31.760821 0 
L 31.527286 0 
L 31.29375 0 
L 31.060215 0 
L 30.82668 0 
L 30.593144 0 
L 30.359609 0 
L 30.126073 0 
L 29.892538 0 
L 29.659002 0 
L 29.425467 0 
L 29.191931 0 
L 28.958396 0 
L 28.72486 0 
L 28.491325 0 
L 28.25779 0 
L 28.024254 0 
L 27.790719 0 
L 27.557183 0 
L 27.323648 0 
L 27.090112 0 
L 26.856577 0 
L 26.623041 0 
L 26.389506 0 
L 26.15597 0 
L 25.922435 0 
L 25.6889 0 
L 25.455364 0 
L 25.221829 0 
L 24.988293 0 
L 24.754758 0 
L 24.521222 0 
L 24.287687 0 
L 24.054151 0 
L 23.820616 0 
L 23.587081 0 
L 23.353545 0 
L 23.12001 0 
L 22.886474 0 
L 22.652939 0 
L 22.419403 0 
L 22.185868 0 
L 21.952332 0 
L 21.718797 0 
L 21.485261 0 
L 21.251726 0 
L 21.018191 0 
L 20.784655 0 
L 20.55112 0 
L 20.317584 0 
L 20.084049 0 
L 19.850513 0 
L 19.616978 0 
L 19.383442 0 
L 19.149907 0 
L 18.916372 0 
L 18.682836 0 
L 18.449301 0 
L 18.215765 0 
L 17.98223 0 
L 17.748694 0 
L 17.515159 0 
L 17.281623 0 
L 17.048088 0 
L 16.814552 0 
L 16.581017 0 
L 16.347482 0 
L 16.113946 0 
L 15.880411 0 
L 15.646875 0 
L 15.41334 0 
L 15.179804 0 
L 14.946269 0 
L 14.712733 0 
L 14.479198 0 
L 14.245662 0 
L 14.012127 0 
L 13.778592 0 
L 13.545056 0 
L 13.311521 0 
L 13.077985 0 
L 12.84445 0 
L 12.610914 0 
L 12.377379 0 
L 12.143843 0 
L 11.910308 0 
L 11.676773 0 
L 11.443237 0 
L 11.209702 0 
L 10.976166 0 
L 10.742631 0 
L 10.509095 0 
L 10.27556 0 
L 10.042024 0 
L 9.808489 0 
L 9.574953 0 
L 9.341418 0 
L 9.107883 0 
L 8.874347 0 
L 8.640812 0 
L 8.407276 0 
L 8.173741 0 
L 7.940205 0 
L 7.70667 0 
L 7.473134 0 
L 7.239599 0 
L 7.006064 0 
L 6.772528 0 
L 6.538993 0 
L 6.305457 0 
L 6.071922 0 
L 5.838386 0 
L 5.604851 0 
L 5.371315 0 
L 5.13778 0 
L 4.904244 0 
L 4.670709 0 
L 4.437174 0 
L 4.203638 0 
L 3.970103 0 
L 3.736567 0 
L 3.503032 0 
L 3.269496 0 
L 3.035961 0 
L 2.802425 0 
L 2.56889 0 
L 2.335355 0 
L 2.101819 0 
L 1.868284 0 
L 1.634748 0 
L 1.401213 0 
L 1.167677 0 
L 0.934142 0 
L 0.700606 0 
L 0.467071 0 
L 0.233535 0 
L 0 0 
z
" id="mf1bd00f968" style="stroke:#8e4b32;"/>
    </defs>
    <g clip-path="url(#p1063e656c8)">
     <use style="fill:#8e4b32;stroke:#8e4b32;" x="0.0" xlink:href="#mf1bd00f968" y="223.2"/>
    </g>
   </g>
   <g id="PolyCollection_2">
    <defs>
     <path d="M 0 0 
L 0 0 
L 0.366334 -0.023689 
L 0.732668 -0.09474 
L 1.099003 -0.2131 
L 1.465337 -0.378686 
L 1.831671 -0.591379 
L 2.198005 -0.851025 
L 2.564339 -1.157438 
L 2.930673 -1.510399 
L 3.297008 -1.909655 
L 3.663342 -2.354919 
L 4.029676 -2.845872 
L 4.39601 -3.382163 
L 4.762344 -3.963408 
L 5.128678 -4.589192 
L 5.495013 -5.259067 
L 5.861347 -5.972556 
L 6.227681 -6.729149 
L 6.594015 -7.528308 
L 6.960349 -8.369464 
L 7.326683 -9.252019 
L 7.693018 -10.175347 
L 8.059352 -11.138792 
L 8.425686 -12.141672 
L 8.79202 -13.183278 
L 9.158354 -14.262874 
L 9.524688 -15.379698 
L 9.891023 -16.532966 
L 10.257357 -17.721864 
L 10.623691 -18.945561 
L 10.990025 -20.203197 
L 11.356359 -21.493894 
L 11.722693 -22.816751 
L 12.089028 -24.170847 
L 12.455362 -25.55524 
L 12.821696 -26.96897 
L 13.18803 -28.411059 
L 13.554364 -29.880511 
L 13.920698 -31.376314 
L 14.287033 -32.89744 
L 14.653367 -34.442847 
L 15.019701 -36.011478 
L 15.386035 -37.602263 
L 15.752369 -39.214122 
L 16.118703 -40.845961 
L 16.485038 -42.496678 
L 16.851372 -44.16516 
L 17.217706 -45.850287 
L 17.58404 -47.55093 
L 17.950374 -49.265955 
L 18.316708 -50.994221 
L 18.683043 -52.734583 
L 19.049377 -54.485892 
L 19.415711 -56.246997 
L 19.782045 -58.016743 
L 20.148379 -59.793976 
L 20.514713 -61.577541 
L 20.881048 -63.366283 
L 21.247382 -65.159051 
L 21.613716 -66.954695 
L 21.98005 -68.752067 
L 22.346384 -70.550027 
L 22.712719 -72.347437 
L 23.079053 -74.143167 
L 23.445387 -75.936093 
L 23.811721 -77.725099 
L 24.178055 -79.509078 
L 24.544389 -81.286932 
L 24.910724 -83.057573 
L 25.277058 -84.819924 
L 25.643392 -86.572921 
L 26.009726 -88.31551 
L 26.37606 -90.046654 
L 26.742394 -91.765326 
L 27.108729 -93.470516 
L 27.475063 -95.161228 
L 27.841397 -96.836484 
L 28.207731 -98.495321 
L 28.574065 -100.136794 
L 28.940399 -101.759974 
L 29.306734 -103.363954 
L 29.673068 -104.947843 
L 30.039402 -106.51077 
L 30.405736 -108.051886 
L 30.77207 -109.57036 
L 31.138404 -111.065384 
L 31.504739 -112.536171 
L 31.871073 -113.981954 
L 32.237407 -115.401992 
L 32.603741 -116.795563 
L 32.970075 -118.161971 
L 33.336409 -119.500542 
L 33.702744 -120.810624 
L 34.069078 -122.091592 
L 34.435412 -123.342845 
L 34.801746 -124.563804 
L 35.16808 -125.753916 
L 35.534414 -126.912654 
L 35.900749 -128.039514 
L 36.267083 -129.134019 
L 36.633417 -130.195717 
L 36.999751 -131.22418 
L 37.366085 -132.219007 
L 37.732419 -133.179821 
L 38.098754 -134.106272 
L 38.465088 -134.998035 
L 38.831422 -135.854811 
L 39.197756 -136.676326 
L 39.56409 -137.462331 
L 39.930424 -138.212602 
L 40.296759 -138.926942 
L 40.663093 -139.605179 
L 41.029427 -140.247163 
L 41.395761 -140.852772 
L 41.762095 -141.421908 
L 42.128429 -141.954495 
L 42.494764 -142.450485 
L 42.861098 -142.909851 
L 43.227432 -143.332591 
L 43.593766 -143.718726 
L 43.9601 -144.068299 
L 44.326434 -144.381378 
L 44.692769 -144.658052 
L 45.059103 -144.898433 
L 45.425437 -145.102654 
L 45.791771 -145.270869 
L 46.158105 -145.403254 
L 46.52444 -145.500005 
L 46.890774 -145.561339 
L 47.257108 -145.587491 
L 47.623442 -145.578718 
L 47.989776 -145.535293 
L 48.35611 -145.45751 
L 48.722445 -145.345679 
L 49.088779 -145.200128 
L 49.455113 -145.021203 
L 49.821447 -144.809266 
L 50.187781 -144.564695 
L 50.554115 -144.287883 
L 50.92045 -143.979238 
L 51.286784 -143.639183 
L 51.653118 -143.268156 
L 52.019452 -142.866606 
L 52.385786 -142.434997 
L 52.75212 -141.973806 
L 53.118455 -141.483518 
L 53.484789 -140.964634 
L 53.851123 -140.417664 
L 54.217457 -139.843126 
L 54.583791 -139.241551 
L 54.950125 -138.613478 
L 55.31646 -137.959455 
L 55.682794 -137.280037 
L 56.049128 -136.575788 
L 56.415462 -135.847277 
L 56.781796 -135.095083 
L 57.14813 -134.319787 
L 57.514465 -133.521979 
L 57.880799 -132.702251 
L 58.247133 -131.861202 
L 58.613467 -130.999434 
L 58.979801 -130.11755 
L 59.346135 -129.216161 
L 59.71247 -128.295876 
L 60.078804 -127.357308 
L 60.445138 -126.401071 
L 60.811472 -125.42778 
L 61.177806 -124.438051 
L 61.54414 -123.4325 
L 61.910475 -122.411742 
L 62.276809 -121.376392 
L 62.643143 -120.327063 
L 63.009477 -119.264368 
L 63.375811 -118.188916 
L 63.742145 -117.101314 
L 64.10848 -116.002167 
L 64.474814 -114.892076 
L 64.841148 -113.771639 
L 65.207482 -112.64145 
L 65.573816 -111.502098 
L 65.94015 -110.354168 
L 66.306485 -109.19824 
L 66.672819 -108.034888 
L 67.039153 -106.864682 
L 67.405487 -105.688183 
L 67.771821 -104.50595 
L 68.138156 -103.318533 
L 68.50449 -102.126474 
L 68.870824 -100.930311 
L 69.237158 -99.730572 
L 69.603492 -98.527781 
L 69.969826 -97.32245 
L 70.336161 -96.115086 
L 70.702495 -94.906188 
L 71.068829 -93.696244 
L 71.435163 -92.485737 
L 71.801497 -91.275139 
L 72.167831 -90.064914 
L 72.534166 -88.855517 
L 72.9005 -87.647393 
L 73.266834 -86.440979 
L 73.266834 0 
L 73.266834 0 
L 72.9005 0 
L 72.534166 0 
L 72.167831 0 
L 71.801497 0 
L 71.435163 0 
L 71.068829 0 
L 70.702495 0 
L 70.336161 0 
L 69.969826 0 
L 69.603492 0 
L 69.237158 0 
L 68.870824 0 
L 68.50449 0 
L 68.138156 0 
L 67.771821 0 
L 67.405487 0 
L 67.039153 0 
L 66.672819 0 
L 66.306485 0 
L 65.94015 0 
L 65.573816 0 
L 65.207482 0 
L 64.841148 0 
L 64.474814 0 
L 64.10848 0 
L 63.742145 0 
L 63.375811 0 
L 63.009477 0 
L 62.643143 0 
L 62.276809 0 
L 61.910475 0 
L 61.54414 0 
L 61.177806 0 
L 60.811472 0 
L 60.445138 0 
L 60.078804 0 
L 59.71247 0 
L 59.346135 0 
L 58.979801 0 
L 58.613467 0 
L 58.247133 0 
L 57.880799 0 
L 57.514465 0 
L 57.14813 0 
L 56.781796 0 
L 56.415462 0 
L 56.049128 0 
L 55.682794 0 
L 55.31646 0 
L 54.950125 0 
L 54.583791 0 
L 54.217457 0 
L 53.851123 0 
L 53.484789 0 
L 53.118455 0 
L 52.75212 0 
L 52.385786 0 
L 52.019452 0 
L 51.653118 0 
L 51.286784 0 
L 50.92045 0 
L 50.554115 0 
L 50.187781 0 
L 49.821447 0 
L 49.455113 0 
L 49.088779 0 
L 48.722445 0 
L 48.35611 0 
L 47.989776 0 
L 47.623442 0 
L 47.257108 0 
L 46.890774 0 
L 46.52444 0 
L 46.158105 0 
L 45.791771 0 
L 45.425437 0 
L 45.059103 0 
L 44.692769 0 
L 44.326434 0 
L 43.9601 0 
L 43.593766 0 
L 43.227432 0 
L 42.861098 0 
L 42.494764 0 
L 42.128429 0 
L 41.762095 0 
L 41.395761 0 
L 41.029427 0 
L 40.663093 0 
L 40.296759 0 
L 39.930424 0 
L 39.56409 0 
L 39.197756 0 
L 38.831422 0 
L 38.465088 0 
L 38.098754 0 
L 37.732419 0 
L 37.366085 0 
L 36.999751 0 
L 36.633417 0 
L 36.267083 0 
L 35.900749 0 
L 35.534414 0 
L 35.16808 0 
L 34.801746 0 
L 34.435412 0 
L 34.069078 0 
L 33.702744 0 
L 33.336409 0 
L 32.970075 0 
L 32.603741 0 
L 32.237407 0 
L 31.871073 0 
L 31.504739 0 
L 31.138404 0 
L 30.77207 0 
L 30.405736 0 
L 30.039402 0 
L 29.673068 0 
L 29.306734 0 
L 28.940399 0 
L 28.574065 0 
L 28.207731 0 
L 27.841397 0 
L 27.475063 0 
L 27.108729 0 
L 26.742394 0 
L 26.37606 0 
L 26.009726 0 
L 25.643392 0 
L 25.277058 0 
L 24.910724 0 
L 24.544389 0 
L 24.178055 0 
L 23.811721 0 
L 23.445387 0 
L 23.079053 0 
L 22.712719 0 
L 22.346384 0 
L 21.98005 0 
L 21.613716 0 
L 21.247382 0 
L 20.881048 0 
L 20.514713 0 
L 20.148379 0 
L 19.782045 0 
L 19.415711 0 
L 19.049377 0 
L 18.683043 0 
L 18.316708 0 
L 17.950374 0 
L 17.58404 0 
L 17.217706 0 
L 16.851372 0 
L 16.485038 0 
L 16.118703 0 
L 15.752369 0 
L 15.386035 0 
L 15.019701 0 
L 14.653367 0 
L 14.287033 0 
L 13.920698 0 
L 13.554364 0 
L 13.18803 0 
L 12.821696 0 
L 12.455362 0 
L 12.089028 0 
L 11.722693 0 
L 11.356359 0 
L 10.990025 0 
L 10.623691 0 
L 10.257357 0 
L 9.891023 0 
L 9.524688 0 
L 9.158354 0 
L 8.79202 0 
L 8.425686 0 
L 8.059352 0 
L 7.693018 0 
L 7.326683 0 
L 6.960349 0 
L 6.594015 0 
L 6.227681 0 
L 5.861347 0 
L 5.495013 0 
L 5.128678 0 
L 4.762344 0 
L 4.39601 0 
L 4.029676 0 
L 3.663342 0 
L 3.297008 0 
L 2.930673 0 
L 2.564339 0 
L 2.198005 0 
L 1.831671 0 
L 1.465337 0 
L 1.099003 0 
L 0.732668 0 
L 0.366334 0 
L 0 0 
z
" id="m7d7ff0383a" style="stroke:#d4925e;"/>
    </defs>
    <g clip-path="url(#p1063e656c8)">
     <use style="fill:#d4925e;stroke:#d4925e;" x="0.0" xlink:href="#m7d7ff0383a" y="223.2"/>
    </g>
   </g>
   <g id="PolyCollection_3">
    <path clip-path="url(#p1063e656c8)" d="M 0 223.2 
L 0 223.2 
L 1.116 223.152519 
L 2.232 223.010192 
L 3.348 222.773358 
L 4.464 222.442586 
L 5.58 222.018669 
L 6.696 221.502622 
L 7.812 220.895679 
L 8.928 220.19929 
L 10.044 219.415117 
L 11.16 218.545028 
L 12.276 217.591091 
L 13.392 216.555569 
L 14.508 215.440915 
L 15.624 214.249759 
L 16.74 212.984909 
L 17.856 211.649333 
L 18.972 210.246158 
L 20.088 208.778657 
L 21.204 207.250241 
L 22.32 205.664449 
L 23.436 204.024937 
L 24.552 202.335468 
L 25.668 200.599903 
L 26.784 198.822187 
L 27.9 197.00634 
L 29.016 195.156445 
L 30.132 193.276639 
L 31.248 191.371097 
L 32.364 189.444026 
L 33.48 187.499649 
L 34.596 185.542198 
L 35.712 183.575898 
L 36.828 181.604962 
L 37.944 179.633574 
L 39.06 177.665882 
L 40.176 175.705988 
L 41.292 173.757935 
L 42.408 171.825698 
L 43.524 169.913178 
L 44.64 168.024188 
L 45.756 166.162446 
L 46.872 164.331568 
L 47.988 162.535057 
L 49.104 160.776299 
L 50.22 159.058554 
L 51.336 157.384949 
L 52.452 155.758473 
L 53.568 154.18197 
L 54.684 152.658136 
L 55.8 151.189512 
L 56.916 149.778484 
L 58.032 148.427274 
L 59.148 147.13794 
L 60.264 145.912375 
L 61.38 144.752302 
L 62.496 143.659276 
L 63.612 142.634679 
L 64.728 141.679724 
L 65.844 140.795451 
L 66.96 139.982731 
L 68.076 139.242268 
L 69.192 138.574594 
L 70.308 137.98008 
L 71.424 137.458931 
L 72.54 137.011195 
L 73.656 136.63676 
L 74.772 136.335364 
L 75.888 136.106594 
L 77.004 135.949895 
L 78.12 135.864568 
L 79.236 135.849784 
L 80.352 135.90458 
L 81.468 136.027872 
L 82.584 136.218457 
L 83.7 136.475018 
L 84.816 136.796132 
L 85.932 137.180277 
L 87.048 137.625836 
L 88.164 138.131104 
L 89.28 138.694297 
L 90.396 139.313553 
L 91.512 139.986944 
L 92.628 140.712483 
L 93.744 141.488124 
L 94.86 142.311774 
L 95.976 143.1813 
L 97.092 144.094532 
L 98.208 145.049271 
L 99.324 146.043294 
L 100.44 147.074363 
L 101.556 148.140227 
L 102.672 149.238631 
L 103.788 150.367321 
L 104.904 151.524046 
L 106.02 152.706568 
L 107.136 153.912664 
L 108.252 155.140133 
L 109.368 156.386797 
L 110.484 157.650508 
L 111.6 158.929153 
L 112.716 160.220656 
L 113.832 161.522982 
L 114.948 162.834139 
L 116.064 164.152184 
L 117.18 165.475225 
L 118.296 166.801422 
L 119.412 168.128991 
L 120.528 169.456205 
L 121.644 170.781398 
L 122.76 172.102964 
L 123.876 173.41936 
L 124.992 174.729106 
L 126.108 176.030788 
L 127.224 177.323057 
L 128.34 178.604631 
L 129.456 179.874294 
L 130.572 181.130895 
L 131.688 182.373352 
L 132.804 183.600648 
L 133.92 184.811834 
L 135.036 186.006023 
L 136.152 187.182395 
L 137.268 188.340194 
L 138.384 189.478727 
L 139.5 190.597361 
L 140.616 191.695526 
L 141.732 192.772709 
L 142.848 193.828457 
L 143.964 194.862371 
L 145.08 195.874108 
L 146.196 196.863379 
L 147.312 197.829943 
L 148.428 198.773612 
L 149.544 199.694243 
L 150.66 200.59174 
L 151.776 201.466051 
L 152.892 202.317163 
L 154.008 203.145108 
L 155.124 203.949951 
L 156.24 204.731795 
L 157.356 205.490778 
L 158.472 206.227067 
L 159.588 206.940863 
L 160.704 207.632392 
L 161.82 208.301907 
L 162.936 208.949685 
L 164.052 209.576027 
L 165.168 210.181254 
L 166.284 210.765705 
L 167.4 211.329737 
L 168.516 211.873723 
L 169.632 212.398049 
L 170.748 212.903113 
L 171.864 213.389326 
L 172.98 213.857107 
L 174.096 214.306882 
L 175.212 214.739085 
L 176.328 215.154155 
L 177.444 215.552535 
L 178.56 215.934672 
L 179.676 216.301014 
L 180.792 216.652008 
L 181.908 216.988104 
L 183.024 217.309749 
L 184.14 217.617388 
L 185.256 217.911465 
L 186.372 218.192417 
L 187.488 218.46068 
L 188.604 218.716683 
L 189.72 218.960851 
L 190.836 219.193601 
L 191.952 219.415345 
L 193.068 219.626488 
L 194.184 219.827426 
L 195.3 220.018548 
L 196.416 220.200236 
L 197.532 220.372861 
L 198.648 220.536788 
L 199.764 220.692372 
L 200.88 220.839958 
L 201.996 220.979883 
L 203.112 221.112475 
L 204.228 221.238052 
L 205.344 221.356921 
L 206.46 221.469384 
L 207.576 221.575729 
L 208.692 221.676237 
L 209.808 221.771179 
L 210.924 221.860817 
L 212.04 221.945404 
L 213.156 222.025183 
L 214.272 222.100389 
L 215.388 222.171248 
L 216.504 222.237978 
L 217.62 222.300787 
L 218.736 222.359875 
L 219.852 222.415436 
L 220.968 222.467653 
L 222.084 222.516702 
L 223.2 222.562754 
L 224.316 222.605969 
L 225.432 222.646503 
L 226.548 222.684502 
L 227.664 222.720108 
L 228.78 222.753455 
L 229.896 222.78467 
L 231.012 222.813876 
L 232.128 222.841188 
L 233.244 222.866718 
L 234.36 222.890569 
L 235.476 222.912841 
L 236.592 222.933628 
L 237.708 222.95302 
L 238.824 222.971103 
L 239.94 222.987955 
L 241.056 223.003654 
L 242.172 223.018271 
L 243.288 223.031874 
L 244.404 223.044528 
L 245.52 223.056293 
L 246.636 223.067226 
L 247.752 223.077382 
L 248.868 223.08681 
L 249.984 223.09556 
L 251.1 223.103676 
L 252.216 223.1112 
L 253.332 223.118172 
L 254.448 223.12463 
L 255.564 223.130608 
L 256.68 223.136141 
L 257.796 223.141258 
L 258.912 223.145989 
L 260.028 223.15036 
L 261.144 223.154397 
L 262.26 223.158125 
L 263.376 223.161564 
L 264.492 223.164737 
L 265.608 223.167661 
L 266.724 223.170356 
L 267.84 223.172839 
L 268.956 223.175124 
L 270.072 223.177227 
L 271.188 223.179161 
L 272.304 223.180939 
L 273.42 223.182573 
L 274.536 223.184074 
L 275.652 223.185451 
L 276.768 223.186716 
L 277.884 223.187876 
L 279 223.188939 
L 280.116 223.189913 
L 281.232 223.190806 
L 282.348 223.191623 
L 283.464 223.192371 
L 284.58 223.193055 
L 285.696 223.19368 
L 286.812 223.194252 
L 287.928 223.194774 
L 289.044 223.195251 
L 290.16 223.195686 
L 291.276 223.196083 
L 292.392 223.196445 
L 293.508 223.196775 
L 294.624 223.197075 
L 295.74 223.197349 
L 296.856 223.197598 
L 297.972 223.197825 
L 299.088 223.198031 
L 300.204 223.198218 
L 301.32 223.198388 
L 302.436 223.198543 
L 303.552 223.198683 
L 304.668 223.19881 
L 305.784 223.198926 
L 306.9 223.19903 
L 308.016 223.199125 
L 309.132 223.199211 
L 310.248 223.199289 
L 311.364 223.199359 
L 312.48 223.199423 
L 313.596 223.199481 
L 314.712 223.199533 
L 315.828 223.19958 
L 316.944 223.199622 
L 318.06 223.19966 
L 319.176 223.199695 
L 320.292 223.199726 
L 321.408 223.199754 
L 322.524 223.199779 
L 323.64 223.199802 
L 324.756 223.199823 
L 325.872 223.199841 
L 326.988 223.199858 
L 328.104 223.199872 
L 329.22 223.199886 
L 330.336 223.199898 
L 331.452 223.199909 
L 332.568 223.199918 
L 333.684 223.199927 
L 334.8 223.199935 
L 334.8 223.2 
L 334.8 223.2 
L 333.684 223.2 
L 332.568 223.2 
L 331.452 223.2 
L 330.336 223.2 
L 329.22 223.2 
L 328.104 223.2 
L 326.988 223.2 
L 325.872 223.2 
L 324.756 223.2 
L 323.64 223.2 
L 322.524 223.2 
L 321.408 223.2 
L 320.292 223.2 
L 319.176 223.2 
L 318.06 223.2 
L 316.944 223.2 
L 315.828 223.2 
L 314.712 223.2 
L 313.596 223.2 
L 312.48 223.2 
L 311.364 223.2 
L 310.248 223.2 
L 309.132 223.2 
L 308.016 223.2 
L 306.9 223.2 
L 305.784 223.2 
L 304.668 223.2 
L 303.552 223.2 
L 302.436 223.2 
L 301.32 223.2 
L 300.204 223.2 
L 299.088 223.2 
L 297.972 223.2 
L 296.856 223.2 
L 295.74 223.2 
L 294.624 223.2 
L 293.508 223.2 
L 292.392 223.2 
L 291.276 223.2 
L 290.16 223.2 
L 289.044 223.2 
L 287.928 223.2 
L 286.812 223.2 
L 285.696 223.2 
L 284.58 223.2 
L 283.464 223.2 
L 282.348 223.2 
L 281.232 223.2 
L 280.116 223.2 
L 279 223.2 
L 277.884 223.2 
L 276.768 223.2 
L 275.652 223.2 
L 274.536 223.2 
L 273.42 223.2 
L 272.304 223.2 
L 271.188 223.2 
L 270.072 223.2 
L 268.956 223.2 
L 267.84 223.2 
L 266.724 223.2 
L 265.608 223.2 
L 264.492 223.2 
L 263.376 223.2 
L 262.26 223.2 
L 261.144 223.2 
L 260.028 223.2 
L 258.912 223.2 
L 257.796 223.2 
L 256.68 223.2 
L 255.564 223.2 
L 254.448 223.2 
L 253.332 223.2 
L 252.216 223.2 
L 251.1 223.2 
L 249.984 223.2 
L 248.868 223.2 
L 247.752 223.2 
L 246.636 223.2 
L 245.52 223.2 
L 244.404 223.2 
L 243.288 223.2 
L 242.172 223.2 
L 241.056 223.2 
L 239.94 223.2 
L 238.824 223.2 
L 237.708 223.2 
L 236.592 223.2 
L 235.476 223.2 
L 234.36 223.2 
L 233.244 223.2 
L 232.128 223.2 
L 231.012 223.2 
L 229.896 223.2 
L 228.78 223.2 
L 227.664 223.2 
L 226.548 223.2 
L 225.432 223.2 
L 224.316 223.2 
L 223.2 223.2 
L 222.084 223.2 
L 220.968 223.2 
L 219.852 223.2 
L 218.736 223.2 
L 217.62 223.2 
L 216.504 223.2 
L 215.388 223.2 
L 214.272 223.2 
L 213.156 223.2 
L 212.04 223.2 
L 210.924 223.2 
L 209.808 223.2 
L 208.692 223.2 
L 207.576 223.2 
L 206.46 223.2 
L 205.344 223.2 
L 204.228 223.2 
L 203.112 223.2 
L 201.996 223.2 
L 200.88 223.2 
L 199.764 223.2 
L 198.648 223.2 
L 197.532 223.2 
L 196.416 223.2 
L 195.3 223.2 
L 194.184 223.2 
L 193.068 223.2 
L 191.952 223.2 
L 190.836 223.2 
L 189.72 223.2 
L 188.604 223.2 
L 187.488 223.2 
L 186.372 223.2 
L 185.256 223.2 
L 184.14 223.2 
L 183.024 223.2 
L 181.908 223.2 
L 180.792 223.2 
L 179.676 223.2 
L 178.56 223.2 
L 177.444 223.2 
L 176.328 223.2 
L 175.212 223.2 
L 174.096 223.2 
L 172.98 223.2 
L 171.864 223.2 
L 170.748 223.2 
L 169.632 223.2 
L 168.516 223.2 
L 167.4 223.2 
L 166.284 223.2 
L 165.168 223.2 
L 164.052 223.2 
L 162.936 223.2 
L 161.82 223.2 
L 160.704 223.2 
L 159.588 223.2 
L 158.472 223.2 
L 157.356 223.2 
L 156.24 223.2 
L 155.124 223.2 
L 154.008 223.2 
L 152.892 223.2 
L 151.776 223.2 
L 150.66 223.2 
L 149.544 223.2 
L 148.428 223.2 
L 147.312 223.2 
L 146.196 223.2 
L 145.08 223.2 
L 143.964 223.2 
L 142.848 223.2 
L 141.732 223.2 
L 140.616 223.2 
L 139.5 223.2 
L 138.384 223.2 
L 137.268 223.2 
L 136.152 223.2 
L 135.036 223.2 
L 133.92 223.2 
L 132.804 223.2 
L 131.688 223.2 
L 130.572 223.2 
L 129.456 223.2 
L 128.34 223.2 
L 127.224 223.2 
L 126.108 223.2 
L 124.992 223.2 
L 123.876 223.2 
L 122.76 223.2 
L 121.644 223.2 
L 120.528 223.2 
L 119.412 223.2 
L 118.296 223.2 
L 117.18 223.2 
L 116.064 223.2 
L 114.948 223.2 
L 113.832 223.2 
L 112.716 223.2 
L 111.6 223.2 
L 110.484 223.2 
L 109.368 223.2 
L 108.252 223.2 
L 107.136 223.2 
L 106.02 223.2 
L 104.904 223.2 
L 103.788 223.2 
L 102.672 223.2 
L 101.556 223.2 
L 100.44 223.2 
L 99.324 223.2 
L 98.208 223.2 
L 97.092 223.2 
L 95.976 223.2 
L 94.86 223.2 
L 93.744 223.2 
L 92.628 223.2 
L 91.512 223.2 
L 90.396 223.2 
L 89.28 223.2 
L 88.164 223.2 
L 87.048 223.2 
L 85.932 223.2 
L 84.816 223.2 
L 83.7 223.2 
L 82.584 223.2 
L 81.468 223.2 
L 80.352 223.2 
L 79.236 223.2 
L 78.12 223.2 
L 77.004 223.2 
L 75.888 223.2 
L 74.772 223.2 
L 73.656 223.2 
L 72.54 223.2 
L 71.424 223.2 
L 70.308 223.2 
L 69.192 223.2 
L 68.076 223.2 
L 66.96 223.2 
L 65.844 223.2 
L 64.728 223.2 
L 63.612 223.2 
L 62.496 223.2 
L 61.38 223.2 
L 60.264 223.2 
L 59.148 223.2 
L 58.032 223.2 
L 56.916 223.2 
L 55.8 223.2 
L 54.684 223.2 
L 53.568 223.2 
L 52.452 223.2 
L 51.336 223.2 
L 50.22 223.2 
L 49.104 223.2 
L 47.988 223.2 
L 46.872 223.2 
L 45.756 223.2 
L 44.64 223.2 
L 43.524 223.2 
L 42.408 223.2 
L 41.292 223.2 
L 40.176 223.2 
L 39.06 223.2 
L 37.944 223.2 
L 36.828 223.2 
L 35.712 223.2 
L 34.596 223.2 
L 33.48 223.2 
L 32.364 223.2 
L 31.248 223.2 
L 30.132 223.2 
L 29.016 223.2 
L 27.9 223.2 
L 26.784 223.2 
L 25.668 223.2 
L 24.552 223.2 
L 23.436 223.2 
L 22.32 223.2 
L 21.204 223.2 
L 20.088 223.2 
L 18.972 223.2 
L 17.856 223.2 
L 16.74 223.2 
L 15.624 223.2 
L 14.508 223.2 
L 13.392 223.2 
L 12.276 223.2 
L 11.16 223.2 
L 10.044 223.2 
L 8.928 223.2 
L 7.812 223.2 
L 6.696 223.2 
L 5.58 223.2 
L 4.464 223.2 
L 3.348 223.2 
L 2.232 223.2 
L 1.116 223.2 
L 0 223.2 
z
" style="fill:#fec58b;stroke:#fec58b;"/>
   </g>
   <g id="PolyCollection_4">
    <defs>
     <path d="M 0 0 
L 0 0 
L 0.233535 -0.009628 
L 0.467071 -0.038507 
L 0.700606 -0.086631 
L 0.934142 -0.153985 
L 1.167677 -0.240548 
L 1.401213 -0.346297 
L 1.634748 -0.4712 
L 1.868284 -0.61522 
L 2.101819 -0.778316 
L 2.335355 -0.960439 
L 2.56889 -1.161538 
L 2.802425 -1.381553 
L 3.035961 -1.62042 
L 3.269496 -1.87807 
L 3.503032 -2.154427 
L 3.736567 -2.449411 
L 3.970103 -2.762936 
L 4.203638 -3.094912 
L 4.437174 -3.44524 
L 4.670709 -3.813821 
L 4.904244 -4.200545 
L 5.13778 -4.605302 
L 5.371315 -5.027974 
L 5.604851 -5.468437 
L 5.838386 -5.926565 
L 6.071922 -6.402225 
L 6.305457 -6.895278 
L 6.538993 -7.405582 
L 6.772528 -7.93299 
L 7.006064 -8.477349 
L 7.239599 -9.038502 
L 7.473134 -9.616286 
L 7.70667 -10.210536 
L 7.940205 -10.82108 
L 8.173741 -11.447743 
L 8.407276 -12.090343 
L 8.640812 -12.748697 
L 8.874347 -13.422615 
L 9.107883 -14.111904 
L 9.341418 -14.816366 
L 9.574953 -15.5358 
L 9.808489 -16.27 
L 10.042024 -17.018756 
L 10.27556 -17.781855 
L 10.509095 -18.559079 
L 10.742631 -19.350206 
L 10.976166 -20.155012 
L 11.209702 -20.973267 
L 11.443237 -21.804741 
L 11.676773 -22.649196 
L 11.910308 -23.506395 
L 12.143843 -24.376094 
L 12.377379 -25.258049 
L 12.610914 -26.15201 
L 12.84445 -27.057726 
L 13.077985 -27.974942 
L 13.311521 -28.903402 
L 13.545056 -29.842844 
L 13.778592 -30.793005 
L 14.012127 -31.753622 
L 14.245662 -32.724424 
L 14.479198 -33.705142 
L 14.712733 -34.695504 
L 14.946269 -35.695234 
L 15.179804 -36.704056 
L 15.41334 -37.721689 
L 15.646875 -38.747855 
L 15.880411 -39.782268 
L 16.113946 -40.824646 
L 16.347482 -41.874702 
L 16.581017 -42.932147 
L 16.814552 -43.996694 
L 17.048088 -45.068051 
L 17.281623 -46.145927 
L 17.515159 -47.230028 
L 17.748694 -48.320061 
L 17.98223 -49.415731 
L 18.215765 -50.516741 
L 18.449301 -51.622796 
L 18.682836 -52.733598 
L 18.916372 -53.848849 
L 19.149907 -54.968252 
L 19.383442 -56.091506 
L 19.616978 -57.218313 
L 19.850513 -58.348375 
L 20.084049 -59.481392 
L 20.317584 -60.617064 
L 20.55112 -61.755093 
L 20.784655 -62.895179 
L 21.018191 -64.037024 
L 21.251726 -65.18033 
L 21.485261 -66.324799 
L 21.718797 -67.470134 
L 21.952332 -68.616039 
L 22.185868 -69.762216 
L 22.419403 -70.908373 
L 22.652939 -72.054214 
L 22.886474 -73.199447 
L 23.12001 -74.34378 
L 23.353545 -75.486923 
L 23.587081 -76.628585 
L 23.820616 -77.76848 
L 24.054151 -78.906321 
L 24.287687 -80.041823 
L 24.521222 -81.174703 
L 24.754758 -82.304679 
L 24.988293 -83.431471 
L 25.221829 -84.554803 
L 25.455364 -85.674397 
L 25.6889 -86.789981 
L 25.922435 -87.901282 
L 26.15597 -89.008031 
L 26.389506 -90.109962 
L 26.623041 -91.206808 
L 26.856577 -92.298309 
L 27.090112 -93.384203 
L 27.323648 -94.464233 
L 27.557183 -95.538146 
L 27.790719 -96.605688 
L 28.024254 -97.666611 
L 28.25779 -98.720669 
L 28.491325 -99.767617 
L 28.72486 -100.807216 
L 28.958396 -101.839227 
L 29.191931 -102.863417 
L 29.425467 -103.879554 
L 29.659002 -104.88741 
L 29.892538 -105.886761 
L 30.126073 -106.877385 
L 30.359609 -107.859063 
L 30.593144 -108.831582 
L 30.82668 -109.794729 
L 31.060215 -110.748298 
L 31.29375 -111.692084 
L 31.527286 -112.625886 
L 31.760821 -113.549508 
L 31.994357 -114.462756 
L 32.227892 -115.365441 
L 32.461428 -116.257378 
L 32.694963 -117.138383 
L 32.928499 -118.00828 
L 33.162034 -118.866894 
L 33.395569 -119.714055 
L 33.629105 -120.549596 
L 33.86264 -121.373355 
L 34.096176 -122.185174 
L 34.329711 -122.984898 
L 34.563247 -123.772377 
L 34.796782 -124.547464 
L 35.030318 -125.310019 
L 35.263853 -126.059901 
L 35.497389 -126.796978 
L 35.730924 -127.521121 
L 35.964459 -128.232202 
L 36.197995 -128.930101 
L 36.43153 -129.6147 
L 36.665066 -130.285887 
L 36.898601 -130.943552 
L 37.132137 -131.587591 
L 37.365672 -132.217904 
L 37.599208 -132.834393 
L 37.832743 -133.436968 
L 38.066278 -134.02554 
L 38.299814 -134.600025 
L 38.533349 -135.160345 
L 38.766885 -135.706424 
L 39.00042 -136.238192 
L 39.233956 -136.755581 
L 39.467491 -137.258528 
L 39.701027 -137.746977 
L 39.934562 -138.220871 
L 40.168098 -138.680162 
L 40.401633 -139.124804 
L 40.635168 -139.554754 
L 40.868704 -139.969975 
L 41.102239 -140.370433 
L 41.335775 -140.7561 
L 41.56931 -141.126949 
L 41.802846 -141.48296 
L 42.036381 -141.824114 
L 42.269917 -142.150398 
L 42.503452 -142.461804 
L 42.736987 -142.758325 
L 42.970523 -143.039961 
L 43.204058 -143.306712 
L 43.437594 -143.558586 
L 43.671129 -143.795592 
L 43.904665 -144.017745 
L 44.1382 -144.225061 
L 44.371736 -144.417562 
L 44.605271 -144.595273 
L 44.838807 -144.758223 
L 45.072342 -144.906443 
L 45.305877 -145.039969 
L 45.539413 -145.158841 
L 45.772948 -145.263101 
L 46.006484 -145.352795 
L 46.240019 -145.427974 
L 46.473555 -145.488689 
L 46.70709 -145.534998 
L 46.70709 0 
L 46.70709 0 
L 46.473555 0 
L 46.240019 0 
L 46.006484 0 
L 45.772948 0 
L 45.539413 0 
L 45.305877 0 
L 45.072342 0 
L 44.838807 0 
L 44.605271 0 
L 44.371736 0 
L 44.1382 0 
L 43.904665 0 
L 43.671129 0 
L 43.437594 0 
L 43.204058 0 
L 42.970523 0 
L 42.736987 0 
L 42.503452 0 
L 42.269917 0 
L 42.036381 0 
L 41.802846 0 
L 41.56931 0 
L 41.335775 0 
L 41.102239 0 
L 40.868704 0 
L 40.635168 0 
L 40.401633 0 
L 40.168098 0 
L 39.934562 0 
L 39.701027 0 
L 39.467491 0 
L 39.233956 0 
L 39.00042 0 
L 38.766885 0 
L 38.533349 0 
L 38.299814 0 
L 38.066278 0 
L 37.832743 0 
L 37.599208 0 
L 37.365672 0 
L 37.132137 0 
L 36.898601 0 
L 36.665066 0 
L 36.43153 0 
L 36.197995 0 
L 35.964459 0 
L 35.730924 0 
L 35.497389 0 
L 35.263853 0 
L 35.030318 0 
L 34.796782 0 
L 34.563247 0 
L 34.329711 0 
L 34.096176 0 
L 33.86264 0 
L 33.629105 0 
L 33.395569 0 
L 33.162034 0 
L 32.928499 0 
L 32.694963 0 
L 32.461428 0 
L 32.227892 0 
L 31.994357 0 
L 31.760821 0 
L 31.527286 0 
L 31.29375 0 
L 31.060215 0 
L 30.82668 0 
L 30.593144 0 
L 30.359609 0 
L 30.126073 0 
L 29.892538 0 
L 29.659002 0 
L 29.425467 0 
L 29.191931 0 
L 28.958396 0 
L 28.72486 0 
L 28.491325 0 
L 28.25779 0 
L 28.024254 0 
L 27.790719 0 
L 27.557183 0 
L 27.323648 0 
L 27.090112 0 
L 26.856577 0 
L 26.623041 0 
L 26.389506 0 
L 26.15597 0 
L 25.922435 0 
L 25.6889 0 
L 25.455364 0 
L 25.221829 0 
L 24.988293 0 
L 24.754758 0 
L 24.521222 0 
L 24.287687 0 
L 24.054151 0 
L 23.820616 0 
L 23.587081 0 
L 23.353545 0 
L 23.12001 0 
L 22.886474 0 
L 22.652939 0 
L 22.419403 0 
L 22.185868 0 
L 21.952332 0 
L 21.718797 0 
L 21.485261 0 
L 21.251726 0 
L 21.018191 0 
L 20.784655 0 
L 20.55112 0 
L 20.317584 0 
L 20.084049 0 
L 19.850513 0 
L 19.616978 0 
L 19.383442 0 
L 19.149907 0 
L 18.916372 0 
L 18.682836 0 
L 18.449301 0 
L 18.215765 0 
L 17.98223 0 
L 17.748694 0 
L 17.515159 0 
L 17.281623 0 
L 17.048088 0 
L 16.814552 0 
L 16.581017 0 
L 16.347482 0 
L 16.113946 0 
L 15.880411 0 
L 15.646875 0 
L 15.41334 0 
L 15.179804 0 
L 14.946269 0 
L 14.712733 0 
L 14.479198 0 
L 14.245662 0 
L 14.012127 0 
L 13.778592 0 
L 13.545056 0 
L 13.311521 0 
L 13.077985 0 
L 12.84445 0 
L 12.610914 0 
L 12.377379 0 
L 12.143843 0 
L 11.910308 0 
L 11.676773 0 
L 11.443237 0 
L 11.209702 0 
L 10.976166 0 
L 10.742631 0 
L 10.509095 0 
L 10.27556 0 
L 10.042024 0 
L 9.808489 0 
L 9.574953 0 
L 9.341418 0 
L 9.107883 0 
L 8.874347 0 
L 8.640812 0 
L 8.407276 0 
L 8.173741 0 
L 7.940205 0 
L 7.70667 0 
L 7.473134 0 
L 7.239599 0 
L 7.006064 0 
L 6.772528 0 
L 6.538993 0 
L 6.305457 0 
L 6.071922 0 
L 5.838386 0 
L 5.604851 0 
L 5.371315 0 
L 5.13778 0 
L 4.904244 0 
L 4.670709 0 
L 4.437174 0 
L 4.203638 0 
L 3.970103 0 
L 3.736567 0 
L 3.503032 0 
L 3.269496 0 
L 3.035961 0 
L 2.802425 0 
L 2.56889 0 
L 2.335355 0 
L 2.101819 0 
L 1.868284 0 
L 1.634748 0 
L 1.401213 0 
L 1.167677 0 
L 0.934142 0 
L 0.700606 0 
L 0.467071 0 
L 0.233535 0 
L 0 0 
z
" id="m67d6db2621" style="stroke:#bf8454;"/>
    </defs>
    <g clip-path="url(#p1063e656c8)">
     <use style="fill:#bf8454;stroke:#bf8454;" x="0.0" xlink:href="#m67d6db2621" y="223.2"/>
    </g>
   </g>
   <g id="PolyCollection_5">
    <defs>
     <path d="M 46.70709 0 
L 46.70709 -145.534998 
L 47.477955 -139.810344 
L 48.248819 -134.080041 
L 49.019684 -128.365759 
L 49.790548 -122.687806 
L 50.561413 -117.065078 
L 51.332277 -111.515021 
L 52.103142 -106.053609 
L 52.874007 -100.695337 
L 53.644871 -95.453223 
L 54.415736 -90.338825 
L 55.1866 -85.362263 
L 55.957465 -80.53226 
L 56.728329 -75.856181 
L 57.499194 -71.340087 
L 58.270058 -66.98879 
L 59.040923 -62.805921 
L 59.811787 -58.793989 
L 60.582652 -54.954461 
L 61.353517 -51.287829 
L 62.124381 -47.793685 
L 62.895246 -44.470801 
L 63.66611 -41.317199 
L 64.436975 -38.330229 
L 65.207839 -35.506643 
L 65.978704 -32.842666 
L 66.749568 -30.334063 
L 67.520433 -27.97621 
L 68.291298 -25.764157 
L 69.062162 -23.692685 
L 69.833027 -21.756367 
L 70.603891 -19.949619 
L 71.374756 -18.266749 
L 72.14562 -16.702003 
L 72.916485 -15.249607 
L 73.687349 -13.903805 
L 74.458214 -12.658888 
L 75.229078 -11.509232 
L 75.999943 -10.449317 
L 76.770808 -9.473753 
L 77.541672 -8.5773 
L 78.312537 -7.754883 
L 79.083401 -7.001607 
L 79.854266 -6.312766 
L 80.62513 -5.68385 
L 81.395995 -5.110556 
L 82.166859 -4.588785 
L 82.937724 -4.114649 
L 83.708589 -3.684469 
L 84.479453 -3.294771 
L 85.250318 -2.942288 
L 86.021182 -2.623954 
L 86.792047 -2.336896 
L 87.562911 -2.078433 
L 88.333776 -1.846066 
L 89.10464 -1.637474 
L 89.875505 -1.450502 
L 90.646369 -1.283159 
L 91.417234 -1.133605 
L 92.188099 -1.000146 
L 92.958963 -0.881223 
L 93.729828 -0.775409 
L 94.500692 -0.681395 
L 95.271557 -0.597987 
L 96.042421 -0.524094 
L 96.813286 -0.458725 
L 97.58415 -0.40098 
L 98.355015 -0.350043 
L 99.12588 -0.305174 
L 99.896744 -0.265708 
L 100.667609 -0.231042 
L 101.438473 -0.200636 
L 102.209338 -0.174003 
L 102.980202 -0.150709 
L 103.751067 -0.130363 
L 104.521931 -0.112617 
L 105.292796 -0.09716 
L 106.06366 -0.083716 
L 106.834525 -0.072038 
L 107.60539 -0.061909 
L 108.376254 -0.053135 
L 109.147119 -0.045546 
L 109.917983 -0.03899 
L 110.688848 -0.033335 
L 111.459712 -0.028464 
L 112.230577 -0.024273 
L 113.001441 -0.020672 
L 113.772306 -0.017583 
L 114.54317 -0.014936 
L 115.314035 -0.012672 
L 116.0849 -0.010737 
L 116.855764 -0.009086 
L 117.626629 -0.007678 
L 118.397493 -0.006481 
L 119.168358 -0.005463 
L 119.939222 -0.0046 
L 120.710087 -0.003867 
L 121.480951 -0.003248 
L 122.251816 -0.002724 
L 123.022681 -0.002281 
L 123.793545 -0.001909 
L 124.56441 -0.001595 
L 125.335274 -0.001331 
L 126.106139 -0.001109 
L 126.877003 -0.000923 
L 127.647868 -0.000767 
L 128.418732 -0.000637 
L 129.189597 -0.000528 
L 129.960461 -0.000437 
L 130.731326 -0.000362 
L 131.502191 -0.000299 
L 132.273055 -0.000247 
L 133.04392 -0.000203 
L 133.814784 -0.000167 
L 134.585649 -0.000137 
L 135.356513 -0.000113 
L 136.127378 -0.000092 
L 136.898242 -0.000076 
L 137.669107 -0.000062 
L 138.439972 -0.000051 
L 139.210836 -0.000041 
L 139.981701 -0.000034 
L 140.752565 -0.000027 
L 141.52343 -0.000022 
L 142.294294 -0.000018 
L 143.065159 -0.000015 
L 143.836023 -0.000012 
L 144.606888 -0.00001 
L 145.377752 -0.000008 
L 146.148617 -0.000006 
L 146.919482 -0.000005 
L 147.690346 -0.000004 
L 148.461211 -0.000003 
L 149.232075 -0.000003 
L 150.00294 -0.000002 
L 150.773804 -0.000002 
L 151.544669 -0.000001 
L 152.315533 -0.000001 
L 153.086398 -0.000001 
L 153.857262 -0.000001 
L 154.628127 -0.000001 
L 155.398992 -0 
L 156.169856 -0 
L 156.940721 -0 
L 157.711585 -0 
L 158.48245 -0 
L 159.253314 -0 
L 160.024179 -0 
L 160.795043 -0 
L 161.565908 -0 
L 162.336773 -0 
L 163.107637 -0 
L 163.878502 -0 
L 164.649366 -0 
L 165.420231 -0 
L 166.191095 -0 
L 166.96196 -0 
L 167.732824 -0 
L 168.503689 -0 
L 169.274553 -0 
L 170.045418 -0 
L 170.816283 -0 
L 171.587147 -0 
L 172.358012 -0 
L 173.128876 -0 
L 173.899741 -0 
L 174.670605 -0 
L 175.44147 -0 
L 176.212334 -0 
L 176.983199 -0 
L 177.754064 -0 
L 178.524928 -0 
L 179.295793 -0 
L 180.066657 -0 
L 180.837522 -0 
L 181.608386 -0 
L 182.379251 -0 
L 183.150115 -0 
L 183.92098 -0 
L 184.691844 -0 
L 185.462709 -0 
L 186.233574 -0 
L 187.004438 -0 
L 187.775303 -0 
L 188.546167 -0 
L 189.317032 -0 
L 190.087896 -0 
L 190.858761 -0 
L 191.629625 -0 
L 192.40049 -0 
L 193.171355 -0 
L 193.942219 -0 
L 194.713084 -0 
L 195.483948 -0 
L 196.254813 -0 
L 197.025677 -0 
L 197.796542 -0 
L 198.567406 -0 
L 199.338271 -0 
L 200.109135 -0 
L 200.88 -0 
L 200.88 0 
L 200.88 0 
L 200.109135 0 
L 199.338271 0 
L 198.567406 0 
L 197.796542 0 
L 197.025677 0 
L 196.254813 0 
L 195.483948 0 
L 194.713084 0 
L 193.942219 0 
L 193.171355 0 
L 192.40049 0 
L 191.629625 0 
L 190.858761 0 
L 190.087896 0 
L 189.317032 0 
L 188.546167 0 
L 187.775303 0 
L 187.004438 0 
L 186.233574 0 
L 185.462709 0 
L 184.691844 0 
L 183.92098 0 
L 183.150115 0 
L 182.379251 0 
L 181.608386 0 
L 180.837522 0 
L 180.066657 0 
L 179.295793 0 
L 178.524928 0 
L 177.754064 0 
L 176.983199 0 
L 176.212334 0 
L 175.44147 0 
L 174.670605 0 
L 173.899741 0 
L 173.128876 0 
L 172.358012 0 
L 171.587147 0 
L 170.816283 0 
L 170.045418 0 
L 169.274553 0 
L 168.503689 0 
L 167.732824 0 
L 166.96196 0 
L 166.191095 0 
L 165.420231 0 
L 164.649366 0 
L 163.878502 0 
L 163.107637 0 
L 162.336773 0 
L 161.565908 0 
L 160.795043 0 
L 160.024179 0 
L 159.253314 0 
L 158.48245 0 
L 157.711585 0 
L 156.940721 0 
L 156.169856 0 
L 155.398992 0 
L 154.628127 0 
L 153.857262 0 
L 153.086398 0 
L 152.315533 0 
L 151.544669 0 
L 150.773804 0 
L 150.00294 0 
L 149.232075 0 
L 148.461211 0 
L 147.690346 0 
L 146.919482 0 
L 146.148617 0 
L 145.377752 0 
L 144.606888 0 
L 143.836023 0 
L 143.065159 0 
L 142.294294 0 
L 141.52343 0 
L 140.752565 0 
L 139.981701 0 
L 139.210836 0 
L 138.439972 0 
L 137.669107 0 
L 136.898242 0 
L 136.127378 0 
L 135.356513 0 
L 134.585649 0 
L 133.814784 0 
L 133.04392 0 
L 132.273055 0 
L 131.502191 0 
L 130.731326 0 
L 129.960461 0 
L 129.189597 0 
L 128.418732 0 
L 127.647868 0 
L 126.877003 0 
L 126.106139 0 
L 125.335274 0 
L 124.56441 0 
L 123.793545 0 
L 123.022681 0 
L 122.251816 0 
L 121.480951 0 
L 120.710087 0 
L 119.939222 0 
L 119.168358 0 
L 118.397493 0 
L 117.626629 0 
L 116.855764 0 
L 116.0849 0 
L 115.314035 0 
L 114.54317 0 
L 113.772306 0 
L 113.001441 0 
L 112.230577 0 
L 111.459712 0 
L 110.688848 0 
L 109.917983 0 
L 109.147119 0 
L 108.376254 0 
L 107.60539 0 
L 106.834525 0 
L 106.06366 0 
L 105.292796 0 
L 104.521931 0 
L 103.751067 0 
L 102.980202 0 
L 102.209338 0 
L 101.438473 0 
L 100.667609 0 
L 99.896744 0 
L 99.12588 0 
L 98.355015 0 
L 97.58415 0 
L 96.813286 0 
L 96.042421 0 
L 95.271557 0 
L 94.500692 0 
L 93.729828 0 
L 92.958963 0 
L 92.188099 0 
L 91.417234 0 
L 90.646369 0 
L 89.875505 0 
L 89.10464 0 
L 88.333776 0 
L 87.562911 0 
L 86.792047 0 
L 86.021182 0 
L 85.250318 0 
L 84.479453 0 
L 83.708589 0 
L 82.937724 0 
L 82.166859 0 
L 81.395995 0 
L 80.62513 0 
L 79.854266 0 
L 79.083401 0 
L 78.312537 0 
L 77.541672 0 
L 76.770808 0 
L 75.999943 0 
L 75.229078 0 
L 74.458214 0 
L 73.687349 0 
L 72.916485 0 
L 72.14562 0 
L 71.374756 0 
L 70.603891 0 
L 69.833027 0 
L 69.062162 0 
L 68.291298 0 
L 67.520433 0 
L 66.749568 0 
L 65.978704 0 
L 65.207839 0 
L 64.436975 0 
L 63.66611 0 
L 62.895246 0 
L 62.124381 0 
L 61.353517 0 
L 60.582652 0 
L 59.811787 0 
L 59.040923 0 
L 58.270058 0 
L 57.499194 0 
L 56.728329 0 
L 55.957465 0 
L 55.1866 0 
L 54.415736 0 
L 53.644871 0 
L 52.874007 0 
L 52.103142 0 
L 51.332277 0 
L 50.561413 0 
L 49.790548 0 
L 49.019684 0 
L 48.248819 0 
L 47.477955 0 
L 46.70709 0 
z
" id="m7f360607e4" style="stroke:#bf8454;"/>
    </defs>
    <g clip-path="url(#p1063e656c8)">
     <use style="fill:#bf8454;stroke:#bf8454;" x="0.0" xlink:href="#m7f360607e4" y="223.2"/>
    </g>
   </g>
   <g id="PolyCollection_6">
    <defs>
     <path d="M 0 0 
L 0 0 
L 0.366334 -0.005117 
L 0.732668 -0.020467 
L 1.099003 -0.046046 
L 1.465337 -0.081846 
L 1.831671 -0.12786 
L 2.198005 -0.184075 
L 2.564339 -0.250476 
L 2.930673 -0.327047 
L 3.297008 -0.413767 
L 3.663342 -0.510615 
L 4.029676 -0.617565 
L 4.39601 -0.734589 
L 4.762344 -0.861657 
L 5.128678 -0.998737 
L 5.495013 -1.145793 
L 5.861347 -1.302787 
L 6.227681 -1.469679 
L 6.594015 -1.646425 
L 6.960349 -1.832981 
L 7.326683 -2.029298 
L 7.693018 -2.235325 
L 8.059352 -2.451009 
L 8.425686 -2.676296 
L 8.79202 -2.911126 
L 9.158354 -3.15544 
L 9.524688 -3.409175 
L 9.891023 -3.672266 
L 10.257357 -3.944644 
L 10.623691 -4.226242 
L 10.990025 -4.516985 
L 11.356359 -4.8168 
L 11.722693 -5.12561 
L 12.089028 -5.443336 
L 12.455362 -5.769896 
L 12.821696 -6.105208 
L 13.18803 -6.449186 
L 13.554364 -6.801741 
L 13.920698 -7.162785 
L 14.287033 -7.532225 
L 14.653367 -7.909967 
L 15.019701 -8.295915 
L 15.386035 -8.689971 
L 15.752369 -9.092035 
L 16.118703 -9.502006 
L 16.485038 -9.919779 
L 16.851372 -10.345249 
L 17.217706 -10.778308 
L 17.58404 -11.218847 
L 17.950374 -11.666755 
L 18.316708 -12.121918 
L 18.683043 -12.584223 
L 19.049377 -13.053553 
L 19.415711 -13.529791 
L 19.782045 -14.012816 
L 20.148379 -14.502508 
L 20.514713 -14.998745 
L 20.881048 -15.501402 
L 21.247382 -16.010354 
L 21.613716 -16.525475 
L 21.98005 -17.046635 
L 22.346384 -17.573707 
L 22.712719 -18.106558 
L 23.079053 -18.645057 
L 23.445387 -19.18907 
L 23.811721 -19.738464 
L 24.178055 -20.293103 
L 24.544389 -20.85285 
L 24.910724 -21.417567 
L 25.277058 -21.987116 
L 25.643392 -22.561358 
L 26.009726 -23.140152 
L 26.37606 -23.723356 
L 26.742394 -24.310829 
L 27.108729 -24.902427 
L 27.475063 -25.498007 
L 27.841397 -26.097424 
L 28.207731 -26.700534 
L 28.574065 -27.30719 
L 28.940399 -27.917247 
L 29.306734 -28.530558 
L 29.673068 -29.146975 
L 30.039402 -29.766351 
L 30.405736 -30.388538 
L 30.77207 -31.013387 
L 31.138404 -31.64075 
L 31.504739 -32.270477 
L 31.871073 -32.90242 
L 32.237407 -33.536429 
L 32.603741 -34.172354 
L 32.970075 -34.810046 
L 33.336409 -35.449355 
L 33.702744 -36.090132 
L 34.069078 -36.732226 
L 34.435412 -37.375489 
L 34.801746 -38.01977 
L 35.16808 -38.664921 
L 35.534414 -39.310792 
L 35.900749 -39.957235 
L 36.267083 -40.6041 
L 36.633417 -41.25124 
L 36.999751 -41.898507 
L 37.366085 -42.545754 
L 37.732419 -43.192832 
L 38.098754 -43.839596 
L 38.465088 -44.4859 
L 38.831422 -45.131599 
L 39.197756 -45.776546 
L 39.56409 -46.420599 
L 39.930424 -47.063614 
L 40.296759 -47.705447 
L 40.663093 -48.345957 
L 41.029427 -48.985003 
L 41.395761 -49.622444 
L 41.762095 -50.258141 
L 42.128429 -50.891954 
L 42.494764 -51.523747 
L 42.861098 -52.153383 
L 43.227432 -52.780725 
L 43.593766 -53.405639 
L 43.9601 -54.027992 
L 44.326434 -54.647651 
L 44.692769 -55.264485 
L 45.059103 -55.878363 
L 45.425437 -56.489156 
L 45.791771 -57.096737 
L 46.158105 -57.700979 
L 46.52444 -58.301757 
L 46.890774 -58.898948 
L 47.257108 -59.492428 
L 47.623442 -60.082076 
L 47.989776 -60.667773 
L 48.35611 -61.249401 
L 48.722445 -61.826842 
L 49.088779 -62.399982 
L 49.455113 -62.968706 
L 49.821447 -63.532902 
L 50.187781 -64.092459 
L 50.554115 -64.647269 
L 50.92045 -65.197223 
L 51.286784 -65.742216 
L 51.653118 -66.282144 
L 52.019452 -66.816903 
L 52.385786 -67.346394 
L 52.75212 -67.870516 
L 53.118455 -68.389173 
L 53.484789 -68.902268 
L 53.851123 -69.409708 
L 54.217457 -69.9114 
L 54.583791 -70.407255 
L 54.950125 -70.897183 
L 55.31646 -71.381098 
L 55.682794 -71.858914 
L 56.049128 -72.33055 
L 56.415462 -72.795924 
L 56.781796 -73.254955 
L 57.14813 -73.707568 
L 57.514465 -74.153687 
L 57.880799 -74.593237 
L 58.247133 -75.026148 
L 58.613467 -75.45235 
L 58.979801 -75.871774 
L 59.346135 -76.284355 
L 59.71247 -76.690029 
L 60.078804 -77.088735 
L 60.445138 -77.480412 
L 60.811472 -77.865002 
L 61.177806 -78.242449 
L 61.54414 -78.612699 
L 61.910475 -78.975701 
L 62.276809 -79.331404 
L 62.643143 -79.67976 
L 63.009477 -80.020722 
L 63.375811 -80.354248 
L 63.742145 -80.680294 
L 64.10848 -80.998821 
L 64.474814 -81.309791 
L 64.841148 -81.613166 
L 65.207482 -81.908914 
L 65.573816 -82.197001 
L 65.94015 -82.477398 
L 66.306485 -82.750077 
L 66.672819 -83.01501 
L 67.039153 -83.272174 
L 67.405487 -83.521547 
L 67.771821 -83.763107 
L 68.138156 -83.996837 
L 68.50449 -84.222719 
L 68.870824 -84.440739 
L 69.237158 -84.650885 
L 69.603492 -84.853145 
L 69.969826 -85.04751 
L 70.336161 -85.233973 
L 70.702495 -85.41253 
L 71.068829 -85.583176 
L 71.435163 -85.745911 
L 71.801497 -85.900734 
L 72.167831 -86.047647 
L 72.534166 -86.186655 
L 72.9005 -86.317763 
L 73.266834 -86.440979 
L 73.266834 0 
L 73.266834 0 
L 72.9005 0 
L 72.534166 0 
L 72.167831 0 
L 71.801497 0 
L 71.435163 0 
L 71.068829 0 
L 70.702495 0 
L 70.336161 0 
L 69.969826 0 
L 69.603492 0 
L 69.237158 0 
L 68.870824 0 
L 68.50449 0 
L 68.138156 0 
L 67.771821 0 
L 67.405487 0 
L 67.039153 0 
L 66.672819 0 
L 66.306485 0 
L 65.94015 0 
L 65.573816 0 
L 65.207482 0 
L 64.841148 0 
L 64.474814 0 
L 64.10848 0 
L 63.742145 0 
L 63.375811 0 
L 63.009477 0 
L 62.643143 0 
L 62.276809 0 
L 61.910475 0 
L 61.54414 0 
L 61.177806 0 
L 60.811472 0 
L 60.445138 0 
L 60.078804 0 
L 59.71247 0 
L 59.346135 0 
L 58.979801 0 
L 58.613467 0 
L 58.247133 0 
L 57.880799 0 
L 57.514465 0 
L 57.14813 0 
L 56.781796 0 
L 56.415462 0 
L 56.049128 0 
L 55.682794 0 
L 55.31646 0 
L 54.950125 0 
L 54.583791 0 
L 54.217457 0 
L 53.851123 0 
L 53.484789 0 
L 53.118455 0 
L 52.75212 0 
L 52.385786 0 
L 52.019452 0 
L 51.653118 0 
L 51.286784 0 
L 50.92045 0 
L 50.554115 0 
L 50.187781 0 
L 49.821447 0 
L 49.455113 0 
L 49.088779 0 
L 48.722445 0 
L 48.35611 0 
L 47.989776 0 
L 47.623442 0 
L 47.257108 0 
L 46.890774 0 
L 46.52444 0 
L 46.158105 0 
L 45.791771 0 
L 45.425437 0 
L 45.059103 0 
L 44.692769 0 
L 44.326434 0 
L 43.9601 0 
L 43.593766 0 
L 43.227432 0 
L 42.861098 0 
L 42.494764 0 
L 42.128429 0 
L 41.762095 0 
L 41.395761 0 
L 41.029427 0 
L 40.663093 0 
L 40.296759 0 
L 39.930424 0 
L 39.56409 0 
L 39.197756 0 
L 38.831422 0 
L 38.465088 0 
L 38.098754 0 
L 37.732419 0 
L 37.366085 0 
L 36.999751 0 
L 36.633417 0 
L 36.267083 0 
L 35.900749 0 
L 35.534414 0 
L 35.16808 0 
L 34.801746 0 
L 34.435412 0 
L 34.069078 0 
L 33.702744 0 
L 33.336409 0 
L 32.970075 0 
L 32.603741 0 
L 32.237407 0 
L 31.871073 0 
L 31.504739 0 
L 31.138404 0 
L 30.77207 0 
L 30.405736 0 
L 30.039402 0 
L 29.673068 0 
L 29.306734 0 
L 28.940399 0 
L 28.574065 0 
L 28.207731 0 
L 27.841397 0 
L 27.475063 0 
L 27.108729 0 
L 26.742394 0 
L 26.37606 0 
L 26.009726 0 
L 25.643392 0 
L 25.277058 0 
L 24.910724 0 
L 24.544389 0 
L 24.178055 0 
L 23.811721 0 
L 23.445387 0 
L 23.079053 0 
L 22.712719 0 
L 22.346384 0 
L 21.98005 0 
L 21.613716 0 
L 21.247382 0 
L 20.881048 0 
L 20.514713 0 
L 20.148379 0 
L 19.782045 0 
L 19.415711 0 
L 19.049377 0 
L 18.683043 0 
L 18.316708 0 
L 17.950374 0 
L 17.58404 0 
L 17.217706 0 
L 16.851372 0 
L 16.485038 0 
L 16.118703 0 
L 15.752369 0 
L 15.386035 0 
L 15.019701 0 
L 14.653367 0 
L 14.287033 0 
L 13.920698 0 
L 13.554364 0 
L 13.18803 0 
L 12.821696 0 
L 12.455362 0 
L 12.089028 0 
L 11.722693 0 
L 11.356359 0 
L 10.990025 0 
L 10.623691 0 
L 10.257357 0 
L 9.891023 0 
L 9.524688 0 
L 9.158354 0 
L 8.79202 0 
L 8.425686 0 
L 8.059352 0 
L 7.693018 0 
L 7.326683 0 
L 6.960349 0 
L 6.594015 0 
L 6.227681 0 
L 5.861347 0 
L 5.495013 0 
L 5.128678 0 
L 4.762344 0 
L 4.39601 0 
L 4.029676 0 
L 3.663342 0 
L 3.297008 0 
L 2.930673 0 
L 2.564339 0 
L 2.198005 0 
L 1.831671 0 
L 1.465337 0 
L 1.099003 0 
L 0.732668 0 
L 0.366334 0 
L 0 0 
z
" id="mc19fa13fdb" style="stroke:#e5b27e;"/>
    </defs>
    <g clip-path="url(#p1063e656c8)">
     <use style="fill:#e5b27e;stroke:#e5b27e;" x="0.0" xlink:href="#mc19fa13fdb" y="223.2"/>
    </g>
   </g>
   <g id="PolyCollection_7">
    <defs>
     <path d="M 73.266834 0 
L 73.266834 -86.440979 
L 73.9049 -84.345049 
L 74.542966 -82.257787 
L 75.181031 -80.181294 
L 75.819097 -78.117583 
L 76.457163 -76.068574 
L 77.095229 -74.036097 
L 77.733295 -72.02189 
L 78.371361 -70.027601 
L 79.009426 -68.054785 
L 79.647492 -66.104906 
L 80.285558 -64.179337 
L 80.923624 -62.279363 
L 81.56169 -60.406177 
L 82.199756 -58.560886 
L 82.837821 -56.74451 
L 83.475887 -54.957983 
L 84.113953 -53.202156 
L 84.752019 -51.477797 
L 85.390085 -49.785595 
L 86.02815 -48.126159 
L 86.666216 -46.500025 
L 87.304282 -44.907652 
L 87.942348 -43.349427 
L 88.580414 -41.825671 
L 89.21848 -40.336635 
L 89.856545 -38.882505 
L 90.494611 -37.463407 
L 91.132677 -36.079407 
L 91.770743 -34.730511 
L 92.408809 -33.416675 
L 93.046875 -32.1378 
L 93.68494 -30.893739 
L 94.323006 -29.684296 
L 94.961072 -28.509234 
L 95.599138 -27.368273 
L 96.237204 -26.261093 
L 96.87527 -25.187339 
L 97.513335 -24.14662 
L 98.151401 -23.138514 
L 98.789467 -22.162572 
L 99.427533 -21.218313 
L 100.065599 -20.305236 
L 100.703665 -19.422815 
L 101.34173 -18.570504 
L 101.979796 -17.747739 
L 102.617862 -16.95394 
L 103.255928 -16.188512 
L 103.893994 -15.450847 
L 104.53206 -14.740329 
L 105.170125 -14.056329 
L 105.808191 -13.398216 
L 106.446257 -12.765349 
L 107.084323 -12.157085 
L 107.722389 -11.572779 
L 108.360455 -11.011783 
L 108.99852 -10.47345 
L 109.636586 -9.957134 
L 110.274652 -9.462193 
L 110.912718 -8.987987 
L 111.550784 -8.533881 
L 112.18885 -8.099245 
L 112.826915 -7.683458 
L 113.464981 -7.285902 
L 114.103047 -6.905971 
L 114.741113 -6.543065 
L 115.379179 -6.196596 
L 116.017245 -5.865982 
L 116.65531 -5.550657 
L 117.293376 -5.250059 
L 117.931442 -4.963644 
L 118.569508 -4.690875 
L 119.207574 -4.431229 
L 119.84564 -4.184196 
L 120.483705 -3.949275 
L 121.121771 -3.725981 
L 121.759837 -3.51384 
L 122.397903 -3.312393 
L 123.035969 -3.121191 
L 123.674034 -2.939799 
L 124.3121 -2.767797 
L 124.950166 -2.604774 
L 125.588232 -2.450336 
L 126.226298 -2.304098 
L 126.864364 -2.16569 
L 127.502429 -2.034755 
L 128.140495 -1.910945 
L 128.778561 -1.793929 
L 129.416627 -1.683383 
L 130.054693 -1.579 
L 130.692759 -1.480479 
L 131.330824 -1.387536 
L 131.96889 -1.299894 
L 132.606956 -1.217289 
L 133.245022 -1.139466 
L 133.883088 -1.066182 
L 134.521154 -0.997204 
L 135.159219 -0.932308 
L 135.797285 -0.87128 
L 136.435351 -0.813915 
L 137.073417 -0.760018 
L 137.711483 -0.709401 
L 138.349549 -0.661886 
L 138.987614 -0.617303 
L 139.62568 -0.57549 
L 140.263746 -0.536292 
L 140.901812 -0.499562 
L 141.539878 -0.465159 
L 142.177944 -0.432951 
L 142.816009 -0.40281 
L 143.454075 -0.374616 
L 144.092141 -0.348256 
L 144.730207 -0.32362 
L 145.368273 -0.300606 
L 146.006339 -0.279116 
L 146.644404 -0.259059 
L 147.28247 -0.240346 
L 147.920536 -0.222896 
L 148.558602 -0.20663 
L 149.196668 -0.191475 
L 149.834734 -0.17736 
L 150.472799 -0.16422 
L 151.110865 -0.151993 
L 151.748931 -0.14062 
L 152.386997 -0.130046 
L 153.025063 -0.12022 
L 153.663129 -0.111091 
L 154.301194 -0.102615 
L 154.93926 -0.094748 
L 155.577326 -0.08745 
L 156.215392 -0.080681 
L 156.853458 -0.074407 
L 157.491524 -0.068594 
L 158.129589 -0.06321 
L 158.767655 -0.058225 
L 159.405721 -0.053613 
L 160.043787 -0.049346 
L 160.681853 -0.045401 
L 161.319919 -0.041754 
L 161.957984 -0.038386 
L 162.59605 -0.035275 
L 163.234116 -0.032404 
L 163.872182 -0.029754 
L 164.510248 -0.027311 
L 165.148313 -0.025058 
L 165.786379 -0.022982 
L 166.424445 -0.02107 
L 167.062511 -0.019309 
L 167.700577 -0.017689 
L 168.338643 -0.016198 
L 168.976708 -0.014827 
L 169.614774 -0.013567 
L 170.25284 -0.012409 
L 170.890906 -0.011345 
L 171.528972 -0.010368 
L 172.167038 -0.009472 
L 172.805103 -0.00865 
L 173.443169 -0.007896 
L 174.081235 -0.007205 
L 174.719301 -0.006572 
L 175.357367 -0.005993 
L 175.995433 -0.005462 
L 176.633498 -0.004976 
L 177.271564 -0.004532 
L 177.90963 -0.004126 
L 178.547696 -0.003754 
L 179.185762 -0.003415 
L 179.823828 -0.003106 
L 180.461893 -0.002823 
L 181.099959 -0.002565 
L 181.738025 -0.002329 
L 182.376091 -0.002115 
L 183.014157 -0.001919 
L 183.652223 -0.001741 
L 184.290288 -0.001579 
L 184.928354 -0.001431 
L 185.56642 -0.001297 
L 186.204486 -0.001175 
L 186.842552 -0.001064 
L 187.480618 -0.000963 
L 188.118683 -0.000871 
L 188.756749 -0.000788 
L 189.394815 -0.000712 
L 190.032881 -0.000644 
L 190.670947 -0.000581 
L 191.309013 -0.000525 
L 191.947078 -0.000474 
L 192.585144 -0.000428 
L 193.22321 -0.000386 
L 193.861276 -0.000348 
L 194.499342 -0.000313 
L 195.137408 -0.000282 
L 195.775473 -0.000254 
L 196.413539 -0.000229 
L 197.051605 -0.000206 
L 197.689671 -0.000185 
L 198.327737 -0.000167 
L 198.965803 -0.00015 
L 199.603868 -0.000135 
L 200.241934 -0.000121 
L 200.88 -0.000108 
L 200.88 0 
L 200.88 0 
L 200.241934 0 
L 199.603868 0 
L 198.965803 0 
L 198.327737 0 
L 197.689671 0 
L 197.051605 0 
L 196.413539 0 
L 195.775473 0 
L 195.137408 0 
L 194.499342 0 
L 193.861276 0 
L 193.22321 0 
L 192.585144 0 
L 191.947078 0 
L 191.309013 0 
L 190.670947 0 
L 190.032881 0 
L 189.394815 0 
L 188.756749 0 
L 188.118683 0 
L 187.480618 0 
L 186.842552 0 
L 186.204486 0 
L 185.56642 0 
L 184.928354 0 
L 184.290288 0 
L 183.652223 0 
L 183.014157 0 
L 182.376091 0 
L 181.738025 0 
L 181.099959 0 
L 180.461893 0 
L 179.823828 0 
L 179.185762 0 
L 178.547696 0 
L 177.90963 0 
L 177.271564 0 
L 176.633498 0 
L 175.995433 0 
L 175.357367 0 
L 174.719301 0 
L 174.081235 0 
L 173.443169 0 
L 172.805103 0 
L 172.167038 0 
L 171.528972 0 
L 170.890906 0 
L 170.25284 0 
L 169.614774 0 
L 168.976708 0 
L 168.338643 0 
L 167.700577 0 
L 167.062511 0 
L 166.424445 0 
L 165.786379 0 
L 165.148313 0 
L 164.510248 0 
L 163.872182 0 
L 163.234116 0 
L 162.59605 0 
L 161.957984 0 
L 161.319919 0 
L 160.681853 0 
L 160.043787 0 
L 159.405721 0 
L 158.767655 0 
L 158.129589 0 
L 157.491524 0 
L 156.853458 0 
L 156.215392 0 
L 155.577326 0 
L 154.93926 0 
L 154.301194 0 
L 153.663129 0 
L 153.025063 0 
L 152.386997 0 
L 151.748931 0 
L 151.110865 0 
L 150.472799 0 
L 149.834734 0 
L 149.196668 0 
L 148.558602 0 
L 147.920536 0 
L 147.28247 0 
L 146.644404 0 
L 146.006339 0 
L 145.368273 0 
L 144.730207 0 
L 144.092141 0 
L 143.454075 0 
L 142.816009 0 
L 142.177944 0 
L 141.539878 0 
L 140.901812 0 
L 140.263746 0 
L 139.62568 0 
L 138.987614 0 
L 138.349549 0 
L 137.711483 0 
L 137.073417 0 
L 136.435351 0 
L 135.797285 0 
L 135.159219 0 
L 134.521154 0 
L 133.883088 0 
L 133.245022 0 
L 132.606956 0 
L 131.96889 0 
L 131.330824 0 
L 130.692759 0 
L 130.054693 0 
L 129.416627 0 
L 128.778561 0 
L 128.140495 0 
L 127.502429 0 
L 126.864364 0 
L 126.226298 0 
L 125.588232 0 
L 124.950166 0 
L 124.3121 0 
L 123.674034 0 
L 123.035969 0 
L 122.397903 0 
L 121.759837 0 
L 121.121771 0 
L 120.483705 0 
L 119.84564 0 
L 119.207574 0 
L 118.569508 0 
L 117.931442 0 
L 117.293376 0 
L 116.65531 0 
L 116.017245 0 
L 115.379179 0 
L 114.741113 0 
L 114.103047 0 
L 113.464981 0 
L 112.826915 0 
L 112.18885 0 
L 111.550784 0 
L 110.912718 0 
L 110.274652 0 
L 109.636586 0 
L 108.99852 0 
L 108.360455 0 
L 107.722389 0 
L 107.084323 0 
L 106.446257 0 
L 105.808191 0 
L 105.170125 0 
L 104.53206 0 
L 103.893994 0 
L 103.255928 0 
L 102.617862 0 
L 101.979796 0 
L 101.34173 0 
L 100.703665 0 
L 100.065599 0 
L 99.427533 0 
L 98.789467 0 
L 98.151401 0 
L 97.513335 0 
L 96.87527 0 
L 96.237204 0 
L 95.599138 0 
L 94.961072 0 
L 94.323006 0 
L 93.68494 0 
L 93.046875 0 
L 92.408809 0 
L 91.770743 0 
L 91.132677 0 
L 90.494611 0 
L 89.856545 0 
L 89.21848 0 
L 88.580414 0 
L 87.942348 0 
L 87.304282 0 
L 86.666216 0 
L 86.02815 0 
L 85.390085 0 
L 84.752019 0 
L 84.113953 0 
L 83.475887 0 
L 82.837821 0 
L 82.199756 0 
L 81.56169 0 
L 80.923624 0 
L 80.285558 0 
L 79.647492 0 
L 79.009426 0 
L 78.371361 0 
L 77.733295 0 
L 77.095229 0 
L 76.457163 0 
L 75.819097 0 
L 75.181031 0 
L 74.542966 0 
L 73.9049 0 
L 73.266834 0 
z
" id="m6937c1f757" style="stroke:#e5b27e;"/>
    </defs>
    <g clip-path="url(#p1063e656c8)">
     <use style="fill:#e5b27e;stroke:#e5b27e;" x="0.0" xlink:href="#m6937c1f757" y="223.2"/>
    </g>
   </g>
   <g id="PolyCollection_8">
    <defs>
     <path d="M 0 0 
L 0 0 
L 0.285507 -0.003108 
L 0.571014 -0.012432 
L 0.856521 -0.02797 
L 1.142028 -0.049721 
L 1.427535 -0.077679 
L 1.713042 -0.111842 
L 1.998549 -0.152204 
L 2.284056 -0.198758 
L 2.569563 -0.251497 
L 2.85507 -0.310413 
L 3.140577 -0.375496 
L 3.426084 -0.446737 
L 3.711592 -0.524124 
L 3.997099 -0.607645 
L 4.282606 -0.697287 
L 4.568113 -0.793036 
L 4.85362 -0.894877 
L 5.139127 -1.002793 
L 5.424634 -1.116769 
L 5.710141 -1.236785 
L 5.995648 -1.362824 
L 6.281155 -1.494866 
L 6.566662 -1.632889 
L 6.852169 -1.776872 
L 7.137676 -1.926794 
L 7.423183 -2.082629 
L 7.70869 -2.244355 
L 7.994197 -2.411945 
L 8.279704 -2.585373 
L 8.565211 -2.764613 
L 8.850718 -2.949636 
L 9.136225 -3.140414 
L 9.421732 -3.336916 
L 9.707239 -3.539113 
L 9.992746 -3.746971 
L 10.278253 -3.96046 
L 10.563761 -4.179546 
L 10.849268 -4.404195 
L 11.134775 -4.634371 
L 11.420282 -4.870039 
L 11.705789 -5.111163 
L 11.991296 -5.357704 
L 12.276803 -5.609625 
L 12.56231 -5.866887 
L 12.847817 -6.129449 
L 13.133324 -6.397271 
L 13.418831 -6.670311 
L 13.704338 -6.948528 
L 13.989845 -7.231877 
L 14.275352 -7.520316 
L 14.560859 -7.8138 
L 14.846366 -8.112283 
L 15.131873 -8.415719 
L 15.41738 -8.724061 
L 15.702887 -9.037263 
L 15.988394 -9.355276 
L 16.273901 -9.67805 
L 16.559408 -10.005536 
L 16.844915 -10.337685 
L 17.130422 -10.674444 
L 17.41593 -11.015762 
L 17.701437 -11.361588 
L 17.986944 -11.711867 
L 18.272451 -12.066547 
L 18.557958 -12.425573 
L 18.843465 -12.788891 
L 19.128972 -13.156444 
L 19.414479 -13.528177 
L 19.699986 -13.904034 
L 19.985493 -14.283957 
L 20.271 -14.667888 
L 20.556507 -15.055769 
L 20.842014 -15.447541 
L 21.127521 -15.843145 
L 21.413028 -16.242521 
L 21.698535 -16.645609 
L 21.984042 -17.052347 
L 22.269549 -17.462675 
L 22.555056 -17.87653 
L 22.840563 -18.293851 
L 23.12607 -18.714573 
L 23.411577 -19.138635 
L 23.697084 -19.565973 
L 23.982591 -19.996522 
L 24.268099 -20.430218 
L 24.553606 -20.866996 
L 24.839113 -21.306792 
L 25.12462 -21.749539 
L 25.410127 -22.195171 
L 25.695634 -22.643623 
L 25.981141 -23.094828 
L 26.266648 -23.548718 
L 26.552155 -24.005227 
L 26.837662 -24.464286 
L 27.123169 -24.925829 
L 27.408676 -25.389787 
L 27.694183 -25.856092 
L 27.97969 -26.324675 
L 28.265197 -26.795468 
L 28.550704 -27.268401 
L 28.836211 -27.743405 
L 29.121718 -28.220411 
L 29.407225 -28.699349 
L 29.692732 -29.180149 
L 29.978239 -29.662742 
L 30.263746 -30.147057 
L 30.549253 -30.633024 
L 30.83476 -31.120573 
L 31.120268 -31.609633 
L 31.405775 -32.100134 
L 31.691282 -32.592005 
L 31.976789 -33.085175 
L 32.262296 -33.579574 
L 32.547803 -34.075131 
L 32.83331 -34.571776 
L 33.118817 -35.069436 
L 33.404324 -35.568042 
L 33.689831 -36.067522 
L 33.975338 -36.567806 
L 34.260845 -37.068822 
L 34.546352 -37.570501 
L 34.831859 -38.072771 
L 35.117366 -38.575562 
L 35.402873 -39.078803 
L 35.68838 -39.582423 
L 35.973887 -40.086352 
L 36.259394 -40.590521 
L 36.544901 -41.094858 
L 36.830408 -41.599293 
L 37.115915 -42.103758 
L 37.401422 -42.608181 
L 37.686929 -43.112494 
L 37.972437 -43.616628 
L 38.257944 -44.120512 
L 38.543451 -44.624078 
L 38.828958 -45.127257 
L 39.114465 -45.629981 
L 39.399972 -46.132182 
L 39.685479 -46.63379 
L 39.970986 -47.134739 
L 40.256493 -47.634962 
L 40.542 -48.13439 
L 40.827507 -48.632956 
L 41.113014 -49.130595 
L 41.398521 -49.62724 
L 41.684028 -50.122824 
L 41.969535 -50.617283 
L 42.255042 -51.110551 
L 42.540549 -51.602562 
L 42.826056 -52.093252 
L 43.111563 -52.582558 
L 43.39707 -53.070414 
L 43.682577 -53.556758 
L 43.968084 -54.041527 
L 44.253591 -54.524657 
L 44.539098 -55.006087 
L 44.824606 -55.485755 
L 45.110113 -55.963599 
L 45.39562 -56.439559 
L 45.681127 -56.913574 
L 45.966634 -57.385584 
L 46.252141 -57.85553 
L 46.537648 -58.323352 
L 46.823155 -58.788992 
L 47.108662 -59.252393 
L 47.394169 -59.713495 
L 47.679676 -60.172243 
L 47.965183 -60.62858 
L 48.25069 -61.082449 
L 48.536197 -61.533796 
L 48.821704 -61.982566 
L 49.107211 -62.428704 
L 49.392718 -62.872156 
L 49.678225 -63.31287 
L 49.963732 -63.750792 
L 50.249239 -64.185871 
L 50.534746 -64.618055 
L 50.820253 -65.047293 
L 51.10576 -65.473535 
L 51.391267 -65.896732 
L 51.676774 -66.316834 
L 51.962282 -66.733792 
L 52.247789 -67.14756 
L 52.533296 -67.55809 
L 52.818803 -67.965335 
L 53.10431 -68.369249 
L 53.389817 -68.769787 
L 53.675324 -69.166905 
L 53.960831 -69.560559 
L 54.246338 -69.950705 
L 54.531845 -70.337301 
L 54.817352 -70.720304 
L 55.102859 -71.099674 
L 55.388366 -71.47537 
L 55.673873 -71.847352 
L 55.95938 -72.215581 
L 56.244887 -72.580018 
L 56.530394 -72.940625 
L 56.815901 -73.297365 
L 57.101408 -73.650202 
L 57.101408 0 
L 57.101408 0 
L 56.815901 0 
L 56.530394 0 
L 56.244887 0 
L 55.95938 0 
L 55.673873 0 
L 55.388366 0 
L 55.102859 0 
L 54.817352 0 
L 54.531845 0 
L 54.246338 0 
L 53.960831 0 
L 53.675324 0 
L 53.389817 0 
L 53.10431 0 
L 52.818803 0 
L 52.533296 0 
L 52.247789 0 
L 51.962282 0 
L 51.676774 0 
L 51.391267 0 
L 51.10576 0 
L 50.820253 0 
L 50.534746 0 
L 50.249239 0 
L 49.963732 0 
L 49.678225 0 
L 49.392718 0 
L 49.107211 0 
L 48.821704 0 
L 48.536197 0 
L 48.25069 0 
L 47.965183 0 
L 47.679676 0 
L 47.394169 0 
L 47.108662 0 
L 46.823155 0 
L 46.537648 0 
L 46.252141 0 
L 45.966634 0 
L 45.681127 0 
L 45.39562 0 
L 45.110113 0 
L 44.824606 0 
L 44.539098 0 
L 44.253591 0 
L 43.968084 0 
L 43.682577 0 
L 43.39707 0 
L 43.111563 0 
L 42.826056 0 
L 42.540549 0 
L 42.255042 0 
L 41.969535 0 
L 41.684028 0 
L 41.398521 0 
L 41.113014 0 
L 40.827507 0 
L 40.542 0 
L 40.256493 0 
L 39.970986 0 
L 39.685479 0 
L 39.399972 0 
L 39.114465 0 
L 38.828958 0 
L 38.543451 0 
L 38.257944 0 
L 37.972437 0 
L 37.686929 0 
L 37.401422 0 
L 37.115915 0 
L 36.830408 0 
L 36.544901 0 
L 36.259394 0 
L 35.973887 0 
L 35.68838 0 
L 35.402873 0 
L 35.117366 0 
L 34.831859 0 
L 34.546352 0 
L 34.260845 0 
L 33.975338 0 
L 33.689831 0 
L 33.404324 0 
L 33.118817 0 
L 32.83331 0 
L 32.547803 0 
L 32.262296 0 
L 31.976789 0 
L 31.691282 0 
L 31.405775 0 
L 31.120268 0 
L 30.83476 0 
L 30.549253 0 
L 30.263746 0 
L 29.978239 0 
L 29.692732 0 
L 29.407225 0 
L 29.121718 0 
L 28.836211 0 
L 28.550704 0 
L 28.265197 0 
L 27.97969 0 
L 27.694183 0 
L 27.408676 0 
L 27.123169 0 
L 26.837662 0 
L 26.552155 0 
L 26.266648 0 
L 25.981141 0 
L 25.695634 0 
L 25.410127 0 
L 25.12462 0 
L 24.839113 0 
L 24.553606 0 
L 24.268099 0 
L 23.982591 0 
L 23.697084 0 
L 23.411577 0 
L 23.12607 0 
L 22.840563 0 
L 22.555056 0 
L 22.269549 0 
L 21.984042 0 
L 21.698535 0 
L 21.413028 0 
L 21.127521 0 
L 20.842014 0 
L 20.556507 0 
L 20.271 0 
L 19.985493 0 
L 19.699986 0 
L 19.414479 0 
L 19.128972 0 
L 18.843465 0 
L 18.557958 0 
L 18.272451 0 
L 17.986944 0 
L 17.701437 0 
L 17.41593 0 
L 17.130422 0 
L 16.844915 0 
L 16.559408 0 
L 16.273901 0 
L 15.988394 0 
L 15.702887 0 
L 15.41738 0 
L 15.131873 0 
L 14.846366 0 
L 14.560859 0 
L 14.275352 0 
L 13.989845 0 
L 13.704338 0 
L 13.418831 0 
L 13.133324 0 
L 12.847817 0 
L 12.56231 0 
L 12.276803 0 
L 11.991296 0 
L 11.705789 0 
L 11.420282 0 
L 11.134775 0 
L 10.849268 0 
L 10.563761 0 
L 10.278253 0 
L 9.992746 0 
L 9.707239 0 
L 9.421732 0 
L 9.136225 0 
L 8.850718 0 
L 8.565211 0 
L 8.279704 0 
L 7.994197 0 
L 7.70869 0 
L 7.423183 0 
L 7.137676 0 
L 6.852169 0 
L 6.566662 0 
L 6.281155 0 
L 5.995648 0 
L 5.710141 0 
L 5.424634 0 
L 5.139127 0 
L 4.85362 0 
L 4.568113 0 
L 4.282606 0 
L 3.997099 0 
L 3.711592 0 
L 3.426084 0 
L 3.140577 0 
L 2.85507 0 
L 2.569563 0 
L 2.284056 0 
L 1.998549 0 
L 1.713042 0 
L 1.427535 0 
L 1.142028 0 
L 0.856521 0 
L 0.571014 0 
L 0.285507 0 
L 0 0 
z
" id="m770f056b8e" style="stroke:#cea071;"/>
    </defs>
    <g clip-path="url(#p1063e656c8)">
     <use style="fill:#cea071;stroke:#cea071;" x="0.0" xlink:href="#m770f056b8e" y="223.2"/>
    </g>
   </g>
   <g id="PolyCollection_9">
    <defs>
     <path d="M 57.101408 0 
L 57.101408 -73.650202 
L 57.513401 -71.258387 
L 57.925394 -68.913687 
L 58.337387 -66.616694 
L 58.74938 -64.367905 
L 59.161373 -62.167726 
L 59.573366 -60.016477 
L 59.985359 -57.914391 
L 60.397352 -55.861623 
L 60.809345 -53.858248 
L 61.221338 -51.904265 
L 61.633331 -49.999604 
L 62.045324 -48.144125 
L 62.457317 -46.337624 
L 62.86931 -44.579835 
L 63.281303 -42.870435 
L 63.693296 -41.209043 
L 64.105289 -39.595229 
L 64.517282 -38.028512 
L 64.929274 -36.508368 
L 65.341267 -35.034229 
L 65.75326 -33.605488 
L 66.165253 -32.221502 
L 66.577246 -30.881593 
L 66.989239 -29.585056 
L 67.401232 -28.331153 
L 67.813225 -27.119126 
L 68.225218 -25.948192 
L 68.637211 -24.817548 
L 69.049204 -23.726373 
L 69.461197 -22.673834 
L 69.87319 -21.659082 
L 70.285183 -20.681258 
L 70.697176 -19.739495 
L 71.109169 -18.83292 
L 71.521162 -17.960654 
L 71.933155 -17.121817 
L 72.345148 -16.315526 
L 72.757141 -15.540901 
L 73.169134 -14.797061 
L 73.581127 -14.083131 
L 73.99312 -13.398241 
L 74.405113 -12.741526 
L 74.817106 -12.11213 
L 75.229098 -11.509203 
L 75.641091 -10.931909 
L 76.053084 -10.379418 
L 76.465077 -9.850914 
L 76.87707 -9.345593 
L 77.289063 -8.862664 
L 77.701056 -8.40135 
L 78.113049 -7.960887 
L 78.525042 -7.540527 
L 78.937035 -7.139537 
L 79.349028 -6.7572 
L 79.761021 -6.392815 
L 80.173014 -6.045697 
L 80.585007 -5.715177 
L 80.997 -5.400603 
L 81.408993 -5.101342 
L 81.820986 -4.816776 
L 82.232979 -4.546303 
L 82.644972 -4.289341 
L 83.056965 -4.045323 
L 83.468958 -3.8137 
L 83.880951 -3.593939 
L 84.292944 -3.385524 
L 84.704937 -3.187957 
L 85.116929 -3.000754 
L 85.528922 -2.82345 
L 85.940915 -2.655594 
L 86.352908 -2.496751 
L 86.764901 -2.346503 
L 87.176894 -2.204446 
L 87.588887 -2.070191 
L 88.00088 -1.943364 
L 88.412873 -1.823606 
L 88.824866 -1.71057 
L 89.236859 -1.603925 
L 89.648852 -1.503353 
L 90.060845 -1.408547 
L 90.472838 -1.319216 
L 90.884831 -1.235077 
L 91.296824 -1.155864 
L 91.708817 -1.081318 
L 92.12081 -1.011195 
L 92.532803 -0.945259 
L 92.944796 -0.883287 
L 93.356789 -0.825064 
L 93.768782 -0.770386 
L 94.180775 -0.719059 
L 94.592768 -0.670897 
L 95.00476 -0.625725 
L 95.416753 -0.583373 
L 95.828746 -0.543682 
L 96.240739 -0.5065 
L 96.652732 -0.471683 
L 97.064725 -0.439094 
L 97.476718 -0.408602 
L 97.888711 -0.380085 
L 98.300704 -0.353425 
L 98.712697 -0.328511 
L 99.12469 -0.305239 
L 99.536683 -0.283509 
L 99.948676 -0.263228 
L 100.360669 -0.244306 
L 100.772662 -0.226659 
L 101.184655 -0.210208 
L 101.596648 -0.194878 
L 102.008641 -0.180599 
L 102.420634 -0.167303 
L 102.832627 -0.154929 
L 103.24462 -0.143416 
L 103.656613 -0.13271 
L 104.068606 -0.122757 
L 104.480599 -0.113508 
L 104.892591 -0.104917 
L 105.304584 -0.09694 
L 105.716577 -0.089536 
L 106.12857 -0.082668 
L 106.540563 -0.076297 
L 106.952556 -0.070392 
L 107.364549 -0.06492 
L 107.776542 -0.05985 
L 108.188535 -0.055157 
L 108.600528 -0.050812 
L 109.012521 -0.046793 
L 109.424514 -0.043075 
L 109.836507 -0.039639 
L 110.2485 -0.036463 
L 110.660493 -0.033529 
L 111.072486 -0.03082 
L 111.484479 -0.028319 
L 111.896472 -0.026011 
L 112.308465 -0.023883 
L 112.720458 -0.021921 
L 113.132451 -0.020113 
L 113.544444 -0.018447 
L 113.956437 -0.016913 
L 114.36843 -0.015501 
L 114.780422 -0.014201 
L 115.192415 -0.013006 
L 115.604408 -0.011907 
L 116.016401 -0.010897 
L 116.428394 -0.009968 
L 116.840387 -0.009116 
L 117.25238 -0.008333 
L 117.664373 -0.007615 
L 118.076366 -0.006956 
L 118.488359 -0.006352 
L 118.900352 -0.005798 
L 119.312345 -0.005291 
L 119.724338 -0.004826 
L 120.136331 -0.004401 
L 120.548324 -0.004011 
L 120.960317 -0.003655 
L 121.37231 -0.003329 
L 121.784303 -0.003031 
L 122.196296 -0.002759 
L 122.608289 -0.00251 
L 123.020282 -0.002283 
L 123.432275 -0.002075 
L 123.844268 -0.001886 
L 124.256261 -0.001714 
L 124.668253 -0.001556 
L 125.080246 -0.001413 
L 125.492239 -0.001282 
L 125.904232 -0.001163 
L 126.316225 -0.001055 
L 126.728218 -0.000956 
L 127.140211 -0.000867 
L 127.552204 -0.000785 
L 127.964197 -0.000711 
L 128.37619 -0.000644 
L 128.788183 -0.000582 
L 129.200176 -0.000527 
L 129.612169 -0.000476 
L 130.024162 -0.000431 
L 130.436155 -0.000389 
L 130.848148 -0.000351 
L 131.260141 -0.000317 
L 131.672134 -0.000286 
L 132.084127 -0.000258 
L 132.49612 -0.000233 
L 132.908113 -0.00021 
L 133.320106 -0.000189 
L 133.732099 -0.000171 
L 134.144092 -0.000154 
L 134.556084 -0.000138 
L 134.968077 -0.000125 
L 135.38007 -0.000112 
L 135.792063 -0.000101 
L 136.204056 -0.000091 
L 136.616049 -0.000081 
L 137.028042 -0.000073 
L 137.440035 -0.000066 
L 137.852028 -0.000059 
L 138.264021 -0.000053 
L 138.676014 -0.000047 
L 139.088007 -0.000043 
L 139.5 -0.000038 
L 139.5 0 
L 139.5 0 
L 139.088007 0 
L 138.676014 0 
L 138.264021 0 
L 137.852028 0 
L 137.440035 0 
L 137.028042 0 
L 136.616049 0 
L 136.204056 0 
L 135.792063 0 
L 135.38007 0 
L 134.968077 0 
L 134.556084 0 
L 134.144092 0 
L 133.732099 0 
L 133.320106 0 
L 132.908113 0 
L 132.49612 0 
L 132.084127 0 
L 131.672134 0 
L 131.260141 0 
L 130.848148 0 
L 130.436155 0 
L 130.024162 0 
L 129.612169 0 
L 129.200176 0 
L 128.788183 0 
L 128.37619 0 
L 127.964197 0 
L 127.552204 0 
L 127.140211 0 
L 126.728218 0 
L 126.316225 0 
L 125.904232 0 
L 125.492239 0 
L 125.080246 0 
L 124.668253 0 
L 124.256261 0 
L 123.844268 0 
L 123.432275 0 
L 123.020282 0 
L 122.608289 0 
L 122.196296 0 
L 121.784303 0 
L 121.37231 0 
L 120.960317 0 
L 120.548324 0 
L 120.136331 0 
L 119.724338 0 
L 119.312345 0 
L 118.900352 0 
L 118.488359 0 
L 118.076366 0 
L 117.664373 0 
L 117.25238 0 
L 116.840387 0 
L 116.428394 0 
L 116.016401 0 
L 115.604408 0 
L 115.192415 0 
L 114.780422 0 
L 114.36843 0 
L 113.956437 0 
L 113.544444 0 
L 113.132451 0 
L 112.720458 0 
L 112.308465 0 
L 111.896472 0 
L 111.484479 0 
L 111.072486 0 
L 110.660493 0 
L 110.2485 0 
L 109.836507 0 
L 109.424514 0 
L 109.012521 0 
L 108.600528 0 
L 108.188535 0 
L 107.776542 0 
L 107.364549 0 
L 106.952556 0 
L 106.540563 0 
L 106.12857 0 
L 105.716577 0 
L 105.304584 0 
L 104.892591 0 
L 104.480599 0 
L 104.068606 0 
L 103.656613 0 
L 103.24462 0 
L 102.832627 0 
L 102.420634 0 
L 102.008641 0 
L 101.596648 0 
L 101.184655 0 
L 100.772662 0 
L 100.360669 0 
L 99.948676 0 
L 99.536683 0 
L 99.12469 0 
L 98.712697 0 
L 98.300704 0 
L 97.888711 0 
L 97.476718 0 
L 97.064725 0 
L 96.652732 0 
L 96.240739 0 
L 95.828746 0 
L 95.416753 0 
L 95.00476 0 
L 94.592768 0 
L 94.180775 0 
L 93.768782 0 
L 93.356789 0 
L 92.944796 0 
L 92.532803 0 
L 92.12081 0 
L 91.708817 0 
L 91.296824 0 
L 90.884831 0 
L 90.472838 0 
L 90.060845 0 
L 89.648852 0 
L 89.236859 0 
L 88.824866 0 
L 88.412873 0 
L 88.00088 0 
L 87.588887 0 
L 87.176894 0 
L 86.764901 0 
L 86.352908 0 
L 85.940915 0 
L 85.528922 0 
L 85.116929 0 
L 84.704937 0 
L 84.292944 0 
L 83.880951 0 
L 83.468958 0 
L 83.056965 0 
L 82.644972 0 
L 82.232979 0 
L 81.820986 0 
L 81.408993 0 
L 80.997 0 
L 80.585007 0 
L 80.173014 0 
L 79.761021 0 
L 79.349028 0 
L 78.937035 0 
L 78.525042 0 
L 78.113049 0 
L 77.701056 0 
L 77.289063 0 
L 76.87707 0 
L 76.465077 0 
L 76.053084 0 
L 75.641091 0 
L 75.229098 0 
L 74.817106 0 
L 74.405113 0 
L 73.99312 0 
L 73.581127 0 
L 73.169134 0 
L 72.757141 0 
L 72.345148 0 
L 71.933155 0 
L 71.521162 0 
L 71.109169 0 
L 70.697176 0 
L 70.285183 0 
L 69.87319 0 
L 69.461197 0 
L 69.049204 0 
L 68.637211 0 
L 68.225218 0 
L 67.813225 0 
L 67.401232 0 
L 66.989239 0 
L 66.577246 0 
L 66.165253 0 
L 65.75326 0 
L 65.341267 0 
L 64.929274 0 
L 64.517282 0 
L 64.105289 0 
L 63.693296 0 
L 63.281303 0 
L 62.86931 0 
L 62.457317 0 
L 62.045324 0 
L 61.633331 0 
L 61.221338 0 
L 60.809345 0 
L 60.397352 0 
L 59.985359 0 
L 59.573366 0 
L 59.161373 0 
L 58.74938 0 
L 58.337387 0 
L 57.925394 0 
L 57.513401 0 
L 57.101408 0 
z
" id="m7696c892f2" style="stroke:#cea071;"/>
    </defs>
    <g clip-path="url(#p1063e656c8)">
     <use style="fill:#cea071;stroke:#cea071;" x="0.0" xlink:href="#m7696c892f2" y="223.2"/>
    </g>
   </g>
  </g>
 </g>
 <defs>
  <clipPath id="p1063e656c8">
   <rect height="223.2" width="334.8" x="0.0" y="0.0"/>
  </clipPath>
 </defs>
</svg>
